{"glyphs":{"0":{"ha":0,"x_min":0,"x_max":0,"o":"b 539 -127 81 0 539 -14 b 650 26 539 -201 649 26 b 498 26 650 140 722 26 b 313 -311 500 -201 427 -311 "},"1":{"ha":-185,"x_min":0,"x_max":0,"o":"m 500 982 l 308 982 l 65 827 l 65 647 l 290 788 l 296 788 l 296 0 l 500 0 z "},"2":{"ha":0,"x_min":0,"x_max":0,"o":""},"3":{"ha":0,"x_min":0,"x_max":0,"o":""},"4":{"ha":0,"x_min":0,"x_max":0,"o":""},"5":{"ha":35,"x_min":0,"x_max":0,"o":"m 438 -14 l 605 -14 l 605 -618 z "},"6":{"ha":56,"x_min":0,"x_max":0,"o":"m 457 -14 b 829 328 678 -15 829 129 b 521 646 829 513 697 646 b 270 507 412 646 315 594 l 260 507 b 465 821 262 700 332 821 b 617 709 544 821 601 779 l 818 709 b 465 996 798 871 663 996 b 61 468 220 996 61 799 b 457 -14 61 109 254 -12 z m 456 148 b 281 323 355 148 282 227 b 378 477 377 323 378 399 b 206 301 378 400 281 301 b 30 NaN 130 301 30 NaN z "},"7":{"ha":-37,"x_min":0,"x_max":0,"o":"m 115 0 l 327 0 l 741 812 l 741 982 l 47 982 l 47 815 l 529 815 l 529 808 z "},"8":{"ha":58,"x_min":0,"x_max":0,"o":"m 446 -14 b 831 264 670 -14 831 104 b 616 507 831 388 735 488 l 616 514 b 795 731 719 534 793 623 b 446 996 793 884 647 996 b 99 731 245 996 99 884 b 278 514 99 624 172 534 l 278 507 b 61 264 156 488 61 388 b 446 -14 61 104 222 -14 z m 446 142 b 274 285 342 142 273 201 b 358 420 359 285 358 358 b 203 274 358 358 273 274 b 42 NaN 145 274 42 NaN z m 42 NaN b -106 NaN -45 NaN -106 NaN b 42 NaN -106 NaN -46 NaN b 191 NaN 130 NaN 191 NaN b 42 NaN 191 NaN 129 NaN z "},"9":{"ha":56,"x_min":0,"x_max":0,"o":"m 435 996 b 64 655 213 997 64 853 b 372 339 65 472 195 339 b 624 477 481 339 578 391 l 632 477 b 427 161 632 281 562 161 b 275 277 349 161 292 205 l 75 277 b 427 -14 95 110 229 -14 b 831 517 674 -14 833 183 b 435 996 831 873 639 994 z m 437 836 b 612 662 537 836 610 755 b 435 488 612 567 534 488 b 263 661 335 488 263 564 b 437 836 262 758 336 836 z "}," ":{"ha":-516,"x_min":0,"x_max":0,"o":""}," ":{"ha":-516,"x_min":0,"x_max":0,"o":""},"A":{"ha":0,"x_min":0,"x_max":0,"o":""},"Á":{"ha":0,"x_min":0,"x_max":0,"o":""},"Ă":{"ha":0,"x_min":0,"x_max":0,"o":""},"Ắ":{"ha":0,"x_min":0,"x_max":0,"o":""},"Ặ":{"ha":0,"x_min":0,"x_max":0,"o":""},"Ằ":{"ha":0,"x_min":0,"x_max":0,"o":""},"Ẳ":{"ha":161,"x_min":0,"x_max":0,"o":"m -57 -845 l 647 365 l 769 741 l 776 741 l 899 365 z "},"Ẵ":{"ha":161,"x_min":0,"x_max":0,"o":"m -319 -1005 l 384 206 l 506 582 l 513 582 l 636 206 z "},"Ǎ":{"ha":0,"x_min":0,"x_max":0,"o":""},"Â":{"ha":0,"x_min":0,"x_max":0,"o":""},"Ấ":{"ha":0,"x_min":0,"x_max":0,"o":""},"Ậ":{"ha":0,"x_min":0,"x_max":0,"o":""},"Ầ":{"ha":0,"x_min":0,"x_max":0,"o":""},"Ẩ":{"ha":0,"x_min":0,"x_max":0,"o":""},"Ẫ":{"ha":0,"x_min":0,"x_max":0,"o":""},"Ȁ":{"ha":0,"x_min":0,"x_max":0,"o":""},"Ä":{"ha":0,"x_min":0,"x_max":0,"o":""},"Ǟ":{"ha":0,"x_min":0,"x_max":0,"o":""},"Ạ":{"ha":0,"x_min":0,"x_max":0,"o":""},"Ǡ":{"ha":0,"x_min":0,"x_max":0,"o":""},"À":{"ha":0,"x_min":0,"x_max":0,"o":""},"Ả":{"ha":0,"x_min":0,"x_max":0,"o":""},"Ȃ":{"ha":0,"x_min":0,"x_max":0,"o":""},"Ā":{"ha":0,"x_min":0,"x_max":0,"o":""},"Ą":{"ha":0,"x_min":0,"x_max":0,"o":"l 161 0 l 161 1 "},"Å":{"ha":0,"x_min":0,"x_max":0,"o":""},"Ǻ":{"ha":0,"x_min":0,"x_max":0,"o":""},"Ḁ":{"ha":0,"x_min":0,"x_max":0,"o":""},"Ã":{"ha":0,"x_min":0,"x_max":0,"o":""},"Æ":{"ha":0,"x_min":0,"x_max":0,"o":""},"Ǽ":{"ha":0,"x_min":0,"x_max":0,"o":""},"Ǣ":{"ha":0,"x_min":0,"x_max":0,"o":""},"B":{"ha":48,"x_min":0,"x_max":0,"o":""},"Ḃ":{"ha":0,"x_min":0,"x_max":0,"o":""},"Ḅ":{"ha":48,"x_min":0,"x_max":0,"o":"m -7 -845 z "},"Ɓ":{"ha":323,"x_min":0,"x_max":0,"o":"m 323 815 l 358 815 l 358 0 l 774 0 l 774 -427 b 498 -678 602 -427 496 -525 l 498 -773 l 680 -773 l 680 -716 b 776 -594 678 -658 696 -594 "},"Ḇ":{"ha":0,"x_min":0,"x_max":0,"o":""},"Ƃ":{"ha":0,"x_min":0,"x_max":0,"o":""},"C":{"ha":169,"x_min":0,"x_max":0,"o":""},"Ć":{"ha":0,"x_min":0,"x_max":0,"o":""},"Č":{"ha":0,"x_min":0,"x_max":0,"o":""},"Ç":{"ha":0,"x_min":0,"x_max":0,"o":""},"Ḉ":{"ha":0,"x_min":0,"x_max":0,"o":""},"Ĉ":{"ha":0,"x_min":0,"x_max":0,"o":""},"Ċ":{"ha":0,"x_min":0,"x_max":0,"o":""},"Ƈ":{"ha":283,"x_min":0,"x_max":0,"o":"m 945 640 l 945 724 b 1077 846 945 817 1016 846 b 1135 844 1093 846 1120 844 l 1135 1005 b 1039 1012 1101 1012 1072 1012 b 802 909 942 1012 853 976 b 521 996 727 965 631 996 l 201 1190 l 16 1453 z "},"D":{"ha":0,"x_min":0,"x_max":0,"o":""},"Ǳ":{"ha":1026,"x_min":0,"x_max":0,"o":"m -758 53 l -758 1015 l -126 1015 l -126 1150 b 157 836 60 1150 157 1054 b -127 518 157 616 60 518 z "},"Ɖ":{"ha":0,"x_min":0,"x_max":0,"o":""},"Ď":{"ha":0,"x_min":0,"x_max":0,"o":""},"Ḑ":{"ha":0,"x_min":0,"x_max":0,"o":""},"Ḓ":{"ha":0,"x_min":0,"x_max":0,"o":""},"Đ":{"ha":0,"x_min":0,"x_max":0,"o":""},"Ḋ":{"ha":0,"x_min":0,"x_max":0,"o":""},"Ḍ":{"ha":0,"x_min":0,"x_max":0,"o":""},"Ɗ":{"ha":417,"x_min":0,"x_max":0,"o":"m 45 731 l 45 636 l 227 636 l 227 693 b 323 807 225 751 243 807 l 362 807 l 362 0 l 708 0 l 317 0 b 41 -251 145 0 39 -98 "},"Ḏ":{"ha":0,"x_min":0,"x_max":0,"o":""},"Ƌ":{"ha":58,"x_min":0,"x_max":0,"o":"m 453 0 l 819 0 l 819 978 l 171 978 l 171 810 l 613 810 l 613 618 l 453 618 b 76 313 221 618 76 496 b 453 0 76 129 221 0 z m 613 164 l 453 164 b 283 315 339 164 283 233 b 453 454 283 393 339 454 l 613 454 z "},"ǲ":{"ha":899,"x_min":0,"x_max":0,"o":"m 964 0 z m 203 54 l 203 686 l 339 686 b 623 372 525 686 623 590 b 338 54 623 152 525 54 z "},"ǅ":{"ha":899,"x_min":0,"x_max":0,"o":"m 964 0 "},"Ð":{"ha":0,"x_min":0,"x_max":0,"o":""},"E":{"ha":-18,"x_min":0,"x_max":0,"o":""},"É":{"ha":0,"x_min":0,"x_max":0,"o":""},"Ĕ":{"ha":0,"x_min":0,"x_max":0,"o":""},"Ě":{"ha":0,"x_min":0,"x_max":0,"o":""},"Ḝ":{"ha":0,"x_min":0,"x_max":0,"o":""},"Ê":{"ha":0,"x_min":0,"x_max":0,"o":""},"Ế":{"ha":0,"x_min":0,"x_max":0,"o":""},"Ḙ":{"ha":0,"x_min":0,"x_max":0,"o":""},"Ệ":{"ha":0,"x_min":0,"x_max":0,"o":""},"Ề":{"ha":0,"x_min":0,"x_max":0,"o":""},"Ể":{"ha":0,"x_min":0,"x_max":0,"o":""},"Ễ":{"ha":0,"x_min":0,"x_max":0,"o":""},"Ȅ":{"ha":0,"x_min":0,"x_max":0,"o":""},"Ë":{"ha":0,"x_min":0,"x_max":0,"o":""},"Ė":{"ha":0,"x_min":0,"x_max":0,"o":""},"Ẹ":{"ha":0,"x_min":0,"x_max":0,"o":""},"È":{"ha":0,"x_min":0,"x_max":0,"o":""},"Ẻ":{"ha":0,"x_min":0,"x_max":0,"o":""},"Ȇ":{"ha":0,"x_min":0,"x_max":0,"o":""},"Ē":{"ha":0,"x_min":0,"x_max":0,"o":""},"Ḗ":{"ha":0,"x_min":0,"x_max":0,"o":""},"Ḕ":{"ha":0,"x_min":0,"x_max":0,"o":""},"Ę":{"ha":-18,"x_min":0,"x_max":0,"o":"m 83 0 l 526 0 l 493 -43 l 482 -98 l 491 -149 l 490 -148 l 490 19 l 33 19 l 33 258 l 454 258 l 454 426 l 33 426 l 33 665 l 488 665 l 488 833 l -171 833 z "},"Ɛ":{"ha":59,"x_min":0,"x_max":0,"o":"m 72 271 b 450 -14 72 81 224 -14 b 823 267 661 -14 822 88 l 616 267 b 445 151 614 199 559 151 b 279 285 345 151 279 189 b 446 420 279 374 332 420 l 566 420 l 566 579 l 446 579 b 294 704 339 579 294 632 b 452 829 294 784 346 829 b 602 723 548 829 602 789 l 808 723 b 452 996 807 886 659 996 b 87 718 232 996 87 892 b 244 503 87 619 147 543 b 72 271 134 465 72 386 z "},"Ʃ":{"ha":60,"x_min":0,"x_max":0,"o":"m 795 170 l 380 170 l 609 484 l 609 494 l 380 808 l 780 808 l 780 978 l 94 978 l 94 876 l 391 488 l 94 100 l 94 0 l 795 0 z "},"Ẽ":{"ha":0,"x_min":0,"x_max":0,"o":""},"Ḛ":{"ha":0,"x_min":0,"x_max":0,"o":""},"Ǝ":{"ha":-18,"x_min":0,"x_max":0,"o":"m 735 982 l 75 982 l 75 814 l 532 814 l 532 575 l 110 575 l 110 407 l 532 407 l 532 168 l 76 168 l 76 0 l 735 0 z "},"Ə":{"ha":185,"x_min":0,"x_max":0,"o":"m 499 -14 b 936 427 764 -14 936 171 l 936 551 b 467 996 936 817 766 996 b 159 944 342 996 201 967 l 193 774 b 445 814 258 798 357 814 b 730 551 661 814 730 707 l 730 549 l 85 549 l 85 438 b 499 -14 85 157 247 -14 z m 292 362 l 292 382 l 728 382 b 499 167 714 256 640 167 b 292 362 368 167 292 240 z "},"Ʒ":{"ha":82,"x_min":0,"x_max":0,"o":""},"Ǯ":{"ha":0,"x_min":0,"x_max":0,"o":""},"Ƹ":{"ha":82,"x_min":0,"x_max":0,"o":"m 873 69 l 667 69 b 464 -118 662 -42 574 -118 b 258 132 335 -118 258 -12 b 496 392 258 292 357 392 l 602 392 l 602 540 l 326 803 l 326 811 l 819 811 l 819 982 l 71 982 l 71 836 l 392 532 l 392 522 b 46 134 186 506 46 351 b 463 -292 46 -113 218 -292 b 873 69 693 -292 867 -141 z "},"F":{"ha":-55,"x_min":0,"x_max":0,"o":"m 83 0 l 286 0 l 286 407 z "},"Ḟ":{"ha":-55,"x_min":0,"x_max":0,"o":"m 83 0 l 286 0 l 286 407 "},"Ƒ":{"ha":-25,"x_min":0,"x_max":0,"o":"m 111 982 l 111 -46 b 9 -119 111 -104 64 -119 b -33 -118 -3 -119 -19 -119 l -33 -271 b 50 -277 -4 -277 31 -277 b 315 -46 193 -277 315 -233 l 315 407 z "},"G":{"ha":181,"x_min":0,"x_max":0,"o":""},"Ǵ":{"ha":0,"x_min":0,"x_max":0,"o":""},"Ǥ":{"ha":181,"x_min":0,"x_max":0,"o":"m 997 317 l 944 317 b 951 401 949 344 951 372 l 951 524 l 541 524 l 541 370 l 754 370 b 747 317 753 351 751 334 l 541 317 l 541 243 l 712 243 b 626 151 664 243 626 179 b 881 185 626 68 729 185 b 1090 36 988 185 1063 128 l 1296 36 b 1463 1 1490 36 1463 -135 b 1749 -71 1463 -220 1655 -71 b 1969 NaN 1911 -71 1969 NaN l 2041 NaN z "},"Ğ":{"ha":0,"x_min":0,"x_max":0,"o":""},"Ǧ":{"ha":0,"x_min":0,"x_max":0,"o":""},"Ĝ":{"ha":0,"x_min":0,"x_max":0,"o":""},"Ģ":{"ha":0,"x_min":0,"x_max":0,"o":""},"Ġ":{"ha":0,"x_min":0,"x_max":0,"o":""},"Ɠ":{"ha":277,"x_min":0,"x_max":0,"o":"m 941 666 l 941 814 b 1067 910 941 894 1000 910 b 1123 905 1086 910 1105 906 l 1123 1065 b 1028 1076 1090 1073 1061 1076 b 762 933 911 1076 809 1026 b 734 873 802 933 734 851 b 785 857 734 783 838 857 b 726 NaN 697 857 726 NaN l 726 NaN z "},"Ḡ":{"ha":0,"x_min":0,"x_max":0,"o":""},"Ȝ":{"ha":58,"x_min":0,"x_max":0,"o":"m 152 365 l 152 210 b 562 357 322 251 458 299 b 608 235 595 337 608 299 b 152 -125 608 41 438 -69 l 152 -288 b 815 228 544 -233 815 -62 b 692 453 815 334 769 410 b 800 707 764 524 800 608 b 439 996 800 899 658 996 b 80 723 229 996 80 886 l 285 723 b 439 830 285 788 345 830 b 595 680 544 830 595 781 b 152 365 595 533 481 461 z "},"H":{"ha":163,"x_min":0,"x_max":0,"o":""},"Ħ":{"ha":248,"x_min":0,"x_max":0,"o":"m 1040 811 l 960 811 l 960 982 l 755 982 l 755 811 l 330 811 l 330 982 l 126 982 l 126 811 l 45 811 l 45 696 l 126 696 l 126 0 l 330 0 l 330 407 l 755 407 l 755 0 l 960 0 l 960 696 l 1040 696 z m 330 575 l 330 696 l 755 696 l 755 575 z "},"Ḫ":{"ha":163,"x_min":0,"x_max":0,"o":"m 652 -1036 l 735 -1036 l 735 -1176 b 639 -1263 734 -1219 707 -1263 b 544 -1176 570 -1263 543 -1221 l 404 -1176 b 639 -1374 403 -1293 496 -1374 b 875 -1176 784 -1374 875 -1290 z "},"Ḩ":{"ha":163,"x_min":0,"x_max":0,"o":"m 83 0 l 140 0 b NaN NaN 119 -95 159 NaN l NaN NaN l NaN NaN l NaN NaN l NaN NaN l NaN NaN l NaN NaN l NaN NaN l NaN NaN z "},"Ĥ":{"ha":0,"x_min":0,"x_max":0,"o":""},"Ḧ":{"ha":0,"x_min":0,"x_max":0,"o":""},"Ḣ":{"ha":0,"x_min":0,"x_max":0,"o":""},"Ḥ":{"ha":0,"x_min":0,"x_max":0,"o":""},"I":{"ha":-467,"x_min":0,"x_max":0,"o":""},"Ĳ":{"ha":0,"x_min":0,"x_max":0,"o":""},"Í":{"ha":0,"x_min":0,"x_max":0,"o":""},"Ĭ":{"ha":0,"x_min":0,"x_max":0,"o":""},"Ǐ":{"ha":0,"x_min":0,"x_max":0,"o":""},"Î":{"ha":0,"x_min":0,"x_max":0,"o":""},"Ȉ":{"ha":0,"x_min":0,"x_max":0,"o":""},"Ï":{"ha":0,"x_min":0,"x_max":0,"o":""},"Ḯ":{"ha":0,"x_min":0,"x_max":0,"o":""},"İ":{"ha":0,"x_min":0,"x_max":0,"o":""},"Ị":{"ha":0,"x_min":0,"x_max":0,"o":""},"Ì":{"ha":0,"x_min":0,"x_max":0,"o":""},"Ỉ":{"ha":0,"x_min":0,"x_max":0,"o":""},"Ȋ":{"ha":0,"x_min":0,"x_max":0,"o":""},"Ī":{"ha":0,"x_min":0,"x_max":0,"o":""},"Į":{"ha":-467,"x_min":0,"x_max":0,"o":"m 286 982 l 83 982 l 83 16 l 39 -29 l 24 -92 l 34 -149 l 33 -148 z "},"Ɩ":{"ha":-401,"x_min":0,"x_max":0,"o":""},"Ɨ":{"ha":-467,"x_min":0,"x_max":0,"o":"m 286 982 l 83 982 z "},"Ĩ":{"ha":0,"x_min":0,"x_max":0,"o":""},"Ḭ":{"ha":0,"x_min":0,"x_max":0,"o":""},"J":{"ha":0,"x_min":0,"x_max":0,"o":""},"Ĵ":{"ha":0,"x_min":0,"x_max":0,"o":""},"K":{"ha":85,"x_min":0,"x_max":0,"o":""},"Ḱ":{"ha":0,"x_min":0,"x_max":0,"o":""},"Ǩ":{"ha":0,"x_min":0,"x_max":0,"o":""},"Ķ":{"ha":0,"x_min":0,"x_max":0,"o":""},"Ḳ":{"ha":0,"x_min":0,"x_max":0,"o":""},"Ƙ":{"ha":136,"x_min":0,"x_max":0,"o":"m 83 0 l 286 0 l 286 255 l 407 385 l 699 0 l 943 0 l 537 529 l 770 773 b 902 806 815 819 849 834 l 968 951 b 625 902 846 1023 724 1006 l 300 557 l 286 557 l 286 982 l 83 982 z "},"Ḵ":{"ha":85,"x_min":0,"x_max":0,"o":"m 614 -1103 l 148 -1103 l 148 -1213 l 614 -1213 z "},"L":{"ha":-78,"x_min":0,"x_max":0,"o":""},"Ǉ":{"ha":0,"x_min":0,"x_max":0,"o":""},"Ĺ":{"ha":0,"x_min":0,"x_max":0,"o":""},"Ƚ":{"ha":-78,"x_min":0,"x_max":0,"o":"m 83 0 l 709 0 l 709 168 l 286 168 l 286 458 l 690 458 l 690 255 l 286 255 l 286 118 l 167 118 l 167 255 z "},"Ľ":{"ha":0,"x_min":0,"x_max":0,"o":""},"Ḽ":{"ha":0,"x_min":0,"x_max":0,"o":""},"Ļ":{"ha":0,"x_min":0,"x_max":0,"o":""},"Ŀ":{"ha":-63,"x_min":0,"x_max":0,"o":"m 85 0 l 712 0 l 712 168 l 289 168 l 289 982 l 85 982 "},"Ḷ":{"ha":0,"x_min":0,"x_max":0,"o":""},"Ḹ":{"ha":0,"x_min":0,"x_max":0,"o":""},"ǈ":{"ha":0,"x_min":0,"x_max":0,"o":""},"Ḻ":{"ha":0,"x_min":0,"x_max":0,"o":""},"Ł":{"ha":-55,"x_min":0,"x_max":0,"o":"m 458 633 l 326 597 l 326 982 l 122 982 l 122 540 l 15 510 l 15 399 l 122 429 l 122 0 l 749 0 l 749 168 l 326 168 l 326 484 l 458 521 z "},"M":{"ha":390,"x_min":0,"x_max":0,"o":""},"Ḿ":{"ha":0,"x_min":0,"x_max":0,"o":""},"Ṁ":{"ha":0,"x_min":0,"x_max":0,"o":""},"Ṃ":{"ha":0,"x_min":0,"x_max":0,"o":""},"N":{"ha":149,"x_min":0,"x_max":0,"o":""},"Ǌ":{"ha":0,"x_min":0,"x_max":0,"o":""},"Ń":{"ha":0,"x_min":0,"x_max":0,"o":""},"Ň":{"ha":0,"x_min":0,"x_max":0,"o":""},"Ṋ":{"ha":0,"x_min":0,"x_max":0,"o":""},"Ņ":{"ha":0,"x_min":0,"x_max":0,"o":""},"Ṅ":{"ha":0,"x_min":0,"x_max":0,"o":""},"Ṇ":{"ha":0,"x_min":0,"x_max":0,"o":""},"Ɲ":{"ha":172,"x_min":0,"x_max":0,"o":"m 104 0 l 104 -46 b 3 -119 104 -104 57 -119 b -38 -118 -8 -119 -26 -119 l -38 -271 b 56 -277 -15 -277 31 -277 b 309 -46 182 -277 309 -233 l 309 624 l 317 624 l 749 0 l 925 0 l 925 982 z "},"ǋ":{"ha":0,"x_min":0,"x_max":0,"o":""},"Ṉ":{"ha":0,"x_min":0,"x_max":0,"o":""},"Ñ":{"ha":0,"x_min":0,"x_max":0,"o":""},"Ŋ":{"ha":149,"x_min":0,"x_max":0,"o":"m 726 0 l 726 -43 b 613 -136 726 -107 680 -136 b 543 -129 587 -136 562 -133 l 543 -281 b 617 -290 564 -288 593 -290 b 902 -41 788 -290 902 -225 l 902 982 l 700 982 l 700 358 l 690 358 l 262 982 l 83 982 l 83 0 l 286 0 l 286 624 l 294 624 z "},"O":{"ha":210,"x_min":0,"x_max":0,"o":""},"Ƣ":{"ha":413,"x_min":0,"x_max":0,"o":"m 867 123 l 867 701 l 970 746 l 970 -277 l 1166 -277 l 1166 982 l 1017 982 l 830 897 b 507 996 763 951 648 996 b 64 530 228 996 64 825 l 64 452 b 503 -14 64 161 227 -14 b 867 123 675 -14 811 53 z m 273 452 l 273 530 b 513 830 273 724 336 830 b 669 784 574 830 635 815 l 669 199 b 511 151 636 171 579 151 b 273 452 339 151 273 267 z "},"Ó":{"ha":0,"x_min":0,"x_max":0,"o":""},"Ɵ":{"ha":0,"x_min":0,"x_max":0,"o":""},"Ŏ":{"ha":0,"x_min":0,"x_max":0,"o":""},"Ǒ":{"ha":0,"x_min":0,"x_max":0,"o":""},"Ô":{"ha":0,"x_min":0,"x_max":0,"o":""},"Ố":{"ha":0,"x_min":0,"x_max":0,"o":""},"Ộ":{"ha":0,"x_min":0,"x_max":0,"o":""},"Ồ":{"ha":0,"x_min":0,"x_max":0,"o":""},"Ổ":{"ha":0,"x_min":0,"x_max":0,"o":""},"Ỗ":{"ha":0,"x_min":0,"x_max":0,"o":""},"Ȍ":{"ha":0,"x_min":0,"x_max":0,"o":""},"Ö":{"ha":0,"x_min":0,"x_max":0,"o":""},"Ọ":{"ha":0,"x_min":0,"x_max":0,"o":""},"Ò":{"ha":0,"x_min":0,"x_max":0,"o":""},"Ỏ":{"ha":0,"x_min":0,"x_max":0,"o":""},"Ơ":{"ha":252,"x_min":0,"x_max":0,"o":""},"Ớ":{"ha":0,"x_min":0,"x_max":0,"o":""},"Ợ":{"ha":0,"x_min":0,"x_max":0,"o":""},"Ờ":{"ha":0,"x_min":0,"x_max":0,"o":""},"Ở":{"ha":0,"x_min":0,"x_max":0,"o":""},"Ỡ":{"ha":0,"x_min":0,"x_max":0,"o":""},"Ő":{"ha":0,"x_min":0,"x_max":0,"o":""},"Ȏ":{"ha":0,"x_min":0,"x_max":0,"o":""},"Ō":{"ha":0,"x_min":0,"x_max":0,"o":""},"Ṓ":{"ha":0,"x_min":0,"x_max":0,"o":""},"Ṑ":{"ha":0,"x_min":0,"x_max":0,"o":""},"Ǫ":{"ha":210,"x_min":0,"x_max":0,"o":""},"Ǭ":{"ha":0,"x_min":0,"x_max":0,"o":""},"Ɔ":{"ha":169,"x_min":0,"x_max":0,"o":""},"Ø":{"ha":210,"x_min":0,"x_max":0,"o":"m -503 0 b -251 324 -503 210 -403 324 b -119 288 -201 324 -157 312 l -460 -201 b -503 0 -488 -150 -503 -82 z "},"Ǿ":{"ha":210,"x_min":0,"x_max":0,"o":"m -281 -804 b 406 -918 -281 -1128 305 -918 b 671 -824 519 -918 671 -868 b NaN -799 671 -836 647 -799 l NaN -1287 b NaN -1086 NaN -1236 NaN -1168 z "},"Õ":{"ha":0,"x_min":0,"x_max":0,"o":""},"Ṍ":{"ha":0,"x_min":0,"x_max":0,"o":""},"Ṏ":{"ha":0,"x_min":0,"x_max":0,"o":""},"Œ":{"ha":527,"x_min":0,"x_max":0,"o":"m 510 0 l 1289 0 l 1289 168 l 511 168 b 65 -324 255 168 65 -5 b 511 -814 65 -640 255 -814 z m 270 -324 b 511 0 270 -102 369 0 l 629 0 l 629 -646 l 511 -646 b 270 -324 369 -646 270 -547 z "},"P":{"ha":0,"x_min":0,"x_max":0,"o":""},"Ṕ":{"ha":29,"x_min":0,"x_max":0,"o":"m 83 0 "},"Ṗ":{"ha":29,"x_min":0,"x_max":0,"o":"m 83 0 "},"Ƥ":{"ha":304,"x_min":0,"x_max":0,"o":"m 227 636 l 227 693 b 323 815 225 751 243 815 l 358 815 l 358 0 l 562 0 l 562 320 l 738 320 b 1095 651 964 320 1095 454 b 743 982 1095 845 967 982 l 321 982 b 45 731 149 982 43 884 l 45 636 "},"Þ":{"ha":0,"x_min":0,"x_max":0,"o":""},"Q":{"ha":211,"x_min":0,"x_max":0,"o":"m 452 340 l 581 172 b 524 167 562 169 543 167 b 271 491 372 167 271 281 b 524 815 271 701 372 815 b 774 491 675 815 774 701 b 701 244 774 382 748 299 l 627 340 b 836 757 627 696 777 757 b 867 NaN 846 757 867 810 l 945 NaN l 1137 NaN l 997 NaN b 1153 NaN 1093 NaN 1153 NaN z "},"Ɋ":{"ha":272,"x_min":0,"x_max":0,"o":"m 960 -46 l 960 982 l 761 982 l 761 838 l 751 838 b 476 996 704 928 609 996 b 64 492 239 996 64 777 b 476 -15 64 205 236 -15 b 751 145 608 -15 704 53 l 760 145 l 760 -46 b 1009 -277 760 -225 871 -277 b 1112 -270 1054 -277 1089 -273 b 1009 -197 1058 -270 1009 -255 z m 564 16 b 320 342 414 16 320 137 b 566 666 320 540 411 666 b 810 342 728 666 810 534 b 564 16 810 145 732 16 z "},"R":{"ha":0,"x_min":0,"x_max":0,"o":""},"Ŕ":{"ha":0,"x_min":0,"x_max":0,"o":""},"Ř":{"ha":0,"x_min":0,"x_max":0,"o":""},"Ŗ":{"ha":0,"x_min":0,"x_max":0,"o":""},"Ȑ":{"ha":0,"x_min":0,"x_max":0,"o":""},"Ṙ":{"ha":0,"x_min":0,"x_max":0,"o":""},"Ṛ":{"ha":0,"x_min":0,"x_max":0,"o":""},"Ṝ":{"ha":0,"x_min":0,"x_max":0,"o":""},"Ȓ":{"ha":0,"x_min":0,"x_max":0,"o":""},"Ṟ":{"ha":0,"x_min":0,"x_max":0,"o":""},"S":{"ha":39,"x_min":0,"x_max":0,"o":""},"Ś":{"ha":0,"x_min":0,"x_max":0,"o":""},"Ṥ":{"ha":0,"x_min":0,"x_max":0,"o":""},"Š":{"ha":0,"x_min":0,"x_max":0,"o":""},"Ṧ":{"ha":0,"x_min":0,"x_max":0,"o":""},"Ş":{"ha":0,"x_min":0,"x_max":0,"o":"b 172 314 39 616 43 422 b 386 NaN 378 298 360 216 l NaN NaN b NaN NaN NaN NaN NaN NaN l NaN NaN b NaN NaN NaN NaN NaN NaN b NaN NaN NaN NaN NaN NaN b NaN NaN NaN NaN NaN NaN "},"Ŝ":{"ha":0,"x_min":0,"x_max":0,"o":""},"Ș":{"ha":39,"x_min":0,"x_max":0,"o":"m -326 -1024 l -184 -1024 l -80 -787 l -266 -787 z "},"Ṡ":{"ha":0,"x_min":0,"x_max":0,"o":""},"Ṣ":{"ha":0,"x_min":0,"x_max":0,"o":""},"Ṩ":{"ha":0,"x_min":0,"x_max":0,"o":""},"ẞ":{"ha":121,"x_min":0,"x_max":0,"o":"m 83 647 l 83 0 l 286 0 l 286 647 b 430 834 286 753 328 834 b 609 773 503 834 564 807 l 429 567 l 429 444 l 518 444 b 708 285 598 444 708 412 b 545 148 708 199 647 148 b 400 179 495 148 442 161 l 343 26 b 559 -14 404 1 487 -14 b 907 283 762 -14 907 102 b 635 568 907 435 802 548 l 853 827 b 429 996 732 924 571 996 b 83 647 216 996 83 863 z "},"T":{"ha":56,"x_min":0,"x_max":0,"o":""},"Ŧ":{"ha":56,"x_min":0,"x_max":0,"o":"m 45 814 l 346 814 l 346 530 l -65 530 l -65 732 l 346 732 l 346 1016 l 647 1016 l 647 1184 l -157 1184 z "},"Ť":{"ha":0,"x_min":0,"x_max":0,"o":""},"Ṱ":{"ha":0,"x_min":0,"x_max":0,"o":""},"Ţ":{"ha":56,"x_min":0,"x_max":0,"o":"m 45 814 l 346 814 l 346 0 l 401 0 b NaN NaN 381 -94 419 NaN l NaN NaN l NaN NaN l NaN NaN l NaN NaN l NaN NaN l NaN NaN z "},"Ṫ":{"ha":0,"x_min":0,"x_max":0,"o":""},"Ṭ":{"ha":0,"x_min":0,"x_max":0,"o":""},"Ƭ":{"ha":104,"x_min":0,"x_max":0,"o":"m 895 982 l 311 982 b 45 731 138 982 45 886 l 45 637 l 214 637 l 214 694 b 311 814 214 753 232 814 l 393 814 l 393 0 l 594 0 l 594 814 l 895 814 z "},"Ṯ":{"ha":0,"x_min":0,"x_max":0,"o":""},"Ƽ":{"ha":12,"x_min":0,"x_max":0,"o":"m 776 982 l 43 982 l 43 815 l 156 815 l 118 815 l 118 416 z "},"Ƅ":{"ha":238,"x_min":0,"x_max":0,"o":"m 486 982 l 45 982 l 45 814 l 281 814 l 281 0 l 118 0 z m 118 -453 "},"Ƨ":{"ha":39,"x_min":0,"x_max":0,"o":"m 64 701 l 260 701 b 430 825 269 779 330 825 b 590 712 532 825 590 777 b 433 590 591 642 518 609 l 345 568 b 50 281 176 530 52 445 b 431 -14 52 100 191 -14 b 825 307 667 -14 819 96 l 627 307 b 433 157 620 208 541 157 b 256 281 327 157 256 208 b 425 406 256 347 317 378 l 532 431 b 799 699 697 472 799 555 b 429 996 800 878 643 996 b 64 701 210 996 66 875 z "},"Ʈ":{"ha":56,"x_min":0,"x_max":0,"o":"m 547 -46 l 547 0 l 548 0 l 548 814 l -312 814 b -58 583 -312 627 -186 583 l 35 583 l 35 742 l -5 742 b -111 814 -58 742 -111 755 z "},"U":{"ha":142,"x_min":0,"x_max":0,"o":""},"Ú":{"ha":0,"x_min":0,"x_max":0,"o":""},"Ŭ":{"ha":0,"x_min":0,"x_max":0,"o":""},"Ǔ":{"ha":0,"x_min":0,"x_max":0,"o":""},"Û":{"ha":0,"x_min":0,"x_max":0,"o":""},"Ṷ":{"ha":0,"x_min":0,"x_max":0,"o":""},"Ȕ":{"ha":0,"x_min":0,"x_max":0,"o":""},"Ü":{"ha":0,"x_min":0,"x_max":0,"o":""},"Ǘ":{"ha":0,"x_min":0,"x_max":0,"o":""},"Ṳ":{"ha":142,"x_min":0,"x_max":0,"o":"m 342 0 z "},"Ǚ":{"ha":0,"x_min":0,"x_max":0,"o":""},"Ǜ":{"ha":0,"x_min":0,"x_max":0,"o":""},"Ǖ":{"ha":0,"x_min":0,"x_max":0,"o":""},"Ụ":{"ha":0,"x_min":0,"x_max":0,"o":""},"Ù":{"ha":0,"x_min":0,"x_max":0,"o":""},"Ủ":{"ha":0,"x_min":0,"x_max":0,"o":""},"Ư":{"ha":330,"x_min":0,"x_max":0,"o":""},"Ứ":{"ha":330,"x_min":0,"x_max":0,"o":"m -705 58 l -563 58 l -416 277 l -604 277 z "},"Ự":{"ha":0,"x_min":0,"x_max":0,"o":""},"Ừ":{"ha":330,"x_min":0,"x_max":0,"o":"m -703 58 l -560 58 l -662 277 l -849 277 z "},"Ử":{"ha":0,"x_min":0,"x_max":0,"o":""},"Ữ":{"ha":330,"x_min":0,"x_max":0,"o":"m -883 56 l -770 54 b -715 127 -770 99 -747 127 b -537 56 -655 127 -633 56 b -381 244 -452 56 -382 123 l -492 247 b -551 174 -492 203 -513 174 b -727 244 -605 174 -639 245 b -883 56 -814 244 -883 176 z "},"Ű":{"ha":0,"x_min":0,"x_max":0,"o":""},"Ȗ":{"ha":0,"x_min":0,"x_max":0,"o":""},"Ū":{"ha":0,"x_min":0,"x_max":0,"o":""},"Ṻ":{"ha":0,"x_min":0,"x_max":0,"o":""},"Ų":{"ha":142,"x_min":0,"x_max":0,"o":"m 690 982 b 998 632 690 797 809 666 b 967 490 968 591 959 538 b 1080 580 1012 490 1052 521 b 1367 924 1255 618 1367 747 l 1367 1562 z "},"Ʊ":{"ha":205,"x_min":0,"x_max":0,"o":"m 57 450 b 521 -14 57 179 250 -14 b 985 450 792 -14 985 179 b 800 806 985 614 913 734 l 800 814 l 985 814 l 985 982 l 597 982 l 597 770 b 779 465 701 728 779 609 b 521 168 779 296 671 168 b 263 465 370 168 263 296 b 445 770 263 609 340 728 l 445 982 l 57 982 l 57 814 l 241 814 l 241 806 b 57 450 129 734 57 614 z "},"Ů":{"ha":0,"x_min":0,"x_max":0,"o":""},"Ũ":{"ha":0,"x_min":0,"x_max":0,"o":""},"Ṹ":{"ha":0,"x_min":0,"x_max":0,"o":""},"Ṵ":{"ha":0,"x_min":0,"x_max":0,"o":""},"V":{"ha":161,"x_min":0,"x_max":0,"o":""},"Ɣ":{"ha":154,"x_min":0,"x_max":0,"o":"m 38 982 l 395 256 b 252 -109 280 8 252 -54 b 495 -292 252 -224 350 -292 b 732 -113 639 -292 732 -218 b 597 255 732 -48 684 64 l 952 982 l 719 982 l 495 480 l 270 982 z m 456 -100 b 496 43 456 -63 471 -16 b 534 -99 520 -15 534 -63 b 495 -149 534 -130 521 -149 b 456 -100 469 -149 456 -130 z "},"Ʋ":{"ha":55,"x_min":0,"x_max":0,"o":"m 446 -14 b 827 330 667 -14 827 107 l 827 727 b 566 996 827 899 727 996 b 468 985 530 996 500 991 l 468 821 b 526 826 490 825 510 826 b 617 727 594 826 617 802 l 617 330 b 446 151 617 213 563 151 b 273 330 331 151 273 213 l 273 982 l 66 982 l 66 330 b 446 -14 66 106 225 -14 z "},"Ṿ":{"ha":0,"x_min":0,"x_max":0,"o":""},"Ṽ":{"ha":0,"x_min":0,"x_max":0,"o":""},"W":{"ha":551,"x_min":0,"x_max":0,"o":""},"Ẃ":{"ha":0,"x_min":0,"x_max":0,"o":""},"Ŵ":{"ha":0,"x_min":0,"x_max":0,"o":""},"Ẅ":{"ha":0,"x_min":0,"x_max":0,"o":""},"Ẇ":{"ha":0,"x_min":0,"x_max":0,"o":""},"Ẉ":{"ha":0,"x_min":0,"x_max":0,"o":""},"Ẁ":{"ha":0,"x_min":0,"x_max":0,"o":""},"X":{"ha":116,"x_min":0,"x_max":0,"o":""},"Ẍ":{"ha":0,"x_min":0,"x_max":0,"o":""},"Ẋ":{"ha":0,"x_min":0,"x_max":0,"o":""},"Y":{"ha":130,"x_min":0,"x_max":0,"o":""},"Ʀ":{"ha":182,"x_min":0,"x_max":0,"o":"m 62 1050 l 62 0 l 270 0 l 270 370 l 419 370 l 735 -232 l 958 -232 l 958 -222 l 612 419 b 798 692 725 465 798 545 b 431 982 798 882 658 982 l 269 982 l 269 1050 z m 270 536 l 270 817 l 431 817 b 591 674 538 817 591 761 b 431 536 591 591 536 536 z "},"Ý":{"ha":0,"x_min":0,"x_max":0,"o":""},"Ŷ":{"ha":0,"x_min":0,"x_max":0,"o":""},"Ÿ":{"ha":0,"x_min":0,"x_max":0,"o":""},"Ẏ":{"ha":0,"x_min":0,"x_max":0,"o":""},"Ỵ":{"ha":0,"x_min":0,"x_max":0,"o":""},"Ỳ":{"ha":0,"x_min":0,"x_max":0,"o":""},"Ƴ":{"ha":216,"x_min":0,"x_max":0,"o":"m 31 982 l 411 381 l 411 0 l 614 0 l 614 381 l 857 764 b 993 818 895 823 929 838 l 1038 971 b 701 861 917 1017 783 997 l 519 559 l 506 559 l 254 982 z "},"Ỷ":{"ha":0,"x_min":0,"x_max":0,"o":""},"Ỹ":{"ha":0,"x_min":0,"x_max":0,"o":""},"Z":{"ha":54,"x_min":0,"x_max":0,"o":""},"Ź":{"ha":0,"x_min":0,"x_max":0,"o":""},"Ƶ":{"ha":54,"x_min":0,"x_max":0,"o":"m 71 0 l 819 0 l 819 168 l 327 168 l 533 458 l 697 458 l 697 578 l 618 578 l 818 860 l 650 624 l 476 624 l 476 505 l 566 505 l 326 168 z "},"Ž":{"ha":0,"x_min":0,"x_max":0,"o":""},"Ẑ":{"ha":0,"x_min":0,"x_max":0,"o":""},"Ż":{"ha":0,"x_min":0,"x_max":0,"o":""},"Ẓ":{"ha":0,"x_min":0,"x_max":0,"o":""},"Ẕ":{"ha":0,"x_min":0,"x_max":0,"o":""},"Ɯ":{"ha":440,"x_min":0,"x_max":0,"o":"m 102 281 b 346 -14 102 65 184 -14 b 572 103 450 -14 526 31 b 783 -14 612 20 686 -14 b 987 79 871 -14 940 20 l 996 0 l 1176 0 l 1176 982 l 977 982 l 977 220 b 841 146 954 174 911 146 b 736 281 780 146 736 184 l 736 982 l 540 982 l 540 281 b 543 225 540 261 541 242 b 403 146 519 177 475 146 b 300 281 342 146 300 184 l 300 982 l 102 982 z "},"Ƕ":{"ha":672,"x_min":0,"x_max":0,"o":"m 1072 -14 b 1430 330 1290 -14 1430 111 l 1430 718 l 1225 718 l 1225 330 b 1072 159 1225 217 1169 159 b 917 330 974 159 917 217 l 917 982 l 712 982 l 712 0 l 916 0 l 916 407 l 1341 407 l 1341 330 b 1701 -14 1341 113 1482 -14 z "},"Ƿ":{"ha":158,"x_min":0,"x_max":0,"o":"m 312 982 l 106 982 l 106 -277 l 312 -277 l 312 -98 b 890 526 678 16 890 245 l 890 562 b 483 996 890 845 723 996 b 312 960 414 996 356 982 z m 312 73 l 312 762 b 484 830 353 804 412 830 b 680 563 639 830 680 709 l 680 526 b 312 73 680 335 558 166 z "},"Ǹ":{"ha":0,"x_min":0,"x_max":0,"o":""},"Ț":{"ha":0,"x_min":0,"x_max":0,"o":""},"Ȟ":{"ha":0,"x_min":0,"x_max":0,"o":""},"Ƞ":{"ha":59,"x_min":0,"x_max":0,"o":"m 811 -274 l 811 699 b 480 996 811 886 663 996 b 285 948 410 996 344 979 l 285 982 l 85 982 l 85 0 l 285 0 l 285 787 b 453 837 338 819 394 837 b 610 699 553 837 610 793 l 610 -274 z "},"Ȣ":{"ha":58,"x_min":0,"x_max":0,"o":"m 441 463 l 454 463 b 620 307 556 463 620 408 b 454 151 620 203 556 151 l 441 151 b 274 305 339 151 273 205 b 441 463 273 407 339 463 z m 457 629 l 437 629 b 274 739 336 629 274 646 b 354 837 273 796 298 825 l 354 996 b 64 739 178 994 64 905 b 176 538 64 644 106 578 b 64 305 104 487 64 408 b 441 -14 64 103 220 -14 l 454 -14 b 830 307 675 -14 830 103 b 719 538 830 409 789 487 b 831 739 790 579 832 644 b 541 996 831 903 718 994 l 541 837 b 623 739 597 823 623 795 b 457 629 623 647 557 629 z "},"Ȥ":{"ha":54,"x_min":0,"x_max":0,"o":"m 69 814 l 567 814 l 71 122 l 71 0 l 568 0 b 666 -118 648 0 666 -56 l 666 -168 l 834 -168 l 834 -81 b 568 168 834 73 739 168 l 321 168 l 818 860 l 818 982 l 69 982 z "},"Ȧ":{"ha":0,"x_min":0,"x_max":0,"o":""},"Ȩ":{"ha":-18,"x_min":0,"x_max":0,"o":""},"Ȫ":{"ha":0,"x_min":0,"x_max":0,"o":""},"Ȭ":{"ha":0,"x_min":0,"x_max":0,"o":""},"Ȯ":{"ha":0,"x_min":0,"x_max":0,"o":""},"Ȱ":{"ha":0,"x_min":0,"x_max":0,"o":""},"Ȳ":{"ha":0,"x_min":0,"x_max":0,"o":""},"Ⱥ":{"ha":161,"x_min":0,"x_max":0,"o":"m 817 1107 l 692 1107 l 642 1107 l 642 949 l 629 949 l 629 982 l 849 982 l 924 1208 l 1008 1208 l 894 857 l 1020 857 l 1134 1208 l 1279 1208 l 1352 982 l 1571 982 l 1308 1746 z m 975 1367 l 1097 1743 l 1104 1743 l 1143 1624 l 1059 1367 z m 1185 1367 l 1206 1431 l 1227 1367 z "},"Ȼ":{"ha":169,"x_min":0,"x_max":0,"o":"m 243 -125 l 369 -125 l 410 -1 b 521 -14 444 -9 482 -14 b 305 -182 500 -119 418 -182 b 247 -175 285 -182 265 -180 l 442 427 b 521 292 484 396 512 350 l 727 292 b 500 608 709 444 624 553 l 549 758 l 425 758 l 387 642 b 302 647 359 645 332 647 b 98 634 83 647 174 492 z m 73 1084 b 326 1409 73 1291 173 1409 l 349 1409 l 159 824 b 73 1084 104 878 73 966 z "},"Ⱦ":{"ha":56,"x_min":0,"x_max":0,"o":"m 201 -125 l 326 -125 l 366 0 l 548 0 l 548 560 l 631 814 l 849 814 l 849 982 l 685 982 l 726 1107 l 600 1107 l 559 982 l 45 982 l 45 814 l 346 814 l 346 324 z "},"Ɂ":{"ha":-70,"x_min":0,"x_max":0,"o":"m 370 336 l 275 336 l 275 0 l 483 0 l 483 184 b 715 529 634 229 715 365 l 715 632 b 368 996 715 837 591 996 b 50 705 187 996 52 880 l 248 705 b 370 826 248 773 290 826 b 506 632 488 826 506 716 l 506 529 b 370 336 506 422 481 336 z "},"Ƀ":{"ha":132,"x_min":0,"x_max":0,"o":"m 167 0 l -456 0 l -456 -141 l -575 -141 l -575 0 z m -199 -72 z "},"Ʉ":{"ha":180,"x_min":0,"x_max":0,"o":"m 1027 559 l 918 559 l 918 982 l 713 982 l 713 559 l 309 559 l 309 982 l 106 982 l 106 559 l -11 559 l -11 441 l 106 441 l 106 345 l 106 441 l 214 441 z m -503 361 z "},"Ʌ":{"ha":182,"x_min":0,"x_max":0,"o":"m 731 0 l 960 0 l 616 982 l 401 982 l 58 0 l 288 0 l 509 738 z "},"Ɇ":{"ha":-18,"x_min":0,"x_max":0,"o":"m 673 1107 l 563 1107 l 528 982 l 83 982 l 83 0 l 245 0 l 209 -125 l 317 -125 l 354 0 l 743 0 l 743 168 l 403 168 l 471 407 l 708 407 l 708 575 l 519 575 l 589 814 l 742 814 l 742 982 l 637 982 z m 286 168 l 286 407 l 362 407 l 293 168 z m 286 575 l 286 814 l 479 814 l 411 575 z "},"Ɉ":{"ha":-77,"x_min":0,"x_max":0,"o":"m 475 982 l 475 647 l 335 647 l 335 528 l 475 528 l 475 297 l 705 297 l 705 431 l 825 431 l 825 297 l 1160 297 z "},"Ɍ":{"ha":67,"x_min":0,"x_max":0,"o":"m 104 0 l 308 0 l 308 349 l 464 349 b -12 730 464 536 115 730 b -110 NaN 114 730 -110 NaN l -495 NaN l -495 NaN l -593 NaN l -593 NaN l -495 NaN "},"Ɏ":{"ha":131,"x_min":0,"x_max":0,"o":"m 960 777 l 827 777 l 943 982 l 713 982 l 605 777 l 362 777 l 252 982 l 23 982 l 140 777 l 7 777 l 7 673 l 198 673 l 381 350 l 381 0 l 585 0 l 585 350 l 768 673 l 960 673 z m 418 673 l 549 673 l 488 559 l 479 559 z "},"Ỻ":{"ha":398,"x_min":0,"x_max":0,"o":"m 118 0 l 1061 0 l 1061 168 l 637 168 l 637 982 l 434 982 l 434 168 l 321 168 l 321 982 l 118 982 z "},"Ỽ":{"ha":29,"x_min":0,"x_max":0,"o":"m 537 640 l 449 498 b 578 294 526 458 579 393 b 438 152 579 203 524 152 b 293 345 346 152 293 222 l 293 414 b 608 810 293 670 425 779 l 586 972 b 84 412 285 936 84 727 l 84 372 b 444 -14 84 140 227 -14 b 783 308 648 -14 783 106 b 537 640 783 463 673 586 z "},"Ỿ":{"ha":180,"x_min":0,"x_max":0,"o":"m 338 982 l 117 982 l 362 519 b 311 524 345 522 328 524 b 37 254 159 524 37 401 b 311 -14 37 106 160 -14 b 563 153 425 -14 522 56 l 990 982 l 769 982 l 555 530 z m 311 155 b 212 256 254 155 212 191 b 311 357 212 321 254 357 b 408 256 365 357 408 321 b 311 155 408 191 365 155 z "},"Ɀ":{"ha":54,"x_min":0,"x_max":0,"o":"m 711 -288 b 826 -267 755 -288 798 -279 l 826 -107 b 730 -121 796 -117 766 -121 b 313 144 594 -121 517 81 l 812 869 l 812 982 l 68 982 l 68 817 l 556 817 l 69 114 l 69 0 l 134 0 b 711 -288 407 0 468 -288 z "},"Ａ":{"ha":466,"x_min":0,"x_max":0,"o":"m 400 0 "},"Ｂ":{"ha":466,"x_min":0,"x_max":0,"o":""},"Ｃ":{"ha":0,"x_min":0,"x_max":0,"o":""},"Ｄ":{"ha":466,"x_min":0,"x_max":0,"o":"m 593 0 l 243 0 l 243 -982 "},"Ｅ":{"ha":466,"x_min":0,"x_max":0,"o":"m 326 0 l 986 0 l 986 168 z "},"Ｆ":{"ha":466,"x_min":0,"x_max":0,"o":"m 343 0 l 547 0 l 547 407 z "},"Ｇ":{"ha":466,"x_min":0,"x_max":0,"o":"m 878 666 l 1084 666 b 1251 631 1278 666 1251 495 b 1301 484 1251 410 1358 484 b 1236 NaN 1208 484 1236 NaN z "},"Ｈ":{"ha":466,"x_min":0,"x_max":0,"o":"m 235 0 z "},"Ｉ":{"ha":466,"x_min":0,"x_max":0,"o":""},"Ｊ":{"ha":466,"x_min":0,"x_max":0,"o":"m 746 982 "},"Ｋ":{"ha":466,"x_min":0,"x_max":0,"o":"m 274 0 l 477 0 l 477 281 l 581 406 l 853 0 l 1097 0 l 727 543 l 1093 982 l 848 982 l 491 547 l 477 547 l 477 982 l 274 982 z "},"Ｌ":{"ha":466,"x_min":0,"x_max":0,"o":""},"Ｍ":{"ha":466,"x_min":0,"x_max":0,"o":"m 122 982 l 122 0 l 320 0 l 320 646 l 328 646 l 585 4 l 720 4 l 977 643 l 985 643 l 985 0 l 1183 0 l 1183 982 l 930 982 l 658 316 l 647 316 l 374 982 z "},"Ｎ":{"ha":466,"x_min":0,"x_max":0,"o":"m 1061 982 l 1264 982 l 1264 1606 l 1272 1606 l 1704 982 l 1880 982 z "},"Ｏ":{"ha":466,"x_min":0,"x_max":0,"o":""},"Ｐ":{"ha":466,"x_min":0,"x_max":0,"o":"m 301 0 z "},"Ｑ":{"ha":466,"x_min":0,"x_max":0,"o":"m 579 340 l 708 172 b 651 167 690 169 671 167 b 399 491 499 167 399 281 b 651 815 399 701 499 815 b 902 491 803 815 902 701 b 829 244 902 382 876 299 l 754 340 b 963 757 754 696 905 757 b 994 NaN 973 757 994 810 l 1073 NaN l 1264 NaN l 1124 NaN b 1280 NaN 1221 NaN 1280 NaN z "},"Ｒ":{"ha":0,"x_min":0,"x_max":0,"o":""},"Ｓ":{"ha":466,"x_min":0,"x_max":0,"o":"m 830 701 l 1025 701 b 662 996 1023 875 879 996 b 290 699 448 996 290 878 l 397 673 b 566 548 505 646 566 614 b 389 425 566 475 496 425 b 195 574 281 425 202 475 l -3 574 b 392 254 3 363 155 254 b 772 548 631 254 772 368 z "},"Ｔ":{"ha":466,"x_min":0,"x_max":0,"o":"m 250 814 l 551 814 l 551 0 l 753 0 l 753 814 l 1054 814 l 1054 982 l 250 982 z "},"Ｕ":{"ha":466,"x_min":0,"x_max":0,"o":"m 853 982 l 853 1619 z "},"Ｖ":{"ha":0,"x_min":0,"x_max":0,"o":""},"Ｗ":{"ha":0,"x_min":0,"x_max":0,"o":""},"Ｘ":{"ha":466,"x_min":0,"x_max":0,"o":"m 446 982 z "},"Ｙ":{"ha":466,"x_min":0,"x_max":0,"o":"m 191 982 l 549 350 z "},"Ｚ":{"ha":466,"x_min":0,"x_max":0,"o":"m 277 0 l 1025 0 l 1025 168 l 533 168 l 1024 860 l 532 168 z "},"ɢ":{"ha":60,"x_min":0,"x_max":0,"o":"m 796 107 l 796 387 l 460 387 l 460 252 l 612 252 l 612 174 b 463 146 589 160 555 146 b 293 305 355 146 293 214 l 293 414 b 452 571 293 505 355 571 b 597 475 540 571 585 543 l 791 475 b 452 727 773 643 656 727 b 753 722 452 521 666 722 b 872 NaN 821 722 872 768 z "},"ʛ":{"ha":162,"x_min":0,"x_max":0,"o":"m 799 475 l 799 567 b 891 661 799 636 833 661 b 941 655 909 661 925 656 l 941 787 b 857 798 913 793 887 798 b 665 686 763 798 696 758 b 460 727 611 713 543 727 b 762 719 460 519 675 719 b 882 NaN 830 719 882 765 l 882 NaN l 547 NaN l 547 NaN l 699 NaN l 699 NaN b 549 NaN 674 NaN 640 NaN b 378 NaN 441 NaN 378 NaN l 378 NaN b 538 NaN 378 NaN 441 NaN b 682 NaN 625 NaN 670 NaN z "},"ɪ":{"ha":-219,"x_min":0,"x_max":0,"o":"m 510 713 l 107 713 l 107 555 l 208 555 l 208 160 l 107 160 l 107 0 l 510 0 l 510 160 l 407 160 l 407 555 l 510 555 z "},"ʟ":{"ha":-196,"x_min":0,"x_max":0,"o":"m 583 157 l 258 157 l 258 713 l 57 713 l 57 0 l 583 0 z "},"ɴ":{"ha":-5,"x_min":0,"x_max":0,"o":"m 753 736 l 555 736 l 555 319 l 545 319 l 245 736 l 79 736 l 79 0 l 274 0 l 274 397 l 281 397 l 566 0 l 753 0 z "},"ɶ":{"ha":340,"x_min":0,"x_max":0,"o":"m 1097 157 l 749 157 l 749 279 l 1039 279 l 1039 438 l 749 438 l 749 556 l 1097 556 l 1097 713 l 684 713 b 425 727 555 713 507 727 b 77 365 203 727 77 571 l 77 349 b 427 -14 77 142 203 -14 b 684 0 507 -14 552 0 l 1097 0 z m 277 349 l 277 365 b 425 568 277 473 317 568 b 549 562 467 568 502 564 l 549 153 b 427 146 503 150 467 146 b 277 349 316 146 277 236 z "},"ʀ":{"ha":62,"x_min":0,"x_max":0,"o":"m 444 713 l 119 713 l 119 0 l 316 0 l 316 244 l 439 244 l 578 0 l 780 0 l 621 278 b 757 473 707 317 757 388 b 444 713 757 612 637 713 z m 316 381 l 316 556 l 444 556 b 559 468 522 556 559 513 b 446 381 559 423 522 381 z "},"ʁ":{"ha":62,"x_min":0,"x_max":0,"o":"m 444 0 b 757 241 636 0 757 102 b 621 435 757 326 708 396 l 780 713 l 578 713 l 439 469 l 316 469 l 316 713 l 119 713 l 119 0 z m 316 157 l 316 332 l 446 332 b 559 247 522 332 559 288 b 444 157 559 205 521 157 z "},"ʏ":{"ha":-77,"x_min":0,"x_max":0,"o":"m 228 713 l 11 713 l 279 235 l 279 0 l 476 0 l 476 225 l 749 713 l 534 713 l 381 396 z "},"a":{"ha":0,"x_min":0,"x_max":0,"o":""},"á":{"ha":0,"x_min":0,"x_max":0,"o":""},"ă":{"ha":0,"x_min":0,"x_max":0,"o":""},"ắ":{"ha":0,"x_min":0,"x_max":0,"o":""},"ặ":{"ha":0,"x_min":0,"x_max":0,"o":""},"ằ":{"ha":0,"x_min":0,"x_max":0,"o":""},"ẳ":{"ha":-62,"x_min":0,"x_max":0,"o":"m -285 -779 l 345 -779 l 345 186 l 243 186 l 243 376 l 739 376 "},"ẵ":{"ha":0,"x_min":0,"x_max":0,"o":""},"ǎ":{"ha":0,"x_min":0,"x_max":0,"o":""},"â":{"ha":0,"x_min":0,"x_max":0,"o":""},"ấ":{"ha":0,"x_min":0,"x_max":0,"o":""},"ậ":{"ha":0,"x_min":0,"x_max":0,"o":""},"ầ":{"ha":0,"x_min":0,"x_max":0,"o":""},"ẩ":{"ha":0,"x_min":0,"x_max":0,"o":""},"ẫ":{"ha":0,"x_min":0,"x_max":0,"o":""},"ȁ":{"ha":0,"x_min":0,"x_max":0,"o":""},"ä":{"ha":0,"x_min":0,"x_max":0,"o":""},"ǟ":{"ha":0,"x_min":0,"x_max":0,"o":""},"ạ":{"ha":0,"x_min":0,"x_max":0,"o":""},"ǡ":{"ha":0,"x_min":0,"x_max":0,"o":""},"à":{"ha":0,"x_min":0,"x_max":0,"o":""},"ả":{"ha":0,"x_min":0,"x_max":0,"o":""},"ȃ":{"ha":0,"x_min":0,"x_max":0,"o":""},"ā":{"ha":0,"x_min":0,"x_max":0,"o":""},"ą":{"ha":0,"x_min":0,"x_max":0,"o":"l -62 608 l -337 606 l -336 NaN l -336 NaN l -409 NaN b -471 NaN -463 NaN -482 NaN "},"ẚ":{"ha":0,"x_min":0,"x_max":0,"o":""},"å":{"ha":0,"x_min":0,"x_max":0,"o":""},"ǻ":{"ha":0,"x_min":0,"x_max":0,"o":""},"ḁ":{"ha":0,"x_min":0,"x_max":0,"o":""},"ɑ":{"ha":0,"x_min":0,"x_max":0,"o":""},"ɒ":{"ha":58,"x_min":0,"x_max":0,"o":"m 812 359 l 812 381 b 538 746 814 601 712 746 b 339 633 446 746 382 704 b 168 746 310 709 250 746 b 83 730 138 746 111 742 l 99 582 b 113 583 104 582 107 583 b 161 496 145 583 161 560 l 161 0 l 335 0 l 350 87 b 536 -15 392 23 452 -15 b 812 359 712 -15 812 142 z m 613 381 l 613 359 b 476 145 613 240 576 145 b 361 210 420 145 384 170 l 361 498 l 361 525 b 476 587 382 564 418 587 b 613 381 585 587 613 494 z "},"ã":{"ha":0,"x_min":0,"x_max":0,"o":""},"ɐ":{"ha":-62,"x_min":0,"x_max":0,"o":"m 75 240 b 387 -9 75 62 227 -9 b 705 218 582 -9 693 91 l 514 218 b 392 137 503 168 460 137 b 274 235 317 137 275 174 l 274 294 b 457 304 305 296 404 300 b 731 530 598 312 731 366 b 486 750 731 677 627 750 b 270 635 376 750 307 703 l 264 635 l 264 736 l 75 736 z m 274 420 l 274 473 b 429 612 273 551 338 612 b 538 525 492 612 538 582 b 425 429 538 468 494 435 b 274 420 390 425 304 420 z "},"æ":{"ha":0,"x_min":0,"x_max":0,"o":""},"ǽ":{"ha":0,"x_min":0,"x_max":0,"o":""},"ǣ":{"ha":0,"x_min":0,"x_max":0,"o":""},"b":{"ha":13,"x_min":0,"x_max":0,"o":""},"ɤ":{"ha":83,"x_min":0,"x_max":0,"o":"m 35 646 l 132 529 b 205 571 152 552 179 571 b 357 420 249 571 281 535 l 353 414 b 250 149 298 320 250 231 b 460 -14 250 43 334 -14 b 670 149 585 -14 670 41 b 571 406 670 231 621 321 l 566 415 b 715 571 640 532 667 571 b 788 529 739 571 766 552 l 887 646 b 690 746 840 699 780 746 b 460 586 600 746 535 694 b 231 746 382 694 319 746 b 35 646 142 746 80 699 z m 427 159 b 460 247 427 178 438 207 b 491 159 480 206 491 178 b 460 127 491 145 484 127 b 427 159 434 127 427 145 z "},"ƀ":{"ha":13,"x_min":0,"x_max":0,"o":"m 83 0 l 258 0 l 258 75 l 57 75 l 57 0 l -83 0 l -83 -119 l 57 -119 "},"ḃ":{"ha":0,"x_min":0,"x_max":0,"o":""},"ḅ":{"ha":0,"x_min":0,"x_max":0,"o":""},"ɓ":{"ha":13,"x_min":0,"x_max":0,"o":"m 499 -12 l 652 -12 b 762 61 652 46 708 61 b 811 57 779 61 795 58 l 811 210 b 708 217 785 214 754 217 b 452 -12 583 217 452 178 l 452 -779 l 650 -779 l 650 -661 l 658 -661 z m 594 -500 b 410 -694 464 -500 410 -591 z "},"ḇ":{"ha":0,"x_min":0,"x_max":0,"o":""},"ƃ":{"ha":13,"x_min":0,"x_max":0,"o":"m 693 982 l 83 982 l 83 0 l 307 0 l 307 410 "},"ʘ":{"ha":0,"x_min":0,"x_max":0,"o":""},"c":{"ha":-54,"x_min":0,"x_max":0,"o":""},"ć":{"ha":0,"x_min":0,"x_max":0,"o":""},"č":{"ha":0,"x_min":0,"x_max":0,"o":""},"ç":{"ha":0,"x_min":0,"x_max":0,"o":""},"ḉ":{"ha":0,"x_min":0,"x_max":0,"o":""},"ĉ":{"ha":0,"x_min":0,"x_max":0,"o":""},"ɕ":{"ha":-51,"x_min":0,"x_max":0,"o":"m 412 -15 b 732 214 621 -15 734 87 b 524 384 732 321 651 384 b 264 274 421 384 338 340 b 252 369 256 302 252 334 b 412 590 252 509 316 590 b 548 467 490 590 536 538 l 738 467 b 410 746 728 635 601 746 b 49 368 187 746 49 591 b 125 117 49 267 76 180 b 58 24 102 86 81 56 l 187 -64 b 245 19 208 -35 227 -7 b 412 -15 294 -3 350 -15 z m 354 152 b 510 250 412 215 464 250 b 555 208 532 250 555 236 b 412 140 552 168 502 140 b 354 152 391 140 371 144 z "},"ċ":{"ha":-54,"x_min":0,"x_max":0,"o":"m 0 848 z "},"ƈ":{"ha":21,"x_min":0,"x_max":0,"o":"m 739 467 l 739 576 b 826 670 739 644 769 670 b 876 665 845 670 860 666 l 876 798 b 792 808 848 806 819 808 b 586 707 703 808 627 772 b 562 661 611 707 562 647 b 180 730 562 594 336 730 b 601 967 406 730 601 852 b NaN NaN 601 1134 610 NaN z "},"ʗ":{"ha":-71,"x_min":0,"x_max":0,"o":"m 397 -133 b 260 69 277 -133 260 -23 l 260 385 b 396 587 260 477 277 587 b 518 465 476 587 517 532 l 705 465 b 677 NaN 879 465 677 NaN l 677 NaN b 1017 NaN 677 NaN 791 NaN b 1322 NaN 1185 NaN 1321 NaN l 1135 NaN b 1015 NaN 1134 NaN 1085 NaN z "},"d":{"ha":13,"x_min":0,"x_max":0,"o":""},"ď":{"ha":0,"x_min":0,"x_max":0,"o":""},"ḑ":{"ha":0,"x_min":0,"x_max":0,"o":""},"ḓ":{"ha":0,"x_min":0,"x_max":0,"o":""},"đ":{"ha":13,"x_min":0,"x_max":0,"o":""},"ḋ":{"ha":0,"x_min":0,"x_max":0,"o":""},"ḍ":{"ha":0,"x_min":0,"x_max":0,"o":""},"ƍ":{"ha":32,"x_min":0,"x_max":0,"o":"m 696 -247 l 696 -145 b 487 53 650 -96 548 1 l 510 53 b 781 385 665 77 781 205 l 781 399 b 434 746 781 605 655 746 b 88 376 212 746 88 595 l 88 362 b 317 -1 88 220 183 106 b 437 -91 370 -42 418 -73 l 160 -91 l 160 -247 z m 583 376 l 583 362 b 431 155 583 248 541 155 b 393 160 416 155 404 156 b 286 362 336 193 286 263 l 286 376 b 434 587 286 498 323 587 b 583 376 551 587 583 491 z "},"ɗ":{"ha":39,"x_min":0,"x_max":0,"o":"m 350 -12 b 559 118 471 -12 530 57 l 568 118 l 568 0 l 766 0 l 766 762 b 882 838 766 837 836 838 b 930 833 897 838 913 837 l 930 986 b 829 997 909 991 868 997 b 566 762 711 997 566 955 l 566 613 l 559 613 z "},"ḏ":{"ha":0,"x_min":0,"x_max":0,"o":""},"ɖ":{"ha":9,"x_min":0,"x_max":0,"o":"m 815 -277 b 918 -270 859 -277 897 -273 l 918 -115 b 868 -119 902 -118 886 -119 b 765 -46 817 -119 765 -104 l 765 0 l 766 0 l 766 982 l 566 982 l 566 613 l 559 613 b 768 743 678 613 739 682 l 776 743 l 776 579 b 1024 349 776 400 886 349 "},"ƌ":{"ha":13,"x_min":0,"x_max":0,"o":"m 155 982 l 155 837 l 566 837 l 566 613 l 559 613 l 1541 613 "},"ʤ":{"ha":498,"x_min":0,"x_max":0,"o":"m 741 0 l 741 578 l 1043 578 l 811 300 l 811 176 l 903 176 b 1093 15 1015 176 1093 126 b 925 -137 1093 -76 1032 -137 b 745 -45 821 -137 766 -98 l 551 -45 b 929 -292 594 -243 760 -292 b 1287 1 1139 -292 1287 -187 b 1017 300 1287 165 1191 274 l 1271 606 l 1270 736 l 741 736 l 741 982 l 540 982 l 540 651 l 532 651 b 350 746 506 704 444 746 b 50 368 189 746 50 620 b 350 -12 50 119 183 -12 b 532 83 445 -12 506 30 l 543 83 l 543 0 z m 241 369 b 406 586 241 502 296 586 b 560 369 518 586 560 491 b 406 148 560 247 519 148 b 241 369 296 148 241 235 z "},"ǳ":{"ha":660,"x_min":0,"x_max":0,"o":"m 396 -148 z "},"ʣ":{"ha":660,"x_min":0,"x_max":0,"o":"m 808 0 l 1426 0 l 1426 160 l 1072 160 l 1072 165 l 1413 605 l 1413 736 l 766 736 l 766 982 l 566 982 l 566 613 l 559 613 l 1135 613 l 1135 1017 l 1130 1017 l 768 567 "},"ǆ":{"ha":660,"x_min":0,"x_max":0,"o":"m 396 -148 "},"ʥ":{"ha":0,"x_min":0,"x_max":0,"o":"l 843 0 l 843 350 l 1419 350 l 1419 749 l 1064 292 l 1064 172 l 1299 172 l 1235 83 l 1361 5 l 1485 172 l 1639 172 b 1912 403 1829 172 1910 298 b 1726 581 1910 509 1825 581 b 1413 332 1619 581 1535 499 l 1315 332 l 1668 791 l 1668 909 l 1021 909 l 1021 1154 l 820 1154 l 820 785 l 813 785 m 1746 798 b 1853 890 1794 864 1820 890 b 1897 859 1876 890 1897 878 b 1796 798 1897 825 1867 798 z "},"ð":{"ha":-36,"x_min":0,"x_max":0,"o":"m 624 925 l 610 1017 l 437 929 b 187 1036 359 978 273 1015 l 165 929 b 300 860 212 909 257 886 l 163 789 l 176 699 l 380 802 b 549 594 456 739 516 668 l 540 594 b 347 682 502 640 438 682 b 49 338 171 682 49 533 b 397 -15 49 127 187 -15 b 753 377 616 -15 753 137 b 515 871 753 585 655 753 z m 403 138 b 240 350 296 138 240 229 b 403 556 240 469 294 556 b 566 346 514 556 566 460 b 403 138 566 222 506 138 z "},"e":{"ha":0,"x_min":0,"x_max":0,"o":""},"é":{"ha":0,"x_min":0,"x_max":0,"o":""},"ĕ":{"ha":0,"x_min":0,"x_max":0,"o":""},"ě":{"ha":0,"x_min":0,"x_max":0,"o":""},"ḝ":{"ha":0,"x_min":0,"x_max":0,"o":""},"ê":{"ha":0,"x_min":0,"x_max":0,"o":""},"ế":{"ha":0,"x_min":0,"x_max":0,"o":""},"ḙ":{"ha":0,"x_min":0,"x_max":0,"o":""},"ệ":{"ha":0,"x_min":0,"x_max":0,"o":""},"ề":{"ha":0,"x_min":0,"x_max":0,"o":""},"ể":{"ha":0,"x_min":0,"x_max":0,"o":""},"ễ":{"ha":0,"x_min":0,"x_max":0,"o":""},"ȅ":{"ha":0,"x_min":0,"x_max":0,"o":""},"ë":{"ha":0,"x_min":0,"x_max":0,"o":""},"ė":{"ha":0,"x_min":0,"x_max":0,"o":""},"ẹ":{"ha":0,"x_min":0,"x_max":0,"o":""},"è":{"ha":0,"x_min":0,"x_max":0,"o":""},"ẻ":{"ha":0,"x_min":0,"x_max":0,"o":""},"ȇ":{"ha":0,"x_min":0,"x_max":0,"o":""},"ē":{"ha":0,"x_min":0,"x_max":0,"o":""},"ḗ":{"ha":0,"x_min":0,"x_max":0,"o":""},"ḕ":{"ha":0,"x_min":0,"x_max":0,"o":""},"ę":{"ha":-39,"x_min":0,"x_max":0,"o":"m 481 -256 b 573 -185 519 -256 548 -229 b 774 21 682 -153 753 -79 b 1064 -353 774 -186 882 -324 b 1046 -474 1045 -391 1040 -434 "},"ɛ":{"ha":0,"x_min":0,"x_max":0,"o":""},"ɜ":{"ha":-52,"x_min":0,"x_max":0,"o":"m 274 445 l 274 309 l 378 309 b 518 220 452 309 518 281 b 378 134 518 174 468 134 b 236 213 286 134 244 161 l 43 213 b 369 -14 50 64 199 -14 b 711 201 562 -14 709 69 b 547 373 709 279 660 345 b 699 534 650 401 698 467 b 369 746 697 670 560 746 b 56 526 197 746 62 665 l 250 526 b 380 600 255 575 305 600 b 506 518 461 600 505 562 b 378 445 505 473 458 445 z "},"ɞ":{"ha":-58,"x_min":0,"x_max":0,"o":"m 389 -14 b 716 201 576 -14 716 69 b 563 373 716 279 672 346 b 703 534 661 401 703 468 b 391 746 703 670 576 746 b 50 377 199 746 50 628 b 389 -14 50 114 205 -14 z m 240 377 b 403 600 240 544 313 600 b 510 518 477 600 510 562 b 399 442 510 473 475 442 l 357 442 l 357 311 l 399 311 b 522 220 473 311 521 279 b 401 136 521 174 483 136 b 240 377 300 136 240 212 z "},"ɝ":{"ha":248,"x_min":0,"x_max":0,"o":"m 277 445 l 277 309 l 381 309 b 521 220 454 309 521 281 b 381 134 521 174 471 134 b 239 213 289 134 247 161 l 46 213 b 372 -14 53 64 202 -14 b 713 201 564 -14 712 69 b 549 373 712 279 663 345 b 681 463 614 391 657 424 l 723 472 b 906 273 747 362 779 273 b 1012 298 943 273 981 282 l 986 423 b 947 420 974 420 964 420 b 845 632 871 420 865 500 l 689 600 b 372 746 651 694 530 746 b 58 526 199 746 65 665 l 252 526 b 382 600 258 575 308 600 b 509 518 464 600 507 562 b 381 445 507 473 461 445 z "},"ʚ":{"ha":-56,"x_min":0,"x_max":0,"o":"m 389 -14 b 730 377 574 -14 730 114 b 388 746 730 628 581 746 b 77 534 203 746 77 670 b 218 373 77 468 119 401 b 64 201 107 346 64 279 b 389 -14 64 69 202 -14 z m 258 220 b 381 311 258 279 307 311 l 423 311 l 423 442 l 381 442 b 269 518 305 442 270 473 b 376 600 270 562 302 600 b 538 377 467 600 538 544 b 378 136 538 212 480 136 b 258 220 297 136 258 174 z "},"ɘ":{"ha":-73,"x_min":0,"x_max":0,"o":"m 353 -14 b 716 343 579 -14 718 142 l 716 369 b 369 746 716 583 594 746 b 49 387 171 746 49 613 l 49 302 l 514 302 b 335 146 501 203 437 146 b 161 224 274 146 209 167 l 64 115 b 353 -14 118 42 218 -14 z m 243 435 l 243 445 b 372 587 247 540 297 587 b 513 435 464 587 501 517 z "},"ʃ":{"ha":-197,"x_min":0,"x_max":0,"o":"m 218 774 l 218 -39 b 110 -133 218 -99 180 -133 b 50 -126 85 -133 65 -130 l 49 -279 b 149 -292 77 -286 113 -292 b 420 -39 315 -292 420 -203 "},"ʆ":{"ha":-77,"x_min":0,"x_max":0,"o":"m 536 -1 l 536 774 b 648 867 536 836 581 867 b 708 861 673 867 693 865 l 711 1013 b 610 1027 677 1021 644 1027 b 342 774 444 1027 342 939 l 342 161 l 342 76 b 260 81 317 80 290 81 b 37 -99 118 81 37 11 b 278 -285 37 -209 118 -285 b 509 -170 404 -285 474 -239 l 625 -270 l 716 -149 z m 212 -104 b 283 -54 212 -72 240 -54 b 342 -64 303 -54 322 -58 l 342 -83 b 274 -157 342 -127 323 -157 b 212 -104 240 -157 212 -141 z "},"ƪ":{"ha":29,"x_min":0,"x_max":0,"o":"m 83 758 b 357 490 84 610 206 490 b 431 500 382 490 408 493 l 431 -16 b 684 -285 431 -190 525 -285 b 783 -274 718 -285 753 -282 l 783 -119 b 723 -125 760 -123 741 -125 b 631 -16 663 -125 631 -91 l 631 758 b 357 1027 631 905 506 1027 b 83 758 205 1027 83 905 z m 358 659 b 258 761 300 659 258 693 b 358 860 259 825 300 860 b 454 761 410 860 453 826 b 358 659 454 693 411 659 z "},"ʅ":{"ha":-196,"x_min":0,"x_max":0,"o":"m 420 -39 l 420 494 b 149 746 420 656 316 746 b 49 734 115 746 81 742 l 50 581 b 110 587 66 586 85 587 b 221 494 180 587 221 553 l 221 -39 b 490 -292 221 -203 324 -292 b 591 -279 529 -292 562 -286 l 591 -126 b 529 -133 574 -130 555 -133 b 420 -39 460 -133 420 -100 z "},"ẽ":{"ha":0,"x_min":0,"x_max":0,"o":""},"ḛ":{"ha":0,"x_min":0,"x_max":0,"o":""},"ǝ":{"ha":0,"x_min":0,"x_max":0,"o":""},"ə":{"ha":0,"x_min":0,"x_max":0,"o":""},"ɚ":{"ha":283,"x_min":0,"x_max":0,"o":"m 372 727 b 85 600 227 727 130 662 l 182 490 b 359 568 222 543 285 568 b 517 477 433 568 488 534 l 71 376 l 71 338 b 395 -14 69 126 183 -14 b 736 355 606 -14 736 142 l 736 380 l 736 391 l 761 396 b 943 194 784 285 815 194 b 1050 222 981 194 1017 205 l 1024 345 b 983 343 1012 345 1000 343 b 882 556 909 343 905 419 l 711 519 b 372 727 661 641 543 727 z m 264 274 l 264 286 l 538 346 b 395 146 536 246 501 146 b 264 274 301 146 264 202 z "},"ʒ":{"ha":0,"x_min":0,"x_max":0,"o":""},"ǯ":{"ha":0,"x_min":0,"x_max":0,"o":""},"ʓ":{"ha":74,"x_min":0,"x_max":0,"o":"m 115 736 l 115 572 l 525 572 l 525 564 l 301 334 l 301 191 l 419 191 b 590 52 524 191 590 130 b 589 24 590 42 589 33 b 315 117 519 72 428 117 b 66 -71 163 117 66 45 b 380 -285 68 -220 235 -285 b 663 -198 503 -285 597 -252 l 761 -273 l 844 -168 l 745 -94 b 770 27 762 -56 770 -15 b 505 313 770 179 673 294 l 505 321 l 776 600 l 774 736 z m 241 -64 b 321 -15 241 -34 271 -15 b 518 -91 396 -15 467 -52 l 521 -92 b 399 -126 490 -113 450 -126 b 241 -64 309 -126 241 -104 z "},"ƹ":{"ha":41,"x_min":0,"x_max":0,"o":"m 815 31 l 609 31 b 442 -91 604 -45 533 -91 b 278 47 347 -91 278 -38 b 465 191 278 129 342 191 l 571 191 l 571 334 l 353 563 l 353 570 l 766 570 l 766 736 l 100 736 l 100 590 l 365 321 l 365 313 b 66 34 159 293 66 165 b 444 -259 66 -140 228 -259 b 815 31 658 -259 810 -144 z "},"ƺ":{"ha":-70,"x_min":0,"x_max":0,"o":"m 102 736 l 102 578 l 397 578 l 218 426 l 218 311 l 377 311 b 479 244 444 311 479 286 b 339 155 479 191 434 172 b 65 -69 152 119 65 50 b 376 -292 65 -201 187 -292 b 693 -52 581 -292 692 -167 l 505 -52 b 369 -152 500 -129 434 -152 b 258 -81 305 -152 258 -129 b 395 9 258 -45 289 -15 b 670 235 547 43 669 102 b 480 438 669 330 600 409 l 696 623 l 696 736 z "},"f":{"ha":-326,"x_min":0,"x_max":0,"o":""},"ḟ":{"ha":0,"x_min":0,"x_max":0,"o":""},"ʩ":{"ha":0,"x_min":0,"x_max":0,"o":""},"ʪ":{"ha":153,"x_min":0,"x_max":0,"o":"m 719 198 b 585 130 718 155 681 130 b 260 227 508 130 382 153 l 260 982 l 60 982 l 60 0 l 260 0 l 260 53 b 585 -14 372 3 478 -14 b 911 206 789 -14 911 79 b 646 429 911 334 818 396 b 498 513 548 446 498 464 b 601 590 498 557 537 590 b 712 496 675 590 711 551 l 909 496 b 602 727 909 629 793 727 b 309 503 418 727 308 623 b 570 286 308 377 423 319 b 719 198 682 262 718 243 z "},"ʭ":{"ha":-168,"x_min":0,"x_max":0,"o":"m 612 385 l 57 385 l 57 0 l 202 0 l 202 273 l 467 273 l 467 0 l 612 0 z m 612 960 l 57 960 l 57 576 l 202 576 l 202 846 l 467 846 l 467 576 l 612 576 z "},"g":{"ha":9,"x_min":0,"x_max":0,"o":""},"ǵ":{"ha":0,"x_min":0,"x_max":0,"o":""},"ɣ":{"ha":44,"x_min":0,"x_max":0,"o":"m 441 -292 b 677 -113 589 -292 677 -232 b 628 56 675 -69 663 -11 l 544 213 l 826 736 l 621 736 l 441 406 l 263 736 l 58 736 l 340 220 l 248 50 b 199 -111 216 -8 199 -65 b 441 -292 201 -232 293 -292 z m 401 -107 b 444 23 401 -73 417 -31 b 480 -107 467 -27 480 -71 b 441 -152 480 -137 465 -152 b 401 -107 412 -152 401 -134 z "},"ǥ":{"ha":9,"x_min":0,"x_max":0,"o":"m 410 -292 b 768 -8 618 -292 768 -195 b 1230 -26 1093 -8 1230 111 b 1113 151 1230 274 1031 151 b 1110 74 1166 151 1110 58 l 975 74 l 975 -45 l 1113 -45 b 958 -201 1099 -144 1044 -201 z "},"ğ":{"ha":0,"x_min":0,"x_max":0,"o":""},"ǧ":{"ha":0,"x_min":0,"x_max":0,"o":""},"ĝ":{"ha":0,"x_min":0,"x_max":0,"o":""},"ģ":{"ha":0,"x_min":0,"x_max":0,"o":""},"ɡ":{"ha":9,"x_min":0,"x_max":0,"o":""},"ġ":{"ha":0,"x_min":0,"x_max":0,"o":""},"ɠ":{"ha":31,"x_min":0,"x_max":0,"o":"m 412 -292 b 770 -8 621 -292 770 -195 l 770 736 l 769 736 l 769 766 b 878 840 769 825 825 840 b 928 836 895 840 898 838 l 928 989 b 823 996 902 993 871 996 b 570 766 699 996 570 954 l 570 694 l 571 694 l 571 613 l 563 613 b 595 430 623 613 595 553 b 233 313 595 180 350 313 b 518 438 400 313 518 378 b NaN NaN 518 498 545 NaN l NaN NaN l NaN NaN b NaN NaN NaN NaN NaN NaN b NaN NaN NaN NaN NaN NaN l NaN NaN b NaN NaN NaN NaN NaN NaN z m NaN NaN b NaN NaN NaN NaN NaN NaN b NaN NaN NaN NaN NaN NaN b NaN NaN NaN NaN NaN NaN b NaN NaN NaN NaN NaN NaN z "},"ʡ":{"ha":-71,"x_min":0,"x_max":0,"o":"m 616 210 l 480 210 l 480 229 l 392 229 l 392 68 l 254 68 l 254 -54 l 392 -54 l 392 -142 l 591 -142 l 591 -54 l 727 -54 z "},"ƾ":{"ha":-70,"x_min":0,"x_max":0,"o":"m 505 198 b 392 126 505 153 463 126 b 258 228 330 126 263 151 l 69 228 b 388 -14 71 114 182 -14 b 697 206 576 -14 699 79 b 456 538 699 422 456 354 l 456 571 l 581 571 l 581 713 l 456 713 l 456 891 l 255 891 l 255 713 l 151 713 l 151 571 l 255 571 l 255 540 b 505 198 256 285 505 308 z "},"ʢ":{"ha":-71,"x_min":0,"x_max":0,"o":"m 293 0 l 293 199 l 358 199 l 358 336 l 477 336 l 477 199 l 666 199 l 666 157 l 526 157 l 526 38 l 666 38 z "},"ʖ":{"ha":-71,"x_min":0,"x_max":0,"o":"m 369 643 b 506 441 490 643 506 536 l 506 347 b 369 146 506 258 488 146 b 247 267 290 146 250 201 l 60 267 b 366 -14 62 94 187 -14 b 705 347 593 -14 705 146 l 705 441 b 473 788 705 608 629 745 l 473 982 l 274 982 l 274 643 z "},"ʕ":{"ha":-71,"x_min":0,"x_max":0,"o":"m 293 0 z "},"ḡ":{"ha":0,"x_min":0,"x_max":0,"o":""},"ȝ":{"ha":-68,"x_min":0,"x_max":0,"o":"m 157 247 l 157 103 b 469 222 284 136 389 176 b 491 136 483 201 491 171 b 157 -141 491 14 404 -60 l 157 -288 b 690 123 511 -218 690 -80 b 587 311 690 211 655 275 b 677 517 647 372 677 440 b 385 746 677 665 574 746 b 77 507 193 746 76 656 l 277 507 b 381 598 275 563 316 598 b 479 499 446 598 479 566 b 157 247 479 391 384 316 z "},"h":{"ha":-3,"x_min":0,"x_max":0,"o":""},"ħ":{"ha":0,"x_min":0,"x_max":0,"o":""},"ḫ":{"ha":0,"x_min":0,"x_max":0,"o":""},"ḩ":{"ha":0,"x_min":0,"x_max":0,"o":"l -3 0 l -3 279 l 51 279 b NaN NaN 31 186 68 NaN l NaN NaN l NaN NaN "},"ĥ":{"ha":0,"x_min":0,"x_max":0,"o":""},"ḧ":{"ha":0,"x_min":0,"x_max":0,"o":""},"ḣ":{"ha":0,"x_min":0,"x_max":0,"o":""},"ḥ":{"ha":0,"x_min":0,"x_max":0,"o":""},"ɧ":{"ha":-6,"x_min":0,"x_max":0,"o":"m 552 0 l 552 -46 b 450 -119 552 -104 502 -119 b 400 -115 431 -119 415 -118 l 400 -270 b 503 -277 425 -273 456 -277 b 753 -46 640 -277 753 -225 l 1268 -46 l 1268 114 b 1377 186 1268 171 1325 186 b 1427 182 1396 186 1411 183 l 1427 335 b 1324 342 1402 339 1370 342 b 1077 114 1199 342 1077 301 l 1077 -654 l 1278 -654 l 1278 -228 l 1278 -662 z "},"ɦ":{"ha":-6,"x_min":0,"x_max":0,"o":"m 270 608 l 270 768 b 378 840 270 825 327 840 b 429 836 397 840 412 837 l 429 989 b 326 996 404 993 372 996 b 79 768 201 996 79 955 l 79 0 l 279 0 l 279 426 z "},"ẖ":{"ha":0,"x_min":0,"x_max":0,"o":""},"ɥ":{"ha":-3,"x_min":0,"x_max":0,"o":"m 553 311 b 410 157 553 213 494 157 b 277 302 326 157 277 212 l 277 736 l 76 736 l 76 267 b 331 -9 76 94 178 -9 b 551 129 442 -9 517 43 l 559 129 l 559 -245 l 754 -245 l 754 736 l 553 736 z "},"ʯ":{"ha":0,"x_min":0,"x_max":0,"o":"l 123 0 l 123 -176 b 210 -370 231 -355 229 -370 b NaN NaN 208 -370 192 NaN b NaN NaN NaN NaN NaN NaN l NaN NaN l NaN NaN l NaN NaN "},"ʮ":{"ha":0,"x_min":0,"x_max":0,"o":"l 104 0 l 104 -407 l 299 -407 l 299 606 l 98 606 l 98 180 "},"ƕ":{"ha":481,"x_min":0,"x_max":0,"o":"m 79 0 l 279 0 l 279 426 l 279 279 b 575 -22 279 88 388 -22 b 962 647 837 -22 962 195 l 962 728 l 761 728 l 761 647 b 582 145 761 307 697 145 b 480 279 532 145 480 176 l 662 279 l 662 654 l 467 654 z "},"i":{"ha":-479,"x_min":0,"x_max":0,"o":""},"ı":{"ha":-479,"x_min":0,"x_max":0,"o":""},"í":{"ha":0,"x_min":0,"x_max":0,"o":""},"ɨ":{"ha":0,"x_min":0,"x_max":0,"o":""},"ĭ":{"ha":0,"x_min":0,"x_max":0,"o":""},"ǐ":{"ha":0,"x_min":0,"x_max":0,"o":""},"î":{"ha":0,"x_min":0,"x_max":0,"o":""},"ȉ":{"ha":0,"x_min":0,"x_max":0,"o":""},"ï":{"ha":0,"x_min":0,"x_max":0,"o":""},"ḯ":{"ha":0,"x_min":0,"x_max":0,"o":""},"ị":{"ha":0,"x_min":0,"x_max":0,"o":""},"ì":{"ha":0,"x_min":0,"x_max":0,"o":""},"ỉ":{"ha":0,"x_min":0,"x_max":0,"o":""},"ȋ":{"ha":0,"x_min":0,"x_max":0,"o":""},"ī":{"ha":0,"x_min":0,"x_max":0,"o":""},"į":{"ha":-470,"x_min":0,"x_max":0,"o":"m 176 -275 l 176 -991 b 123 -1161 130 -1037 113 -1102 "},"ĩ":{"ha":-455,"x_min":0,"x_max":0,"o":"m 91 0 "},"ḭ":{"ha":0,"x_min":0,"x_max":0,"o":""},"ĳ":{"ha":0,"x_min":0,"x_max":0,"o":""},"j":{"ha":0,"x_min":0,"x_max":0,"o":""},"ȷ":{"ha":-479,"x_min":0,"x_max":0,"o":""},"ǰ":{"ha":0,"x_min":0,"x_max":0,"o":""},"ĵ":{"ha":0,"x_min":0,"x_max":0,"o":""},"ʝ":{"ha":-215,"x_min":0,"x_max":0,"o":"m 254 -285 b 510 -56 440 -285 503 -175 l 686 -56 l 686 83 l 511 83 l 511 736 l 311 736 l 311 164 l 309 164 l 309 83 l 240 83 b 14 -100 96 83 14 9 b 254 -285 15 -208 92 -285 "},"ɟ":{"ha":0,"x_min":0,"x_max":0,"o":""},"ʄ":{"ha":-197,"x_min":0,"x_max":0,"o":"m 218 774 l 218 136 l 80 136 l 80 16 l 218 16 l 218 -39 b 110 -133 218 -99 180 -133 b 50 -126 85 -133 65 -130 l 49 -279 b 149 -292 77 -286 113 -292 b 420 -39 315 -292 420 -203 "},"k":{"ha":-62,"x_min":0,"x_max":0,"o":""},"ḱ":{"ha":0,"x_min":0,"x_max":0,"o":""},"ǩ":{"ha":0,"x_min":0,"x_max":0,"o":""},"ķ":{"ha":0,"x_min":0,"x_max":0,"o":""},"ḳ":{"ha":0,"x_min":0,"x_max":0,"o":""},"ĸ":{"ha":0,"x_min":0,"x_max":0,"o":""},"ƙ":{"ha":-68,"x_min":0,"x_max":0,"o":"m 548 0 l 768 0 l 472 422 l 750 736 l 515 736 l 289 476 l 279 476 l 279 766 b 382 840 279 825 330 840 b 431 836 399 840 416 837 l 431 989 b 330 996 407 993 372 996 b 79 766 205 996 79 954 l 79 0 l 279 0 l 279 201 l 350 278 z "},"ḵ":{"ha":0,"x_min":0,"x_max":0,"o":""},"ʞ":{"ha":-62,"x_min":0,"x_max":0,"o":"m 696 736 l 495 736 l 495 500 l 439 437 l 236 736 l 0 736 l 290 319 l 15 0 l 245 0 l 484 282 l 495 282 l 495 -245 l 696 -245 z "},"l":{"ha":-479,"x_min":0,"x_max":0,"o":""},"ĺ":{"ha":0,"x_min":0,"x_max":0,"o":""},"ƛ":{"ha":55,"x_min":0,"x_max":0,"o":"m 545 917 l 452 887 l 446 899 b 260 1013 416 972 359 1013 b 151 1001 232 1013 179 1009 l 155 852 b 194 853 171 853 184 853 b 264 826 225 853 248 844 l 134 784 l 134 654 l 320 715 l 327 699 l 68 0 l 282 0 l 430 433 l 540 137 b 746 -12 576 41 636 -12 b 819 -8 776 -12 802 -12 l 819 148 l 796 148 b 726 221 761 148 739 184 l 499 773 l 545 788 z "},"ƚ":{"ha":-479,"x_min":0,"x_max":0,"o":"m 279 982 l 79 982 l 79 570 l -372 570 l -372 770 l 79 770 l 79 907 l 198 907 l 198 770 z "},"ɬ":{"ha":-170,"x_min":0,"x_max":0,"o":"m 237 365 l 312 365 l 312 0 l 513 0 l 513 365 l 656 365 l 656 500 l 513 500 l 513 982 l 312 982 l 312 743 b 258 746 295 745 277 746 b 19 548 98 746 18 655 b 237 365 18 439 96 365 z m 191 552 b 255 604 191 579 218 604 b 312 529 294 604 312 575 l 312 500 l 256 500 b 191 552 214 500 191 526 z "},"ľ":{"ha":0,"x_min":0,"x_max":0,"o":""},"ḽ":{"ha":0,"x_min":0,"x_max":0,"o":""},"ļ":{"ha":0,"x_min":0,"x_max":0,"o":""},"ȴ":{"ha":-280,"x_min":0,"x_max":0,"o":"m 68 982 l 68 5 b -4 -42 43 -9 18 -26 l -113 -134 l -14 -248 l 103 -148 b 335 -277 151 -233 244 -277 b 551 -79 468 -277 549 -180 b 351 107 549 23 469 107 b 269 96 326 107 298 103 l 269 982 z m 269 -62 l 269 -42 b 331 -33 288 -36 309 -33 b 388 -83 366 -33 388 -58 b 336 -138 388 -113 366 -138 b 269 -62 292 -138 269 -107 z "},"ŀ":{"ha":0,"x_min":0,"x_max":0,"o":""},"ḷ":{"ha":-479,"x_min":0,"x_max":0,"o":""},"ḹ":{"ha":0,"x_min":0,"x_max":0,"o":""},"ǉ":{"ha":0,"x_min":0,"x_max":0,"o":""},"ḻ":{"ha":0,"x_min":0,"x_max":0,"o":""},"ɫ":{"ha":-397,"x_min":0,"x_max":0,"o":"m 324 982 l 123 982 l 123 604 l 113 604 b 172 677 113 647 136 675 l -315 878 l 100 884 b 28 NaN 60 864 32 827 z "},"ɭ":{"ha":-409,"x_min":0,"x_max":0,"o":"m 279 -46 l 279 982 l 79 982 l 79 -46 b 330 -277 79 -225 190 -277 b 431 -270 376 -277 407 -273 b 328 -197 378 -270 328 -255 z "},"ł":{"ha":-479,"x_min":0,"x_max":0,"o":"m 370 639 l 279 609 l 279 982 l 79 982 l 79 544 l -14 514 l -14 403 l 79 433 l 79 0 l 279 0 l 279 498 l 370 526 z "},"ɮ":{"ha":111,"x_min":0,"x_max":0,"o":"m 83 982 l 83 31 l 273 31 l 273 572 l 624 572 l 624 564 l 400 334 l 400 191 l 518 191 b 689 37 627 191 689 133 b 528 -123 689 -64 623 -123 b 391 -72 469 -123 420 -104 l 244 -195 b 525 -292 311 -256 408 -292 b 901 20 746 -292 899 -168 b 604 313 902 167 810 289 l 604 321 l 873 600 l 873 736 l 273 736 l 273 982 z "},"m":{"ha":385,"x_min":0,"x_max":0,"o":""},"ḿ":{"ha":0,"x_min":0,"x_max":0,"o":""},"ṁ":{"ha":0,"x_min":0,"x_max":0,"o":""},"ṃ":{"ha":0,"x_min":0,"x_max":0,"o":""},"ɱ":{"ha":385,"x_min":0,"x_max":0,"o":"m 944 456 l 944 -46 l 886 -46 l 886 -96 l 871 -96 l 871 -149 l 853 -149 l 853 -164 l 854 -164 l 854 -161 l 837 -161 l 837 380 l 100 380 l 100 581 l 543 581 b 663 719 543 665 595 719 b 777 600 731 719 777 673 l 777 138 l 972 138 l 972 589 b 1092 719 972 666 1016 719 b 1207 594 1158 719 1207 678 z "},"ɯ":{"ha":385,"x_min":0,"x_max":0,"o":"m 1142 736 l 1013 736 l 1013 928 z "},"ɰ":{"ha":385,"x_min":0,"x_max":0,"o":"m 951 -277 l 1142 -277 l 1142 736 z "},"n":{"ha":-6,"x_min":0,"x_max":0,"o":""},"ń":{"ha":0,"x_min":0,"x_max":0,"o":""},"ň":{"ha":0,"x_min":0,"x_max":0,"o":""},"ṋ":{"ha":0,"x_min":0,"x_max":0,"o":""},"ņ":{"ha":0,"x_min":0,"x_max":0,"o":""},"ȵ":{"ha":235,"x_min":0,"x_max":0,"o":"m 279 426 l 279 98 b 224 41 261 82 243 63 l 114 -77 l 216 -168 l 294 -79 b 521 -212 328 -167 415 -212 b 761 -14 669 -212 761 -130 b 549 182 761 102 669 182 b 479 180 525 182 502 181 l 760 180 l 760 309 l 568 309 l 568 -427 l 769 -427 z m 1242 -422 l 1242 -370 b 1298 -363 1264 -366 1284 -363 b 1362 -423 1335 -363 1362 -385 b 1306 -484 1362 -460 1340 -484 b 1242 -422 1271 -484 1242 -458 z "},"ṅ":{"ha":0,"x_min":0,"x_max":0,"o":""},"ṇ":{"ha":0,"x_min":0,"x_max":0,"o":""},"ǌ":{"ha":0,"x_min":0,"x_max":0,"o":""},"ƞ":{"ha":-6,"x_min":0,"x_max":0,"o":""},"ɲ":{"ha":39,"x_min":0,"x_max":0,"o":"m 123 0 l 123 -42 b 35 -121 123 -98 90 -121 b -24 -114 12 -121 -7 -118 l -38 -277 b 64 -285 -5 -283 28 -285 b 324 -42 218 -285 324 -203 l 324 0 l 326 0 l 326 426 z "},"ṉ":{"ha":0,"x_min":0,"x_max":0,"o":""},"ɳ":{"ha":24,"x_min":0,"x_max":0,"o":"m 753 -46 l 753 469 l 319 469 l 319 468 l 273 468 b 377 259 384 289 380 259 b NaN NaN 377 259 359 NaN b NaN NaN NaN NaN NaN NaN z "},"ñ":{"ha":0,"x_min":0,"x_max":0,"o":""},"ŋ":{"ha":0,"x_min":0,"x_max":0,"o":""},"o":{"ha":-17,"x_min":0,"x_max":0,"o":""},"ó":{"ha":0,"x_min":0,"x_max":0,"o":""},"ɵ":{"ha":0,"x_min":0,"x_max":0,"o":""},"ŏ":{"ha":0,"x_min":0,"x_max":0,"o":""},"ǒ":{"ha":0,"x_min":0,"x_max":0,"o":""},"ô":{"ha":0,"x_min":0,"x_max":0,"o":""},"ố":{"ha":0,"x_min":0,"x_max":0,"o":""},"ộ":{"ha":0,"x_min":0,"x_max":0,"o":""},"ồ":{"ha":0,"x_min":0,"x_max":0,"o":""},"ổ":{"ha":0,"x_min":0,"x_max":0,"o":""},"ỗ":{"ha":0,"x_min":0,"x_max":0,"o":""},"ȍ":{"ha":0,"x_min":0,"x_max":0,"o":""},"ö":{"ha":0,"x_min":0,"x_max":0,"o":""},"ọ":{"ha":0,"x_min":0,"x_max":0,"o":""},"ò":{"ha":0,"x_min":0,"x_max":0,"o":""},"ỏ":{"ha":0,"x_min":0,"x_max":0,"o":""},"ơ":{"ha":6,"x_min":0,"x_max":0,"o":""},"ớ":{"ha":0,"x_min":0,"x_max":0,"o":""},"ợ":{"ha":0,"x_min":0,"x_max":0,"o":""},"ờ":{"ha":0,"x_min":0,"x_max":0,"o":""},"ở":{"ha":0,"x_min":0,"x_max":0,"o":""},"ỡ":{"ha":0,"x_min":0,"x_max":0,"o":""},"ő":{"ha":0,"x_min":0,"x_max":0,"o":""},"ƣ":{"ha":153,"x_min":0,"x_max":0,"o":"m 385 146 b 247 347 277 146 247 236 l 247 366 b 381 587 247 486 269 587 b 473 549 425 587 453 574 l 473 176 b 385 146 453 156 425 146 z m 940 736 l 804 736 l 617 655 b 388 746 564 704 486 746 b 49 366 160 746 49 587 l 49 347 b 385 -14 49 145 161 -14 b 673 133 541 -14 623 52 l 673 486 l 742 513 l 742 -277 l 940 -277 z "},"ȏ":{"ha":0,"x_min":0,"x_max":0,"o":""},"ō":{"ha":0,"x_min":0,"x_max":0,"o":""},"ṓ":{"ha":0,"x_min":0,"x_max":0,"o":""},"ṑ":{"ha":0,"x_min":0,"x_max":0,"o":""},"ɷ":{"ha":410,"x_min":0,"x_max":0,"o":"m 624 587 b 943 319 859 587 943 464 b 837 146 941 220 911 146 b 728 327 777 146 728 195 l 728 452 l 519 452 l 519 327 b 411 146 519 195 472 146 b 307 319 336 146 307 220 b 624 587 307 464 389 587 z m 624 746 b 109 319 297 746 109 575 b 393 -14 109 152 187 -14 b 624 126 502 -14 580 35 b 854 -14 668 35 746 -14 b 1139 319 1062 -14 1139 152 b 624 746 1139 575 952 746 z "},"ǫ":{"ha":-17,"x_min":0,"x_max":0,"o":""},"ǭ":{"ha":0,"x_min":0,"x_max":0,"o":""},"ɔ":{"ha":0,"x_min":0,"x_max":0,"o":""},"ø":{"ha":0,"x_min":0,"x_max":0,"o":""},"ǿ":{"ha":0,"x_min":0,"x_max":0,"o":""},"õ":{"ha":0,"x_min":0,"x_max":0,"o":""},"ṍ":{"ha":0,"x_min":0,"x_max":0,"o":""},"ṏ":{"ha":0,"x_min":0,"x_max":0,"o":""},"œ":{"ha":475,"x_min":0,"x_max":0,"o":"m 412 -15 b 677 90 523 -15 613 23 b 944 -15 739 22 830 -15 b 1276 210 1126 -15 1248 75 b 1121 3 1276 102 1187 64 b 855 108 1057 70 967 108 "},"p":{"ha":9,"x_min":0,"x_max":0,"o":""},"ṕ":{"ha":0,"x_min":0,"x_max":0,"o":""},"ṗ":{"ha":0,"x_min":0,"x_max":0,"o":""},"ɸ":{"ha":157,"x_min":0,"x_max":0,"o":"m 96 374 l 96 358 b 399 -5 96 129 224 21 l 399 -260 l 595 -260 l 595 -7 b 897 358 781 22 897 136 l 897 374 b 595 739 897 596 781 711 l 595 982 l 399 982 l 399 739 b 96 374 215 711 96 596 z m 296 358 l 296 374 b 399 570 296 484 338 543 l 399 164 b 296 358 338 189 296 247 z m 595 164 l 595 570 b 697 374 658 542 697 481 l 697 358 b 595 164 697 248 656 191 z "},"ƥ":{"ha":9,"x_min":0,"x_max":0,"o":"m 79 736 l 79 -277 l 279 -277 l 279 118 l 285 118 b 365 176 285 157 311 176 b 430 167 391 175 418 170 l 430 301 b 327 313 411 307 373 313 b 87 118 163 313 87 255 "},"þ":{"ha":0,"x_min":0,"x_max":0,"o":""},"q":{"ha":0,"x_min":0,"x_max":0,"o":""},"ʠ":{"ha":100,"x_min":0,"x_max":0,"o":"m 568 736 l 568 613 l 559 613 b 768 743 678 613 739 682 l 774 743 l 774 349 l 975 349 l 975 1362 b 1055 1420 975 1401 1001 1420 b 1120 1411 1082 1419 1108 1413 l 1120 1545 b 1017 1557 1101 1550 1065 1557 b 777 1362 853 1557 777 1499 "},"ɋ":{"ha":78,"x_min":0,"x_max":0,"o":"m 815 -277 b 920 -270 859 -277 897 -273 l 920 -115 b 869 -119 902 -118 886 -119 b 766 -46 817 -119 766 -104 l 766 736 l 568 736 l 568 613 l 559 613 b 768 743 678 613 739 682 l 774 743 l 774 579 b 1024 349 774 400 886 349 "},"r":{"ha":-295,"x_min":0,"x_max":0,"o":""},"ŕ":{"ha":0,"x_min":0,"x_max":0,"o":""},"ř":{"ha":0,"x_min":0,"x_max":0,"o":""},"ŗ":{"ha":-295,"x_min":0,"x_max":0,"o":"m -50 -1051 l 91 -1051 l 195 -814 l 9 -814 z "},"ȑ":{"ha":0,"x_min":0,"x_max":0,"o":""},"ṙ":{"ha":0,"x_min":0,"x_max":0,"o":""},"ṛ":{"ha":0,"x_min":0,"x_max":0,"o":""},"ṝ":{"ha":0,"x_min":0,"x_max":0,"o":""},"ɾ":{"ha":-340,"x_min":0,"x_max":0,"o":"m 270 0 l 270 517 b 388 606 270 589 331 606 b 437 602 406 606 420 605 l 437 736 b 332 746 408 742 374 746 b 75 518 206 746 75 707 l 75 0 z "},"ɿ":{"ha":-341,"x_min":0,"x_max":0,"o":"m 422 -275 l 422 518 b 163 746 422 707 289 746 b 60 736 121 746 88 742 l 60 602 b 109 606 73 605 94 606 b 227 517 164 606 227 589 l 227 -275 z "},"ȓ":{"ha":0,"x_min":0,"x_max":0,"o":""},"ṟ":{"ha":-295,"x_min":0,"x_max":0,"o":"m 340 -859 l -126 -859 l -126 -968 l 340 -968 z "},"ɹ":{"ha":-295,"x_min":0,"x_max":0,"o":"m 463 736 l 262 736 l 262 317 l 134 317 l 134 511 z "},"ɺ":{"ha":-325,"x_min":0,"x_max":0,"o":"m 49 186 l 47 -5 b 107 -14 61 -11 87 -14 b 273 85 180 -14 235 24 l 277 0 l 465 0 l 465 1013 l 267 1013 l 267 254 b 121 180 245 205 197 180 b 49 186 102 180 69 183 z "},"ɻ":{"ha":-230,"x_min":0,"x_max":0,"o":"m 522 -288 b 627 -279 563 -288 597 -285 l 627 -146 b 576 -151 609 -149 594 -151 b 463 -52 499 -151 463 -118 l 463 736 l 262 736 l 262 317 l 75 317 b 328 90 75 137 190 90 z "},"s":{"ha":-87,"x_min":0,"x_max":0,"o":""},"ś":{"ha":0,"x_min":0,"x_max":0,"o":""},"ṥ":{"ha":0,"x_min":0,"x_max":0,"o":""},"š":{"ha":0,"x_min":0,"x_max":0,"o":""},"ṧ":{"ha":0,"x_min":0,"x_max":0,"o":""},"ş":{"ha":168,"x_min":0,"x_max":0,"o":"b -305 285 -87 15 -219 114 b NaN NaN -318 267 -399 293 l NaN NaN "},"ŝ":{"ha":0,"x_min":0,"x_max":0,"o":""},"ș":{"ha":0,"x_min":0,"x_max":0,"o":""},"ṡ":{"ha":0,"x_min":0,"x_max":0,"o":""},"ṣ":{"ha":0,"x_min":0,"x_max":0,"o":""},"ṩ":{"ha":0,"x_min":0,"x_max":0,"o":""},"ß":{"ha":43,"x_min":0,"x_max":0,"o":"m 83 723 l 83 0 l 283 0 l 283 694 b 425 827 283 774 340 827 b 562 701 510 827 562 773 b 445 575 562 633 515 575 l 393 575 l 393 419 l 469 419 b 629 289 568 419 629 368 b 487 164 631 214 574 164 l 389 164 l 389 0 l 518 0 b 833 270 704 0 831 99 b 624 515 833 408 751 507 l 624 526 b 766 730 712 552 766 628 b 419 996 766 905 609 996 b 83 723 216 996 83 892 z "},"ẛ":{"ha":-319,"x_min":0,"x_max":0,"o":"m 130 792 l 130 0 l 331 0 l 331 781 "},"ẜ":{"ha":-340,"x_min":0,"x_max":0,"o":"m 19 430 l 110 461 l 110 0 l 311 0 l 311 530 l 441 574 l 441 736 l 311 693 l 311 781 l 311 614 l 220 583 z "},"ʂ":{"ha":-87,"x_min":0,"x_max":0,"o":"m 45 212 l 45 -39 b 273 -264 45 -180 136 -264 b 357 -255 304 -264 330 -262 l 357 -122 b 305 -126 340 -125 323 -126 b 197 -28 243 -126 197 -99 l 197 18 b 377 -15 245 -3 307 -15 b 704 228 572 -15 703 83 b 491 427 703 334 633 397 l 359 454 b 264 528 290 469 263 495 b 378 604 263 572 313 604 b 499 518 445 604 491 570 l 500 511 z "},"ſ":{"ha":-359,"x_min":0,"x_max":0,"o":"m 278 0 l 278 774 b 378 868 278 836 313 868 b 444 863 407 868 423 867 l 458 1013 b 351 1027 422 1021 387 1027 b 79 774 179 1027 79 939 l 79 0 z "},"t":{"ha":-322,"x_min":0,"x_max":0,"o":""},"ŧ":{"ha":-322,"x_min":0,"x_max":0,"o":"m 26 370 l 26 472 l -146 472 l -146 616 l -8 616 l -8 713 l -146 713 l -146 831 l -8 831 l -8 982 l -146 982 l -146 1158 l -347 1158 l -347 982 l -449 982 l -449 831 l -347 831 l -347 713 l -449 713 z "},"ť":{"ha":0,"x_min":0,"x_max":0,"o":""},"ʨ":{"ha":0,"x_min":0,"x_max":0,"o":"l 347 0 l 347 -378 b 573 -594 347 -521 427 -595 b 798 -528 663 -594 736 -566 b 1030 -601 857 -574 936 -601 b 1346 -358 1224 -601 1348 -488 b 1139 -190 1346 -256 1273 -190 b 876 -278 1049 -190 963 -220 b 870 -217 871 -260 870 -239 b 1030 4 870 -77 934 4 b 1166 -119 1106 4 1154 -47 l 1356 -119 b 1027 160 1346 49 1219 160 b 667 -220 805 160 667 5 b 706 -411 667 -292 680 -356 b 611 -445 672 -433 641 -445 b 547 -374 574 -445 547 -426 l 547 0 l 687 0 m 946 -407 b 1109 -340 1000 -366 1057 -340 b 1163 -378 1147 -340 1163 -355 b 1059 -441 1163 -419 1121 -441 b 946 -407 1015 -441 977 -430 z "},"ţ":{"ha":0,"x_min":0,"x_max":0,"o":"b -146 -202 -322 -119 -253 -184 b NaN NaN -165 -292 -136 NaN l NaN NaN b NaN NaN NaN NaN NaN NaN l NaN NaN l NaN NaN "},"ṱ":{"ha":0,"x_min":0,"x_max":0,"o":""},"ț":{"ha":0,"x_min":0,"x_max":0,"o":""},"ȶ":{"ha":-132,"x_min":0,"x_max":0,"o":"m 183 913 l 183 736 l 81 736 l 81 586 l 183 586 l 183 258 b 26 117 132 220 80 174 l 115 5 b 213 100 149 42 182 73 b 435 -15 256 19 344 -15 b 667 184 605 -15 667 91 b 465 369 667 289 590 369 b 384 358 439 369 412 366 l 384 586 l 524 586 l 524 736 l 384 736 l 384 913 z m 384 186 l 384 214 b 446 229 408 224 429 229 b 505 178 487 229 505 206 b 449 122 505 142 480 122 b 384 186 411 122 384 149 z "},"ẗ":{"ha":0,"x_min":0,"x_max":0,"o":""},"ṫ":{"ha":0,"x_min":0,"x_max":0,"o":""},"ṭ":{"ha":0,"x_min":0,"x_max":0,"o":""},"ʧ":{"ha":127,"x_min":0,"x_max":0,"o":"m 170 891 l 170 713 l 64 713 l 64 571 l 170 571 l 170 225 b 385 -14 170 81 214 -14 b 557 12 451 -14 517 1 l 557 -24 b 449 -117 557 -83 518 -117 b 389 -111 422 -117 404 -115 l 388 -263 b 487 -277 415 -270 450 -277 b 758 -24 652 -277 758 -187 l 758 774 b 868 868 758 836 799 868 b 928 863 894 868 910 865 l 929 1015 b 829 1027 901 1021 867 1027 b 557 774 663 1027 557 939 l 557 713 l 368 713 l 368 891 z m 368 225 l 368 571 l 557 571 l 557 161 b 446 149 530 156 484 149 b 368 225 389 149 368 167 z "},"ƭ":{"ha":-224,"x_min":0,"x_max":0,"o":"m 503 713 l 377 713 l 377 796 b 491 890 377 871 438 890 b 540 884 510 890 529 887 l 540 1016 b 437 1027 511 1023 481 1027 b 179 796 298 1027 179 979 l 179 713 l 73 713 l 73 571 l 179 571 l 179 203 b 391 -14 179 49 262 -14 b 511 4 437 -14 476 -8 l 511 153 b 453 149 495 151 477 149 b 377 225 404 149 377 165 l 377 571 l 503 571 z "},"ṯ":{"ha":0,"x_min":0,"x_max":0,"o":""},"ƽ":{"ha":32,"x_min":0,"x_max":0,"o":"m 349 304 b 458 338 366 323 400 338 b 579 244 536 338 579 300 b 461 149 579 186 543 149 b 335 221 388 149 339 172 l 140 213 b 461 -11 138 57 298 -11 b 777 232 685 -11 777 92 b 514 469 777 382 680 472 b 368 438 452 469 396 453 l 385 557 l 728 557 l 728 713 l 91 713 l 91 557 l 202 557 l 170 313 z "},"ƅ":{"ha":215,"x_min":0,"x_max":0,"o":"m 285 0 l 654 0 l 654 -441 l 486 -441 l 486 -201 "},"ƨ":{"ha":-87,"x_min":0,"x_max":0,"o":"m 61 518 l 250 518 b 370 604 258 570 304 604 b 484 528 435 604 486 572 b 389 454 486 495 458 469 l 258 427 b 45 228 115 397 46 334 b 372 -15 46 83 176 -15 b 704 218 571 -15 688 75 l 502 218 b 372 130 492 160 445 130 b 250 208 298 130 250 160 b 350 283 250 245 281 269 l 472 308 b 684 517 612 335 685 408 b 373 746 685 658 563 746 b 61 518 187 746 72 658 z "},"ƫ":{"ha":0,"x_min":0,"x_max":0,"o":"b -97 -206 -314 -134 -227 -199 l -97 -244 b -212 -334 -97 -317 -159 -334 b -262 -331 -233 -334 -248 -332 l -262 -464 b -177 -473 -235 -471 -208 -473 b 45 -244 -43 -473 45 -391 l 45 -28 l -39 -46 l -43 -46 b -112 28 -83 -45 -112 -30 l -112 388 l 26 388 "},"ʈ":{"ha":0,"x_min":0,"x_max":0,"o":"l -318 0 l -318 -659 b -74 -868 -318 -803 -219 -873 b 36 -849 -21 -865 17 -856 l 5 -699 b -47 -705 -5 -700 -26 -705 b -117 -632 -87 -705 -117 -689 l -117 0 l 22 0 "},"ʦ":{"ha":277,"x_min":0,"x_max":0,"o":"m 163 891 l 163 736 l 57 736 l 57 594 l 163 594 l 163 239 b 376 0 163 60 254 0 l 750 0 b 1061 209 937 0 1059 79 b 792 429 1059 332 968 395 b 647 524 704 446 647 461 b 749 609 647 576 688 609 b 860 496 822 609 859 564 l 1058 496 b 750 746 1058 648 939 746 b 659 736 717 746 686 743 l 362 736 l 362 891 z m 867 214 b 754 161 867 176 827 161 l 438 161 b 362 239 382 161 361 183 l 362 594 l 471 594 b 456 515 461 570 456 543 b 720 286 456 389 552 319 b 867 214 823 267 867 247 z "},"ʇ":{"ha":-322,"x_min":0,"x_max":0,"o":"m 47 0 l 186 0 l 186 -176 l 387 -176 l 387 0 l 488 0 l 488 151 l 387 151 l 387 538 b 144 746 388 681 289 746 b 37 739 94 746 58 743 l 37 581 b 117 585 61 583 96 585 b 186 510 157 583 186 568 l 186 151 l 47 151 z "},"u":{"ha":-7,"x_min":0,"x_max":0,"o":""},"ú":{"ha":0,"x_min":0,"x_max":0,"o":""},"ʉ":{"ha":58,"x_min":0,"x_max":0,"o":"m 899 483 l 784 483 l 784 736 l 583 736 l 583 483 l 312 483 l 312 736 l 111 736 l 111 483 l -4 483 l -4 365 l 111 365 l 111 267 l -22 267 l -22 460 l 343 460 l 343 575 z m 27 524 l 27 586 l 298 586 z "},"ŭ":{"ha":0,"x_min":0,"x_max":0,"o":""},"ǔ":{"ha":0,"x_min":0,"x_max":0,"o":""},"û":{"ha":0,"x_min":0,"x_max":0,"o":""},"ṷ":{"ha":-7,"x_min":0,"x_max":0,"o":"m -1 -1015 l 170 -1015 l 170 -1008 l -23 -798 l -174 -798 l -366 -1008 l -366 -1015 l -195 -1015 l -98 -897 z "},"ȕ":{"ha":0,"x_min":0,"x_max":0,"o":""},"ü":{"ha":0,"x_min":0,"x_max":0,"o":""},"ǘ":{"ha":0,"x_min":0,"x_max":0,"o":""},"ṳ":{"ha":-7,"x_min":0,"x_max":0,"o":"m 342 0 z "},"ǚ":{"ha":0,"x_min":0,"x_max":0,"o":""},"ǜ":{"ha":-7,"x_min":0,"x_max":0,"o":"m -396 172 b -302 88 -396 125 -355 88 b -208 172 -247 88 -208 125 b -302 258 -208 218 -247 258 b -396 172 -357 258 -396 218 z m -65 171 b 31 87 -65 125 -24 87 b 126 171 85 87 126 125 b 31 258 126 218 85 258 b -65 171 -23 258 -65 220 z m -171 492 l -388 492 l -199 288 l -37 288 z "},"ǖ":{"ha":0,"x_min":0,"x_max":0,"o":""},"ụ":{"ha":0,"x_min":0,"x_max":0,"o":""},"ù":{"ha":0,"x_min":0,"x_max":0,"o":""},"ủ":{"ha":0,"x_min":0,"x_max":0,"o":""},"ư":{"ha":108,"x_min":0,"x_max":0,"o":""},"ứ":{"ha":108,"x_min":0,"x_max":0,"o":"m -623 54 l -480 54 l -334 273 l -521 273 z "},"ự":{"ha":108,"x_min":0,"x_max":0,"o":"m -511 -1051 z "},"ừ":{"ha":108,"x_min":0,"x_max":0,"o":"m -620 54 l -477 54 l -579 273 l -766 273 z "},"ử":{"ha":0,"x_min":0,"x_max":0,"o":""},"ữ":{"ha":0,"x_min":0,"x_max":0,"o":""},"ű":{"ha":0,"x_min":0,"x_max":0,"o":""},"ȗ":{"ha":0,"x_min":0,"x_max":0,"o":""},"ū":{"ha":0,"x_min":0,"x_max":0,"o":""},"ṻ":{"ha":0,"x_min":0,"x_max":0,"o":""},"ǹ":{"ha":0,"x_min":0,"x_max":0,"o":""},"ȟ":{"ha":0,"x_min":0,"x_max":0,"o":""},"ȡ":{"ha":0,"x_min":0,"x_max":0,"o":"l 125 0 l 125 353 l 113 353 l 113 355 l -16 355 l -185 216 l -97 96 l 20 191 b 252 90 58 130 130 90 b 492 262 410 90 492 156 b 246 446 492 372 402 446 b 189 444 227 446 208 445 l 189 1348 l -12 1348 l -12 979 l -18 979 m 332 751 l 332 776 b 394 789 355 785 376 791 b 465 731 443 789 466 764 b 402 677 466 699 439 677 b 332 751 366 677 333 700 z "},"ȣ":{"ha":56,"x_min":0,"x_max":0,"o":"m 439 456 l 454 456 b 625 302 563 456 625 397 b 454 146 625 205 563 146 l 439 146 b 269 301 332 146 269 205 b 439 456 269 397 332 456 z m 456 614 l 437 614 b 269 750 332 614 269 650 b 353 875 269 822 302 857 l 353 1027 b 68 754 186 1025 68 932 b 182 533 68 648 111 577 b 68 301 111 485 68 409 b 439 -14 68 95 225 -14 l 454 -14 b 825 302 669 -14 825 95 b 712 533 825 410 782 485 b 825 754 782 577 825 648 b 540 1027 825 933 705 1025 l 540 875 b 627 750 590 857 627 822 b 456 614 627 651 562 614 z "},"ȧ":{"ha":0,"x_min":0,"x_max":0,"o":""},"ȩ":{"ha":0,"x_min":0,"x_max":0,"o":""},"ȫ":{"ha":0,"x_min":0,"x_max":0,"o":""},"ȭ":{"ha":0,"x_min":0,"x_max":0,"o":""},"ȯ":{"ha":0,"x_min":0,"x_max":0,"o":""},"ȱ":{"ha":0,"x_min":0,"x_max":0,"o":""},"ȳ":{"ha":0,"x_min":0,"x_max":0,"o":""},"ȸ":{"ha":437,"x_min":0,"x_max":0,"o":"m 1200 358 l 1200 372 b 917 746 1200 597 1093 746 b 736 669 840 746 781 718 l 736 982 l 537 982 l 537 669 b 522 659 537 718 493 659 b 527 754 444 659 527 721 b NaN NaN 527 810 573 NaN l NaN NaN z "},"ȹ":{"ha":437,"x_min":0,"x_max":0,"o":"m 537 -274 l 537 -75 l 875 -75 l 875 -61 b 591 313 875 164 768 313 b 404 228 510 313 449 282 l 396 304 l 235 304 l 222 224 b 210 218 222 280 176 218 b 203 306 126 218 203 277 b NaN NaN 203 356 248 NaN z "},"ȼ":{"ha":-54,"x_min":0,"x_max":0,"o":"m 674 982 l 557 982 l 475 742 b 456 722 477 742 456 720 b 179 764 456 699 301 764 b 233 NaN 294 764 233 NaN l 127 NaN l 244 NaN l 338 NaN b 415 NaN 361 NaN 388 NaN b 742 NaN 610 NaN 732 NaN l 553 NaN b 418 NaN 541 NaN 488 NaN b 391 NaN 408 NaN 399 NaN l 526 NaN b 553 NaN 540 NaN 549 NaN l 742 NaN b 586 NaN 736 NaN 679 NaN z m 258 NaN b 418 NaN 258 NaN 321 NaN l 427 NaN l 297 NaN b 258 NaN 271 NaN 258 NaN z "},"ȿ":{"ha":0,"x_min":0,"x_max":0,"o":"b -180 54 -86 5 -136 24 b NaN NaN -215 159 -398 NaN l NaN NaN b NaN NaN NaN NaN NaN NaN b NaN NaN NaN NaN NaN NaN l NaN NaN b NaN NaN NaN NaN NaN NaN b NaN NaN NaN NaN NaN NaN b NaN NaN NaN NaN NaN NaN b NaN NaN NaN NaN NaN NaN b NaN NaN NaN NaN NaN NaN l NaN NaN b NaN NaN NaN NaN NaN NaN b NaN NaN NaN NaN NaN NaN b NaN NaN NaN NaN NaN NaN "},"ɀ":{"ha":7,"x_min":0,"x_max":0,"o":"m 340 160 l 326 160 l 681 618 l 681 736 l 85 736 l 85 952 b 488 675 275 952 278 675 b 678 761 572 675 633 720 l 612 892 b 506 842 589 873 547 842 b 133 1112 385 842 370 1112 z "},"ɂ":{"ha":-68,"x_min":0,"x_max":0,"o":"m 81 454 l 281 454 b 387 587 281 541 315 587 b 487 460 458 587 487 538 b 362 321 487 370 449 321 l 286 321 l 286 0 l 487 0 l 487 218 b 686 465 621 241 686 333 b 385 746 686 643 570 746 b 81 454 203 746 81 635 z "},"ɇ":{"ha":-39,"x_min":0,"x_max":0,"o":"m 674 982 l 557 982 l 475 741 b 404 746 452 744 428 746 b 49 365 189 746 49 593 b 228 27 49 205 114 86 l 122 -277 l 239 -277 l 332 -8 b 412 -15 357 -13 384 -15 b 745 210 594 -15 716 75 l 553 210 b 416 136 533 165 484 136 b 382 138 404 136 393 136 l 444 316 l 750 316 l 750 373 b 579 707 750 541 682 651 z m 247 316 l 327 316 l 285 194 b 247 316 260 224 247 266 z m 247 442 b 408 595 250 527 316 595 l 425 595 l 372 442 z m 488 442 l 524 547 b 560 442 547 519 560 484 z "},"ɉ":{"ha":0,"x_min":0,"x_max":0,"o":""},"ɍ":{"ha":-295,"x_min":0,"x_max":0,"o":"m 79 0 l 279 0 l 279 297 l 416 297 l 416 416 l 279 416 l 279 419 l -41 419 z "},"ɏ":{"ha":-47,"x_min":0,"x_max":0,"o":"m 765 498 l 685 498 l 769 736 l 556 736 l 488 498 l 305 498 l 237 736 l 27 736 l 111 498 l 22 498 l 22 395 l 146 395 b -123 631 292 395 -123 551 b NaN 750 -123 708 -5 750 l NaN 1226 l NaN 1226 z m NaN 1226 l NaN 1226 l NaN 1025 l NaN 1025 z "},"ʙ":{"ha":0,"x_min":0,"x_max":0,"o":""},"ʜ":{"ha":0,"x_min":0,"x_max":0,"o":"l -45 0 l -45 190 l 691 190 l 691 0 l 404 0 l 404 -256 "},"ʫ":{"ha":223,"x_min":0,"x_max":0,"o":"m 986 160 l 628 160 l 978 618 l 978 736 l 279 736 l 279 982 l 79 982 l 79 0 l 279 0 l 279 576 l 726 576 l 374 119 l 374 0 l 986 0 z "},"ʬ":{"ha":-96,"x_min":0,"x_max":0,"o":"m 210 962 l 73 962 l 180 575 l 292 575 l 372 791 l 449 575 l 559 575 l 667 962 l 530 962 l 490 765 l 422 962 l 319 962 l 252 762 z m 210 385 l 73 385 l 180 0 l 292 0 l 372 217 l 449 0 l 559 0 l 667 385 l 530 385 l 490 190 l 422 385 l 319 385 l 252 187 z "},"ẝ":{"ha":-328,"x_min":0,"x_max":0,"o":"m 323 0 l 323 682 l 468 682 l 468 804 l 327 804 b 434 868 338 846 377 868 b 492 861 457 868 477 865 l 495 1015 b 393 1027 467 1021 430 1027 b 125 804 238 1027 136 949 l 15 804 l 15 682 l 123 682 l 123 0 z "},"ẟ":{"ha":31,"x_min":0,"x_max":0,"o":"m 208 825 b 335 647 208 750 252 690 l 336 643 b 125 349 216 613 123 492 l 125 336 b 475 -14 123 132 259 -14 b 822 347 686 -14 822 136 l 822 359 b 502 741 822 543 720 667 b 397 822 420 769 397 796 b 502 876 397 857 430 876 b 665 846 563 876 625 861 l 665 997 b 487 1027 602 1017 549 1027 b 208 825 315 1027 206 948 z m 321 358 l 321 369 b 475 575 321 486 376 575 b 624 369 562 557 624 464 l 624 358 b 475 145 624 233 572 145 b 321 358 374 145 321 235 z "},"ỻ":{"ha":124,"x_min":0,"x_max":0,"o":"m 892 910 l 724 910 l 724 982 l 524 982 l 524 910 l 408 910 l 408 982 l 206 982 l 206 910 l 68 910 l 68 788 l 206 788 l 206 0 l 408 0 l 408 788 l 524 788 l 524 0 l 724 0 l 724 788 l 892 788 z "},"ỽ":{"ha":31,"x_min":0,"x_max":0,"o":"m 536 640 l 448 498 b 576 294 525 458 576 396 b 438 146 576 201 524 146 b 293 345 346 146 293 218 l 293 404 b 633 890 293 670 457 818 l 570 1040 b 92 412 288 955 92 726 l 92 372 b 442 -14 92 140 232 -14 b 776 308 643 -14 776 104 b 536 640 776 463 669 586 z "},"ỿ":{"ha":52,"x_min":0,"x_max":0,"o":"m 370 736 l 153 736 l 332 248 b 304 250 323 249 313 250 b 31 -20 153 250 31 127 b 301 -288 31 -167 153 -288 b 585 -52 439 -288 521 -224 l 865 736 l 651 736 l 506 270 l 499 302 z m 307 -119 b 206 -20 251 -119 205 -85 b 307 83 205 47 250 83 b 403 -20 361 83 403 47 b 307 -119 403 -85 359 -119 z "},"ↄ":{"ha":0,"x_min":0,"x_max":0,"o":""},"ų":{"ha":-7,"x_min":0,"x_max":0,"o":"m 551 313 l 445 313 l 445 260 l 400 260 l 400 241 l 331 241 l 331 252 l 269 252 l 269 989 l 68 989 z "},"ʊ":{"ha":58,"x_min":0,"x_max":0,"o":"m 448 145 b 274 292 309 145 274 224 b 349 594 274 396 349 480 b 90 746 349 682 293 746 l 90 595 b 145 549 118 595 145 582 b 77 240 145 465 77 392 b 448 -14 77 134 149 -14 b 819 240 746 -14 819 134 b 750 549 819 392 750 465 b 804 595 750 582 776 595 l 804 746 b 548 594 604 746 548 682 b 620 292 548 480 620 396 b 448 145 620 224 586 145 z "},"ů":{"ha":0,"x_min":0,"x_max":0,"o":""},"ũ":{"ha":0,"x_min":0,"x_max":0,"o":""},"ṹ":{"ha":0,"x_min":0,"x_max":0,"o":""},"ṵ":{"ha":0,"x_min":0,"x_max":0,"o":""},"v":{"ha":-55,"x_min":0,"x_max":0,"o":""},"ṿ":{"ha":0,"x_min":0,"x_max":0,"o":""},"ʋ":{"ha":-68,"x_min":0,"x_max":0,"o":"m 382 -14 b 701 281 571 -14 701 72 l 701 524 b 518 746 701 656 654 746 b 361 718 471 746 418 735 l 381 576 b 427 582 399 581 412 582 b 502 491 476 582 502 551 l 502 281 b 382 146 502 184 458 146 b 264 281 307 146 264 184 l 264 736 l 66 736 l 66 281 b 382 -14 65 72 195 -14 z "},"ṽ":{"ha":0,"x_min":0,"x_max":0,"o":""},"ʌ":{"ha":-55,"x_min":0,"x_max":0,"o":"m 19 0 l 232 0 l 387 529 l 395 529 l 549 0 l 761 0 l 503 736 l 278 736 z "},"w":{"ha":302,"x_min":0,"x_max":0,"o":""},"ẃ":{"ha":0,"x_min":0,"x_max":0,"o":""},"ŵ":{"ha":0,"x_min":0,"x_max":0,"o":""},"ẅ":{"ha":0,"x_min":0,"x_max":0,"o":""},"ẇ":{"ha":0,"x_min":0,"x_max":0,"o":""},"ẉ":{"ha":0,"x_min":0,"x_max":0,"o":""},"ẁ":{"ha":0,"x_min":0,"x_max":0,"o":""},"ẘ":{"ha":0,"x_min":0,"x_max":0,"o":""},"ʍ":{"ha":302,"x_min":0,"x_max":0,"o":"m 914 736 l 701 736 l 574 269 l 564 269 l 437 736 l 225 736 l 23 0 l 227 0 l 340 495 l 347 495 l 469 0 l 669 0 l 789 498 l 796 498 l 911 0 l 1115 0 z "},"ƿ":{"ha":63,"x_min":0,"x_max":0,"o":"m 118 -274 l 317 -274 l 317 -114 b 781 350 612 -33 781 91 l 781 385 b 495 746 781 601 680 746 b 312 665 414 746 355 715 l 304 736 l 118 736 z m 317 42 l 317 519 b 442 587 340 564 379 587 b 582 385 547 587 582 495 l 582 350 b 317 42 582 182 475 83 z "},"x":{"ha":-71,"x_min":0,"x_max":0,"o":""},"ẍ":{"ha":0,"x_min":0,"x_max":0,"o":""},"ẋ":{"ha":-71,"x_min":0,"x_max":0,"o":"m 0 355 z "},"y":{"ha":-55,"x_min":0,"x_max":0,"o":""},"ý":{"ha":0,"x_min":0,"x_max":0,"o":""},"ŷ":{"ha":0,"x_min":0,"x_max":0,"o":""},"ÿ":{"ha":0,"x_min":0,"x_max":0,"o":""},"ẏ":{"ha":0,"x_min":0,"x_max":0,"o":""},"ỵ":{"ha":0,"x_min":0,"x_max":0,"o":""},"ỳ":{"ha":0,"x_min":0,"x_max":0,"o":""},"ƴ":{"ha":14,"x_min":0,"x_max":0,"o":"m 202 -277 b 480 -81 353 -277 439 -201 l 727 652 b 796 742 746 709 764 738 b 857 731 814 745 834 739 l 894 884 b 765 913 859 902 812 913 b 544 699 646 913 579 823 l 393 194 l 385 194 l 231 736 l 20 736 l 285 -20 l 273 -53 b 121 -104 244 -123 194 -127 l 76 -256 b 202 -277 104 -267 151 -277 z "},"ỷ":{"ha":0,"x_min":0,"x_max":0,"o":""},"ẙ":{"ha":0,"x_min":0,"x_max":0,"o":""},"ỹ":{"ha":0,"x_min":0,"x_max":0,"o":""},"ʎ":{"ha":-55,"x_min":0,"x_max":0,"o":"m 585 1013 b 307 818 429 1013 349 936 l 19 0 l 232 0 l 388 543 l 396 543 l 551 0 l 761 0 l 496 757 l 509 788 b 605 856 533 852 566 856 b 686 853 631 856 661 854 l 686 1009 b 585 1013 661 1012 624 1013 z "},"z":{"ha":-74,"x_min":0,"x_max":0,"o":""},"ź":{"ha":0,"x_min":0,"x_max":0,"o":""},"ƶ":{"ha":-74,"x_min":0,"x_max":0,"o":"m 73 0 l 690 0 l 690 160 l 338 160 l 338 165 l 452 312 l 616 312 l 616 431 l 544 431 l 678 605 l 678 736 l 85 736 l 85 576 l 437 576 l 437 571 l 324 431 l 140 431 l 140 312 l 228 312 l 73 121 z "},"ž":{"ha":0,"x_min":0,"x_max":0,"o":""},"ẑ":{"ha":0,"x_min":0,"x_max":0,"o":""},"ʑ":{"ha":109,"x_min":0,"x_max":0,"o":"m 77 0 l 311 0 l 248 -90 l 373 -167 l 496 0 l 651 0 b 924 231 841 0 924 126 b 738 408 924 336 837 408 b 425 160 631 408 547 327 l 326 160 l 681 618 l 681 736 l 85 736 l 85 576 l 431 576 l 77 119 z m 612 160 b 719 252 660 227 686 252 b 762 221 742 252 762 240 b 662 160 762 187 734 160 z "},"ż":{"ha":0,"x_min":0,"x_max":0,"o":""},"ẓ":{"ha":0,"x_min":0,"x_max":0,"o":""},"ȥ":{"ha":-81,"x_min":0,"x_max":0,"o":"m 548 -129 l 548 -178 l 715 -178 l 715 -91 b 449 160 715 64 620 160 l 323 160 l 677 618 l 677 736 l 83 736 l 83 1111 b 182 982 167 1111 182 1042 z "},"ẕ":{"ha":0,"x_min":0,"x_max":0,"o":""},"ʐ":{"ha":14,"x_min":0,"x_max":0,"o":"m 549 0 l 549 -60 b 773 -288 549 -205 635 -288 b 856 -279 802 -288 827 -286 l 856 -145 b 804 -148 838 -148 823 -148 b 690 -60 751 -148 690 -132 l 690 160 l 338 160 l 338 165 l 338 45 z "},"ａ":{"ha":0,"x_min":0,"x_max":0,"o":""},"ｂ":{"ha":466,"x_min":0,"x_max":0,"o":""},"ｃ":{"ha":466,"x_min":0,"x_max":0,"o":""},"ｄ":{"ha":466,"x_min":0,"x_max":0,"o":""},"ｅ":{"ha":466,"x_min":0,"x_max":0,"o":"m 665 -15 b 997 210 846 -15 968 75 b 1360 -170 997 -23 1135 -170 "},"ｆ":{"ha":466,"x_min":0,"x_max":0,"o":"m 867 736 l 720 736 l 720 781 l 720 726 l 616 726 l 616 575 l 720 575 l 720 -11 l 921 -11 l 921 575 l 1067 575 z "},"ｇ":{"ha":0,"x_min":0,"x_max":0,"o":""},"ｈ":{"ha":466,"x_min":0,"x_max":0,"o":"m 514 426 l 80 426 l 80 627 l 549 627 l 549 1001 l 354 1001 l 354 19 l 555 19 z "},"ｉ":{"ha":466,"x_min":0,"x_max":0,"o":"m 552 0 "},"ｊ":{"ha":0,"x_min":0,"x_max":0,"o":""},"ｋ":{"ha":466,"x_min":0,"x_max":0,"o":"m 343 0 z "},"ｌ":{"ha":0,"x_min":0,"x_max":0,"o":""},"ｍ":{"ha":466,"x_min":0,"x_max":0,"o":"m 119 0 z "},"ｎ":{"ha":466,"x_min":0,"x_max":0,"o":"m 517 426 l 718 426 z "},"ｏ":{"ha":466,"x_min":0,"x_max":0,"o":""},"ｐ":{"ha":466,"x_min":0,"x_max":0,"o":"m 308 -277 l 509 -277 l 509 118 l 514 118 l 316 118 "},"ｑ":{"ha":0,"x_min":0,"x_max":0,"o":""},"ｒ":{"ha":466,"x_min":0,"x_max":0,"o":"m 460 0 "},"ɼ":{"ha":0,"x_min":0,"x_max":0,"o":"b 149 -214 0 -276 65 -214 b 218 -230 178 -214 199 -220 l 279 -64 l 296 -64 l 296 -92 l 262 -92 l 262 -81 l 222 -81 "},"ɽ":{"ha":0,"x_min":0,"x_max":0,"o":"b 50 -294 0 -276 -15 -294 b 197 -243 113 -294 197 -265 b NaN -231 197 -250 187 -231 l NaN -66 l NaN -66 l NaN -93 l NaN -93 l NaN -82 l NaN -82 l NaN -865 b NaN -1095 NaN -1044 NaN -1095 "},"ｓ":{"ha":466,"x_min":0,"x_max":0,"o":""},"ｔ":{"ha":0,"x_min":0,"x_max":0,"o":""},"ｕ":{"ha":466,"x_min":0,"x_max":0,"o":"m 788 313 l 1525 313 l 1525 113 z "},"ｖ":{"ha":0,"x_min":0,"x_max":0,"o":""},"ｗ":{"ha":466,"x_min":0,"x_max":0,"o":""},"ｘ":{"ha":0,"x_min":0,"x_max":0,"o":""},"ｙ":{"ha":0,"x_min":0,"x_max":0,"o":""},"ｚ":{"ha":466,"x_min":0,"x_max":0,"o":"m 343 0 z "},"ₔ":{"ha":-195,"x_min":0,"x_max":0,"o":"m 301 260 b 87 165 195 260 122 212 l 164 81 b 293 140 197 119 244 140 b 427 38 360 140 412 100 l 73 38 l 73 -28 b 317 -288 73 -184 163 -288 b 575 -15 473 -288 575 -174 l 575 4 b 301 260 575 144 472 260 z m 218 -76 l 218 -64 l 426 -64 b 319 -165 415 -127 381 -165 b 218 -76 258 -165 218 -132 z "},"ₐ":{"ha":0,"x_min":0,"x_max":0,"o":""},"ₑ":{"ha":0,"x_min":0,"x_max":0,"o":""},"ᵢ":{"ha":0,"x_min":0,"x_max":0,"o":""},"ⱼ":{"ha":0,"x_min":0,"x_max":0,"o":""},"ₒ":{"ha":0,"x_min":0,"x_max":0,"o":""},"ᵣ":{"ha":0,"x_min":0,"x_max":0,"o":""},"ᵤ":{"ha":0,"x_min":0,"x_max":0,"o":""},"ᵥ":{"ha":0,"x_min":0,"x_max":0,"o":""},"ₓ":{"ha":0,"x_min":0,"x_max":0,"o":""},"ǃ":{"ha":-410,"x_min":0,"x_max":0,"o":"m 317 982 l 109 982 l 126 294 l 300 294 "},"ʔ":{"ha":-71,"x_min":0,"x_max":0,"o":"m 369 372 z "},"ǀ":{"ha":-443,"x_min":0,"x_max":0,"o":"m 256 966 l 137 966 l 137 0 l 256 0 z "},"ǁ":{"ha":-317,"x_min":0,"x_max":0,"o":"m 235 966 l 115 966 l 115 0 l 235 0 z m 411 966 l 292 966 l 292 0 l 411 0 z "},"ǂ":{"ha":-257,"x_min":0,"x_max":0,"o":"m 349 966 l 229 966 l 229 705 l 50 705 l 50 586 l 229 586 l 229 389 l 52 389 l 52 270 l 229 270 l 229 0 l 349 0 l 349 270 l 528 270 l 528 389 l 349 389 l 349 586 l 526 586 l 526 705 l 349 705 z "},"ƻ":{"ha":0,"x_min":0,"x_max":0,"o":"l 12 77 b 162 228 76 136 125 184 l 315 228 l 315 347 l 243 347 b 268 464 261 387 268 425 b -82 754 268 635 128 754 b -431 439 -290 754 -432 632 l -237 439 b -85 591 -237 533 -177 591 b 71 450 5 591 71 537 b 37 347 71 413 60 380 l -161 347 l -161 228 l -73 228 l -422 -94 "},"ꟿ":{"ha":816,"x_min":0,"x_max":0,"o":"m 376 962 l 168 962 l 75 0 l 281 0 l 345 647 l 678 0 l 883 0 l 947 647 l 1279 0 l 1280 1 l 1280 0 l 1484 0 l 1579 962 l 1374 962 l 1312 315 l 978 962 l 773 962 l 709 313 z "},"ʶ":{"ha":-196,"x_min":0,"x_max":0,"o":"m 312 431 b 545 612 456 431 545 511 b 454 766 545 672 512 730 l 571 960 l 406 960 l 311 802 l 214 802 l 214 960 l 69 960 l 69 431 z m 214 555 l 214 680 l 319 680 b 401 617 374 680 401 652 b 316 555 401 579 373 555 z "},"ʵ":{"ha":-326,"x_min":0,"x_max":0,"o":"m 50 578 l 50 429 b 88 425 57 426 71 425 b 209 494 138 425 180 450 l 209 401 b 363 224 209 270 256 224 b 461 232 397 224 444 228 l 461 361 b 419 354 449 357 433 354 b 354 418 374 354 354 381 l 354 960 l 209 960 l 209 613 b 115 568 191 584 159 568 b 50 578 92 568 69 571 z "},"ʱ":{"ha":-193,"x_min":0,"x_max":0,"o":"m 235 997 b 298 1062 235 1036 254 1062 b 342 1055 313 1062 327 1059 l 342 1184 b 243 1192 324 1188 271 1192 b 90 1013 137 1192 90 1146 l 90 431 l 235 431 l 235 795 b 324 844 251 825 280 844 b 410 719 382 844 410 807 l 410 431 l 556 431 l 556 765 b 376 967 556 907 487 967 b 235 894 315 967 267 940 z "},"ʴ":{"ha":-452,"x_min":0,"x_max":0,"o":"m 39 578 l 39 429 b 79 425 46 426 61 425 b 209 509 133 425 178 456 l 229 431 l 345 431 l 345 960 l 198 960 l 198 613 b 106 568 180 584 149 568 b 39 578 77 568 57 572 z "},"ʰ":{"ha":0,"x_min":0,"x_max":0,"o":""},"ⁱ":{"ha":0,"x_min":0,"x_max":0,"o":""},"ʲ":{"ha":0,"x_min":0,"x_max":0,"o":""},"ˡ":{"ha":-599,"x_min":0,"x_max":0,"o":"m 190 1145 l 46 1145 l 46 491 l 190 491 z "},"ⁿ":{"ha":0,"x_min":0,"x_max":0,"o":""},"ʳ":{"ha":0,"x_min":0,"x_max":0,"o":""},"ˢ":{"ha":-336,"x_min":0,"x_max":0,"o":""},"ʷ":{"ha":0,"x_min":0,"x_max":0,"o":""},"ˣ":{"ha":0,"x_min":0,"x_max":0,"o":""},"ʸ":{"ha":0,"x_min":0,"x_max":0,"o":""},"ª":{"ha":0,"x_min":0,"x_max":0,"o":""},"º":{"ha":0,"x_min":0,"x_max":0,"o":""},"А":{"ha":0,"x_min":0,"x_max":0,"o":""},"Б":{"ha":0,"x_min":0,"x_max":0,"o":""},"В":{"ha":48,"x_min":0,"x_max":0,"o":""},"Г":{"ha":0,"x_min":0,"x_max":0,"o":""},"Ѓ":{"ha":0,"x_min":0,"x_max":0,"o":""},"Ґ":{"ha":-56,"x_min":0,"x_max":0,"o":"m 83 0 l 286 0 l 286 814 l 735 814 l 735 1219 l 541 1219 l 541 982 l 83 982 z "},"Ӷ":{"ha":-60,"x_min":0,"x_max":0,"o":"m 732 982 l 83 982 l 83 0 l 283 0 l 283 -237 l 479 -237 l 479 140 l 286 140 l 286 814 l 732 814 z "},"Ғ":{"ha":-60,"x_min":0,"x_max":0,"o":"m 732 982 l 83 982 l 83 1218 l 529 1218 z "},"Ҕ":{"ha":78,"x_min":0,"x_max":0,"o":"m 732 982 l 83 982 l 83 0 l 286 0 l 286 392 l 456 392 l 456 222 l 719 222 l 719 669 z "},"Д":{"ha":218,"x_min":0,"x_max":0,"o":"m 27 -237 l 224 -237 l 224 0 l 821 0 l 821 -236 l 1016 -236 l 1016 163 l 909 163 l 909 982 l 262 982 l 233 567 b 95 163 217 309 161 213 l 27 163 z m 330 163 b 430 567 380 245 418 372 l 445 814 l 712 814 l 712 163 z "},"Е":{"ha":-18,"x_min":0,"x_max":0,"o":""},"Ѐ":{"ha":0,"x_min":0,"x_max":0,"o":""},"Ё":{"ha":0,"x_min":0,"x_max":0,"o":""},"Ж":{"ha":614,"x_min":0,"x_max":0,"o":""},"З":{"ha":0,"x_min":0,"x_max":0,"o":""},"И":{"ha":149,"x_min":0,"x_max":0,"o":""},"Й":{"ha":0,"x_min":0,"x_max":0,"o":""},"Ѝ":{"ha":0,"x_min":0,"x_max":0,"o":""},"Ҋ":{"ha":0,"x_min":0,"x_max":0,"o":"l 149 0 l 149 83 l 298 83 l 298 -96 l -131 -720 l -139 -720 l -139 -96 "},"К":{"ha":108,"x_min":0,"x_max":0,"o":"m 677 0 l 929 0 "},"Ќ":{"ha":0,"x_min":0,"x_max":0,"o":""},"Л":{"ha":0,"x_min":0,"x_max":0,"o":"l 140 0 l 140 198 l 1122 198 l 1122 -465 l 1106 -903 b 947 -1280 1095 -1177 1056 -1271 l 919 -1283 "},"М":{"ha":390,"x_min":0,"x_max":0,"o":""},"Н":{"ha":163,"x_min":0,"x_max":0,"o":""},"О":{"ha":210,"x_min":0,"x_max":0,"o":""},"П":{"ha":0,"x_min":0,"x_max":0,"o":""},"Р":{"ha":0,"x_min":0,"x_max":0,"o":""},"С":{"ha":169,"x_min":0,"x_max":0,"o":""},"Т":{"ha":56,"x_min":0,"x_max":0,"o":""},"У":{"ha":59,"x_min":0,"x_max":0,"o":""},"Ў":{"ha":0,"x_min":0,"x_max":0,"o":""},"Ф":{"ha":318,"x_min":0,"x_max":0,"o":"m 686 876 l 674 876 l 674 1000 l 480 1000 l 480 876 l 469 876 b 64 475 235 876 64 719 b 469 84 64 237 232 84 l 480 84 l 480 -41 l 674 -41 l 674 84 l 686 84 b 1089 475 921 84 1089 239 b 686 876 1089 718 921 876 z m 469 705 l 480 705 l 480 255 l 469 255 b 254 475 343 255 254 328 b 469 705 254 628 340 705 z m 674 255 l 674 705 l 688 705 b 899 475 814 705 899 628 b 688 255 899 331 814 255 z "},"Х":{"ha":116,"x_min":0,"x_max":0,"o":""},"Ч":{"ha":153,"x_min":0,"x_max":0,"o":""},"Ц":{"ha":226,"x_min":0,"x_max":0,"o":"m 1024 164 l 890 164 l 890 982 l 692 982 l 692 164 l 279 164 l 279 982 l 83 982 l 83 0 l 818 0 l 818 -232 l 1012 -232 z "},"Ш":{"ha":492,"x_min":0,"x_max":0,"o":"m 83 982 l 83 0 l 1245 0 l 1245 982 l 1047 982 l 1047 164 l 765 164 l 765 982 l 567 982 l 567 164 l 282 164 l 282 982 z "},"Щ":{"ha":589,"x_min":0,"x_max":0,"o":"m 1389 159 l 1245 159 l 1245 982 l 1047 982 l 1047 164 l 765 164 l 765 982 l 567 982 l 567 164 l 282 164 l 282 982 l 83 982 l 83 0 l 1190 0 l 1190 -231 l 1375 -231 z "},"Џ":{"ha":136,"x_min":0,"x_max":0,"o":"m 83 0 l 387 0 l 387 -237 l 586 -237 l 586 0 l 890 0 l 890 982 l 689 982 l 689 164 l 281 164 l 281 982 l 83 982 z "},"Ь":{"ha":40,"x_min":0,"x_max":0,"o":"m 450 617 "},"Ы":{"ha":360,"x_min":0,"x_max":0,"o":"m 450 617 "},"Ъ":{"ha":262,"x_min":0,"x_max":0,"o":"m 45 823 l 305 823 l 305 0 l -159 0 "},"Љ":{"ha":669,"x_min":0,"x_max":0,"o":"m 57 0 l 107 0 b 433 475 327 0 415 113 l 449 817 l 712 817 l 712 0 l 54 0 l 38 -438 b -121 -815 27 -750 -27 -811 l -146 -817 z m 712 -818 "},"Њ":{"ha":667,"x_min":0,"x_max":0,"o":"m 83 0 l 286 0 l 286 456 l 709 456 l 709 0 l 506 0 l 506 -365 l 83 -365 l 83 0 l -121 0 "},"Ѕ":{"ha":39,"x_min":0,"x_max":0,"o":""},"Є":{"ha":94,"x_min":0,"x_max":0,"o":"m 473 -14 b 871 321 707 -14 861 114 l 670 321 b 473 151 665 214 583 151 b 263 399 353 151 272 248 l 572 399 l 572 563 l 263 563 b 475 829 272 724 355 829 b 671 652 585 829 666 762 l 871 652 b 475 996 856 865 701 996 b 64 509 225 996 64 804 l 64 449 b 473 -14 64 168 224 -14 z "},"Э":{"ha":98,"x_min":0,"x_max":0,"o":""},"І":{"ha":-467,"x_min":0,"x_max":0,"o":""},"Ї":{"ha":0,"x_min":0,"x_max":0,"o":""},"Ј":{"ha":0,"x_min":0,"x_max":0,"o":""},"Ћ":{"ha":351,"x_min":0,"x_max":0,"o":"m 799 982 l 45 982 l 45 818 l 281 818 l 281 0 l 481 0 l 481 456 b 680 473 541 467 627 473 b 868 317 810 473 868 431 l 868 0 l 1066 0 l 1066 199 l 1383 199 z "},"Ю":{"ha":580,"x_min":0,"x_max":0,"o":"m 286 982 l 83 982 l 83 0 l 286 0 l 286 395 l 439 395 b 892 -14 475 135 659 -14 b 1013 -88 1213 -14 1013 171 b 544 -517 1013 -332 825 -492 l 395 -517 z m 1252 -581 z "},"Я":{"ha":79,"x_min":0,"x_max":0,"o":"m 833 0 l 833 982 l 449 982 b 96 662 225 982 96 856 b 270 382 96 528 158 430 l 61 0 l 288 0 l 475 349 l 629 349 l 629 0 z m 307 662 b 487 815 307 761 365 815 l 629 815 l 629 514 l 486 514 b 307 662 365 514 307 564 z "},"Ђ":{"ha":302,"x_min":0,"x_max":0,"o":"m 849 982 l 45 982 l 45 814 l 346 814 l 346 0 l 548 0 l 548 426 b 701 441 602 435 656 441 b 880 286 812 441 880 380 b 699 144 880 197 818 144 l 700 -12 b 1088 292 989 -18 1088 123 b 712 590 1088 495 929 590 b 548 571 654 590 599 582 l 548 814 l 849 814 z "},"Ѡ":{"ha":478,"x_min":0,"x_max":0,"o":"m 83 312 b 422 -14 83 100 227 -14 b 658 91 519 -14 604 22 b 891 -14 712 22 793 -14 b 1232 312 1084 -14 1232 100 l 1232 982 l 1027 982 l 1027 312 b 891 151 1027 206 978 151 b 758 312 804 151 758 206 l 758 982 l 556 982 l 556 312 b 422 151 556 206 509 151 b 286 312 335 151 286 208 l 286 982 l 83 982 z "},"Ѣ":{"ha":0,"x_min":0,"x_max":0,"o":""},"Ѥ":{"ha":515,"x_min":0,"x_max":0,"o":"m 929 570 l 640 570 b 876 814 661 739 754 814 b 1097 648 982 814 1067 758 l 1294 674 b 1449 262 1500 674 1449 440 b NaN 76 1449 105 1180 76 l NaN 76 l NaN 488 l NaN 488 l NaN -494 l NaN -494 l NaN -84 l NaN -84 b NaN -507 NaN -353 NaN -507 b NaN -190 NaN -507 NaN -388 l NaN -164 b NaN -326 NaN -273 NaN -326 b NaN -84 NaN -326 NaN -252 l NaN -84 z "},"Ѧ":{"ha":151,"x_min":0,"x_max":0,"o":"m 732 0 l 949 0 l 602 982 l 387 982 z m 138 1123 l -209 141 l -109 449 l -7 141 z "},"Ѩ":{"ha":542,"x_min":0,"x_max":0,"o":"m 277 982 l 73 982 l 73 0 l 277 0 l 277 275 l 503 275 l 406 0 l 496 -275 l 713 -275 l 366 707 l 151 707 l -49 141 l -326 141 z m 157 141 l 258 449 l 359 141 z "},"Ѫ":{"ha":410,"x_min":0,"x_max":0,"o":"m 91 221 b -270 -85 -155 219 -270 123 z m 138 507 l 411 507 l 274 259 z "},"Ѭ":{"ha":816,"x_min":0,"x_max":0,"o":"m 87 0 l 290 0 l 290 361 l 522 361 b 499 221 507 321 499 275 l -71 221 l -71 675 l -274 675 z m 547 507 l 819 507 l 682 259 z "},"Ѯ":{"ha":-74,"x_min":0,"x_max":0,"o":"m 319 982 l 142 982 l 142 818 l 319 818 b 473 704 425 818 473 780 b 323 578 473 631 427 578 l 221 578 l 221 414 l 319 414 b 505 285 438 414 505 373 b 349 151 505 201 445 151 l 305 151 b 64 -47 155 151 64 85 b 286 -296 64 -182 153 -267 l 342 -178 b 245 -75 290 -156 245 -126 b 320 -14 245 -39 269 -14 l 361 -14 b 703 266 567 -14 703 95 b 513 499 703 384 635 462 b 673 734 616 541 673 623 b 319 982 671 899 547 982 z m 328 1263 l 161 1263 l 161 1256 l 370 1070 l 494 1070 l 700 1256 l 700 1263 l 536 1263 l 433 1169 z "},"Ѱ":{"ha":0,"x_min":0,"x_max":0,"o":""},"Ѳ":{"ha":0,"x_min":0,"x_max":0,"o":""},"Ѵ":{"ha":181,"x_min":0,"x_max":0,"o":""},"Ѷ":{"ha":0,"x_min":0,"x_max":0,"o":""},"Ѹ":{"ha":0,"x_min":0,"x_max":0,"o":""},"Җ":{"ha":-221,"x_min":0,"x_max":0,"o":"l 614 0 l 614 134 l 376 134 l 376 330 l 753 330 l 753 161 "},"Ҙ":{"ha":51,"x_min":0,"x_max":0,"o":"m 66 277 b 399 -12 71 117 205 3 b NaN NaN 381 -94 408 NaN l NaN NaN z "},"Қ":{"ha":153,"x_min":0,"x_max":0,"o":"m 677 0 l 754 0 l 754 -231 l 949 -231 l 949 146 l 814 146 "},"Ҝ":{"ha":113,"x_min":0,"x_max":0,"o":"m 345 746 l 345 576 l 285 576 l 285 982 l 83 982 l 83 0 l 285 0 l 285 385 l 345 385 l 345 237 l 458 237 l 458 385 l 496 385 l 690 0 l 935 0 l 654 518 l 910 982 l 670 982 l 481 576 l 458 576 l 458 746 z "},"Ҡ":{"ha":295,"x_min":0,"x_max":0,"o":"m 445 982 l 16 982 l 16 823 l 240 823 l 240 0 l 445 0 l 445 420 l 505 420 l 834 0 l 1086 0 l 685 0 l 685 507 z "},"Ң":{"ha":307,"x_min":0,"x_max":0,"o":"m 83 0 l 286 0 l 286 407 l 712 407 l 712 0 l 911 0 l 911 -190 l 1754 -190 l 1754 -395 z "},"Ҥ":{"ha":513,"x_min":0,"x_max":0,"o":"m 1305 982 l 712 982 l 712 575 l 286 575 l 286 982 l 83 982 l 83 0 l 286 0 l 286 407 l 712 407 l 712 0 l 917 0 l 917 814 l 1305 814 z "},"Ҧ":{"ha":691,"x_min":0,"x_max":0,"o":"m 886 982 l 81 982 l 81 0 l 283 0 l 283 815 l 684 815 l 684 0 l 886 0 l 886 391 l 1016 391 l 1016 260 z "},"Ҩ":{"ha":310,"x_min":0,"x_max":0,"o":"m 1069 -8 l 1069 149 b 954 160 1027 149 989 153 b 1062 471 1023 243 1062 351 l 1062 598 b 747 996 1062 830 935 996 b 456 633 572 996 456 838 l 456 487 b 590 160 456 357 504 245 b 555 159 578 159 567 159 b 289 434 392 159 289 275 l 289 601 b 435 823 289 728 347 823 l 435 997 b 77 600 221 997 77 823 l 77 434 b 555 -14 77 182 269 -14 b 792 37 643 -14 723 4 b 1069 -8 873 7 966 -8 z m 643 486 l 643 635 b 753 823 643 750 688 823 b 861 624 817 823 861 749 l 861 471 b 766 237 861 376 827 293 b 643 486 686 298 643 385 z "},"Ҫ":{"ha":0,"x_min":0,"x_max":0,"o":""},"Ҭ":{"ha":56,"x_min":0,"x_max":0,"o":"m 45 814 l 346 814 l 346 0 l 540 0 l 540 -187 l 1214 -187 l 1214 114 l 1382 114 l 1382 -690 z "},"Ү":{"ha":130,"x_min":0,"x_max":0,"o":""},"Ұ":{"ha":130,"x_min":0,"x_max":0,"o":"m 23 982 l 330 441 l 244 441 l 244 321 l 381 321 l 381 0 l 585 0 l 585 321 l 720 321 l 720 441 l 636 441 "},"Ҳ":{"ha":0,"x_min":0,"x_max":0,"o":"l 116 0 l 116 102 l -121 102 l -121 297 l 256 297 l 256 149 "},"Ҵ":{"ha":413,"x_min":0,"x_max":0,"o":"m 696 982 l 45 982 l 45 823 l 271 823 l 271 0 l 1006 0 l 1006 -232 l 1200 -232 l 1213 164 l 1078 164 l 1078 982 l 880 982 l 880 164 l 468 164 l 468 823 l 696 823 z "},"Ҷ":{"ha":0,"x_min":0,"x_max":0,"o":""},"Ҹ":{"ha":153,"x_min":0,"x_max":0,"o":"m 553 703 l 439 703 l 439 514 b 319 665 357 528 319 573 l 319 982 l 121 982 l 121 665 b 439 347 121 465 243 365 l 439 194 l 553 194 l 553 346 b 705 365 602 349 661 355 l 705 0 l 906 0 l 906 982 l 705 982 l 705 526 b 553 510 661 518 602 512 z "},"Һ":{"ha":153,"x_min":0,"x_max":0,"o":"m 868 0 l 868 363 l 667 363 l 667 -618 l 868 -618 l 868 -163 b 1066 -145 927 -151 1014 -145 b 1255 -301 1196 -145 1255 -187 l 1255 -618 z "},"Ҽ":{"ha":0,"x_min":0,"x_max":0,"o":"b -411 479 0 309 -256 479 b -24 619 -129 479 -24 599 b NaN NaN -24 649 35 NaN l NaN NaN "},"Ҿ":{"ha":0,"x_min":0,"x_max":0,"o":"b -358 429 0 309 -214 429 b -195 NaN -154 429 -195 NaN l -195 NaN l 1 NaN l 1 NaN b 218 NaN 85 NaN 170 NaN l 184 NaN "},"Ӏ":{"ha":-467,"x_min":0,"x_max":0,"o":""},"Ӂ":{"ha":0,"x_min":0,"x_max":0,"o":""},"Ӄ":{"ha":92,"x_min":0,"x_max":0,"o":"m 281 393 l 465 393 b 677 152 598 393 680 301 b 499 -77 675 9 608 -77 l 500 -233 b 876 161 734 -233 876 -84 b 549 533 875 369 754 505 l 872 982 l 631 982 l 351 576 l 281 576 l 281 982 l 83 982 l 83 0 l 281 0 z "},"Ӆ":{"ha":0,"x_min":0,"x_max":0,"o":"l 140 0 l 140 142 l -18 142 l -18 1013 l -682 1013 l -698 575 b -857 198 -709 301 -748 208 l -885 195 "},"Ӈ":{"ha":163,"x_min":0,"x_max":0,"o":"m 712 407 l 712 -37 b 591 -126 712 -110 652 -126 b 534 -122 575 -126 549 -123 l 534 -285 b 609 -290 544 -288 579 -290 b 916 -49 879 -290 916 -142 l 916 0 l 917 0 l 917 982 l 712 982 l 712 0 l 916 0 l 916 407 z "},"Ӊ":{"ha":279,"x_min":0,"x_max":0,"o":"m 83 0 l 286 0 l 286 407 l 712 407 l 712 0 l 863 0 l 863 -205 z "},"Ӌ":{"ha":0,"x_min":0,"x_max":0,"o":""},"Ӎ":{"ha":0,"x_min":0,"x_max":0,"o":"l 474 0 l 474 83 l 618 83 l 618 -170 l 345 -836 l 334 -836 l 62 -170 "},"Ӑ":{"ha":0,"x_min":0,"x_max":0,"o":""},"Ӓ":{"ha":0,"x_min":0,"x_max":0,"o":""},"Ӕ":{"ha":0,"x_min":0,"x_max":0,"o":""},"Ӗ":{"ha":0,"x_min":0,"x_max":0,"o":""},"Ә":{"ha":111,"x_min":0,"x_max":0,"o":"m -160 -633 l -160 -613 l 277 -613 b 47 -829 262 -741 185 -829 b -160 -633 -90 -829 -159 -749 z "},"Ӛ":{"ha":111,"x_min":0,"x_max":0,"o":"m -366 -722 l -366 -808 l -278 -808 l -278 -788 l 159 -788 b -71 -1004 144 -916 67 -1004 b -278 -808 -208 -1004 -277 -924 z "},"Ӝ":{"ha":0,"x_min":0,"x_max":0,"o":""},"Ӟ":{"ha":0,"x_min":0,"x_max":0,"o":""},"Ӡ":{"ha":0,"x_min":0,"x_max":0,"o":""},"Ӣ":{"ha":0,"x_min":0,"x_max":0,"o":""},"Ӥ":{"ha":0,"x_min":0,"x_max":0,"o":""},"Ӧ":{"ha":0,"x_min":0,"x_max":0,"o":""},"Ө":{"ha":0,"x_min":0,"x_max":0,"o":""},"Ӫ":{"ha":0,"x_min":0,"x_max":0,"o":""},"Ӭ":{"ha":0,"x_min":0,"x_max":0,"o":""},"Ӯ":{"ha":0,"x_min":0,"x_max":0,"o":""},"Ӱ":{"ha":0,"x_min":0,"x_max":0,"o":""},"Ӳ":{"ha":0,"x_min":0,"x_max":0,"o":""},"Ӵ":{"ha":0,"x_min":0,"x_max":0,"o":""},"Ӹ":{"ha":420,"x_min":0,"x_max":0,"o":"m 458 617 l 294 617 l 294 982 l 91 982 l 91 0 l 458 0 b 834 313 690 0 834 127 b 458 617 834 498 690 617 "},"Ӻ":{"ha":-60,"x_min":0,"x_max":0,"o":"m 732 982 l 732 332 l 932 332 l 932 529 l 742 529 l 742 810 l 978 810 l 978 1256 z "},"Ӽ":{"ha":0,"x_min":0,"x_max":0,"o":"l 116 0 l 116 122 l 97 122 b 12 11 97 50 63 11 b -55 20 -14 11 -35 15 l -64 -137 b 33 -146 -29 -145 -2 -146 b 291 122 195 -146 291 -49 l 291 319 l 100 319 "},"Ӿ":{"ha":116,"x_min":0,"x_max":0,"o":"m 271 982 l 39 982 l 302 555 l 236 555 l 236 435 l 308 435 l 34 0 l -237 435 l -172 435 l -172 555 l -233 555 l 27 982 l -203 982 l -406 644 l -412 644 z "},"Ҁ":{"ha":56,"x_min":0,"x_max":0,"o":"m 586 151 l 452 151 b 277 381 339 151 277 243 l 277 601 b 454 830 277 742 324 830 b 616 661 552 830 616 780 l 822 661 b 456 996 822 878 673 996 b 72 600 209 996 72 838 l 72 381 b 381 -8 72 172 191 21 l 381 -236 l 586 -236 z "},"Ҍ":{"ha":0,"x_min":0,"x_max":0,"o":""},"Ҏ":{"ha":47,"x_min":0,"x_max":0,"o":"m 498 644 l 411 589 l 477 488 b 434 484 463 486 449 484 l 290 484 l 290 815 l 434 815 b 613 651 555 815 613 749 b 571 533 613 602 599 562 z m 87 0 l 290 0 l 290 320 l 467 320 b 578 332 507 320 543 324 l 652 216 l 739 273 l 675 372 b 823 651 771 427 823 526 b 472 982 823 845 696 982 l 87 982 z "},"а":{"ha":0,"x_min":0,"x_max":0,"o":""},"б":{"ha":-21,"x_min":0,"x_max":0,"o":"m 747 876 l 686 1008 b 453 982 642 975 564 983 b 49 457 187 979 49 811 l 49 397 b 408 -15 49 129 186 -15 b 768 354 629 -15 768 129 b 453 699 768 571 640 699 b 212 559 335 699 255 648 l 203 559 b 460 817 221 739 290 814 b 747 876 610 819 685 825 z m 410 141 b 252 347 312 141 252 220 b 408 547 254 475 312 547 b 563 347 505 547 563 475 b 410 141 563 220 505 141 z "},"в":{"ha":0,"x_min":0,"x_max":0,"o":""},"г":{"ha":-216,"x_min":0,"x_max":0,"o":""},"ѓ":{"ha":0,"x_min":0,"x_max":0,"o":""},"ґ":{"ha":-193,"x_min":0,"x_max":0,"o":"m 604 922 l 419 922 l 419 736 l 79 736 l 79 0 l 274 0 l 274 578 l 604 578 z "},"ӷ":{"ha":-216,"x_min":0,"x_max":0,"o":"m 581 736 l 79 736 l 79 0 l 271 0 l 271 -239 l 467 -239 l 467 138 l 274 138 l 274 578 l 581 578 z "},"ғ":{"ha":0,"x_min":0,"x_max":0,"o":"l -216 0 l -216 195 l 120 195 l 120 335 l 239 335 l 239 195 l 361 195 l 361 502 "},"ҕ":{"ha":-66,"x_min":0,"x_max":0,"o":"m 581 736 l 79 736 l 79 0 l 274 0 l 274 283 l 316 283 b 509 118 429 283 510 228 b 366 -60 507 33 444 -24 l 449 -189 b 700 118 609 -130 701 -9 b 316 441 700 332 541 441 l 274 441 l 274 578 l 581 578 z "},"д":{"ha":58,"x_min":0,"x_max":0,"o":"m 19 -216 l 216 -216 l 216 0 l 670 0 l 670 -216 l 861 -216 l 861 160 l 747 160 l 747 736 l 186 736 l 167 494 b 76 160 155 347 140 201 l 19 160 z m 277 160 b 349 494 321 228 338 336 l 357 582 l 557 582 l 557 160 z "},"е":{"ha":0,"x_min":0,"x_max":0,"o":""},"ѐ":{"ha":0,"x_min":0,"x_max":0,"o":""},"ё":{"ha":0,"x_min":0,"x_max":0,"o":""},"ж":{"ha":338,"x_min":0,"x_max":0,"o":""},"з":{"ha":-136,"x_min":0,"x_max":0,"o":""},"и":{"ha":-20,"x_min":0,"x_max":0,"o":""},"й":{"ha":0,"x_min":0,"x_max":0,"o":""},"ҋ":{"ha":0,"x_min":0,"x_max":0,"o":"l 0 100 l 137 100 l -23 100 l -23 725 l -222 725 "},"ѝ":{"ha":0,"x_min":0,"x_max":0,"o":""},"к":{"ha":-56,"x_min":0,"x_max":0,"o":""},"ќ":{"ha":0,"x_min":0,"x_max":0,"o":""},"л":{"ha":0,"x_min":0,"x_max":0,"o":"l -29 0 l -29 736 l -587 736 l -599 411 b -706 160 -607 222 -635 160 l -730 160 "},"м":{"ha":0,"x_min":0,"x_max":0,"o":"l 0 192 l 189 192 l 189 928 l -52 928 "},"н":{"ha":0,"x_min":0,"x_max":0,"o":"l -45 0 l -45 190 l 691 190 l 691 0 l 404 0 l 404 -256 "},"о":{"ha":-17,"x_min":0,"x_max":0,"o":""},"п":{"ha":0,"x_min":0,"x_max":0,"o":"l -39 0 l -39 736 l -680 736 "},"р":{"ha":9,"x_min":0,"x_max":0,"o":""},"с":{"ha":-54,"x_min":0,"x_max":0,"o":""},"т":{"ha":-93,"x_min":0,"x_max":0,"o":"m 39 578 l 275 578 l 275 0 l 467 0 l 467 578 l 704 578 l 704 736 l 39 736 z "},"у":{"ha":-55,"x_min":0,"x_max":0,"o":""},"ў":{"ha":0,"x_min":0,"x_max":0,"o":""},"ф":{"ha":222,"x_min":0,"x_max":0,"o":"m 429 -250 l 629 -250 l 629 -15 b 1009 366 853 -15 1009 141 b 629 746 1009 591 853 746 l 629 982 l 429 982 l 429 746 b 49 366 203 746 49 591 b 429 -15 49 141 203 -15 z m 429 142 b 254 366 319 142 254 241 b 429 590 254 490 317 590 z m 629 142 l 629 590 b 803 366 741 590 803 490 b 629 142 803 241 741 142 z "},"х":{"ha":-71,"x_min":0,"x_max":0,"o":""},"ч":{"ha":-47,"x_min":0,"x_max":0,"o":""},"ц":{"ha":0,"x_min":0,"x_max":0,"o":"l 39 0 l 39 564 l -79 564 "},"ш":{"ha":313,"x_min":0,"x_max":0,"o":"m 79 736 l 79 0 l 1076 0 l 1076 736 z "},"щ":{"ha":431,"x_min":0,"x_max":0,"o":"m 1229 159 l 1076 159 l 1076 736 l 884 736 l 884 0 l 1836 0 l 1836 -212 l 2021 -212 z "},"џ":{"ha":0,"x_min":0,"x_max":0,"o":"l -39 0 l -39 225 l -276 225 l -276 419 l -39 419 l -39 642 "},"ь":{"ha":0,"x_min":0,"x_max":0,"o":""},"ы":{"ha":0,"x_min":0,"x_max":0,"o":""},"ъ":{"ha":105,"x_min":0,"x_max":0,"o":"m 235 736 l 45 736 l 45 576 l 235 576 "},"љ":{"ha":440,"x_min":0,"x_max":0,"o":"m 62 0 l 122 0 b 373 351 279 0 359 104 l 385 578 l 570 578 l 570 736 l 205 736 l 191 411 b 85 160 184 222 156 160 l 61 160 "},"њ":{"ha":395,"x_min":0,"x_max":0,"o":"m 79 0 l 270 0 l 270 304 l 526 304 l 526 0 l 872 0 b 1181 254 1066 0 1180 103 b 872 500 1180 408 1066 500 l 718 500 l 718 736 l 526 736 l 526 461 l 270 461 l 270 736 l 79 736 z m 718 159 l 718 342 l 872 342 b 991 252 941 342 990 311 b 872 159 990 197 941 159 z "},"ѕ":{"ha":-87,"x_min":0,"x_max":0,"o":""},"є":{"ha":-64,"x_min":0,"x_max":0,"o":"m 442 426 l 236 426 b 393 586 249 524 300 586 b 534 468 475 586 515 538 l 720 499 b 393 746 692 650 566 746 b 39 369 174 746 39 590 b 393 -15 39 145 174 -15 b 719 224 563 -15 686 81 l 530 254 b 393 148 513 193 471 148 b 236 307 300 148 250 210 l 442 307 z "},"э":{"ha":-98,"x_min":0,"x_max":0,"o":""},"і":{"ha":-479,"x_min":0,"x_max":0,"o":""},"ї":{"ha":0,"x_min":0,"x_max":0,"o":""},"ј":{"ha":0,"x_min":0,"x_max":0,"o":""},"ћ":{"ha":0,"x_min":0,"x_max":0,"o":""},"ю":{"ha":276,"x_min":0,"x_max":0,"o":"m 240 736 l 39 736 l 39 0 l 240 0 l 240 285 l 357 285 b 704 -15 386 106 513 -15 b 1058 368 922 -15 1057 144 b 704 746 1057 591 922 746 b 355 444 511 746 383 625 l 240 444 z m 704 148 b 541 368 589 148 541 240 b 704 586 541 495 589 586 b 865 368 819 586 865 495 b 704 148 865 241 819 148 z "},"я":{"ha":-64,"x_min":0,"x_max":0,"o":"m 510 0 l 697 0 l 697 736 l 370 736 b 62 496 180 736 62 640 b 201 298 62 406 113 336 l 41 0 l 233 0 l 377 267 l 510 267 z m 254 491 b 370 579 254 538 294 579 l 510 579 l 510 404 l 368 404 b 254 491 293 404 254 442 z "},"ђ":{"ha":-3,"x_min":0,"x_max":0,"o":"m 556 434 l 556 -46 l 498 -46 l 498 -96 l 483 -96 l 483 -149 l 465 -149 l 465 -165 l 467 -165 l 467 -163 l 450 -163 l 450 353 l 633 353 l 633 491 l 753 491 l 753 353 l 825 353 l 825 157 l 753 157 l 753 15 l 633 15 l 633 157 l -157 157 l -157 358 l 269 358 z "},"ѡ":{"ha":338,"x_min":0,"x_max":0,"o":"m 79 301 b 377 -14 79 95 203 -14 b 591 84 467 -14 543 19 b 800 -14 639 19 711 -14 b 1101 301 977 -14 1101 96 l 1101 736 l 909 736 l 909 301 b 800 145 909 199 871 145 b 688 301 726 145 688 199 l 688 736 l 496 736 l 496 301 b 377 145 496 199 456 145 b 270 301 309 145 270 202 l 270 736 l 79 736 z "},"ѣ":{"ha":5,"x_min":0,"x_max":0,"o":"m 506 838 l 328 838 l 328 1070 l 136 1070 l 136 838 l 28 838 l 28 716 l 136 716 l 136 0 l 343 0 l 343 178 "},"ѥ":{"ha":284,"x_min":0,"x_max":0,"o":"m 789 419 l 570 419 b 728 586 582 521 633 586 b 869 468 810 586 850 540 l 1057 499 b 728 746 1027 650 901 746 b 377 419 526 746 395 613 l 274 419 l 274 736 l 73 736 l 73 0 l 274 0 l 274 297 l 380 297 b 728 -15 405 112 533 -15 b 1054 224 898 -15 1023 81 l 867 254 b 728 148 849 193 804 148 b 574 297 639 148 589 205 l 789 297 z "},"ѧ":{"ha":28,"x_min":0,"x_max":0,"o":"m 411 434 l 433 528 l 453 434 l 500 302 l 365 302 z m 609 0 l 811 0 l 533 732 l 328 732 l 53 0 l 256 0 l 319 175 l 363 175 l 363 0 l 492 0 l 492 175 l 547 175 z "},"ѩ":{"ha":317,"x_min":0,"x_max":0,"o":"m 940 0 l 1142 0 l 864 736 l 658 736 l 496 302 l 275 302 l 275 736 l 76 736 l 76 0 l 275 0 l 275 178 l 449 178 l 382 0 l 585 0 l 647 175 l 696 175 l 696 0 l 818 0 l 818 175 l 878 175 z m 692 302 l 739 438 l 762 537 l 784 438 l 833 302 z "},"ѫ":{"ha":184,"x_min":0,"x_max":0,"o":"m 274 0 l 274 121 b 401 255 274 228 319 255 l 415 255 l 415 0 l 613 0 l 613 255 l 620 255 b 746 121 709 255 746 221 l 746 0 l 945 0 l 945 121 b 692 401 945 302 851 384 l 891 736 l 140 736 l 339 403 b 75 121 171 387 73 306 l 75 0 z m 426 609 l 609 609 l 517 419 z "},"ѭ":{"ha":562,"x_min":0,"x_max":0,"o":"m 271 736 l 71 736 l 71 0 l 271 0 l 271 262 l 467 262 b 441 121 450 224 441 177 l 441 0 l 640 0 l 640 121 b 768 255 640 228 685 255 l 781 255 l 781 0 l 979 0 l 979 255 l 986 255 b 1114 121 1076 255 1114 221 l 1114 0 l 1312 0 l 1312 121 b 1058 401 1312 302 1217 384 l 1257 736 l 506 736 l 703 406 l 271 406 z m 792 609 l 977 609 l 883 418 z "},"ѯ":{"ha":-124,"x_min":0,"x_max":0,"o":"m 260 736 l 85 736 l 85 593 l 260 593 b 399 519 355 593 397 572 b 277 434 399 467 355 434 l 164 434 l 164 313 l 271 313 b 429 224 376 313 429 285 b 282 130 430 161 378 130 l 244 130 b 22 -46 100 130 20 66 b 224 -285 22 -153 100 -244 l 279 -178 b 194 -76 222 -151 193 -117 b 279 -14 193 -35 222 -14 l 313 -14 b 629 212 511 -14 629 81 b 479 378 629 296 576 350 b 598 545 556 412 597 471 b 260 736 598 674 480 736 z m 258 1017 l 92 1017 l 92 1010 l 301 825 l 423 825 l 631 1010 l 631 1017 l 468 1017 l 362 925 z "},"ѱ":{"ha":0,"x_min":0,"x_max":0,"o":""},"ѳ":{"ha":0,"x_min":0,"x_max":0,"o":""},"ѵ":{"ha":-9,"x_min":0,"x_max":0,"o":""},"ѷ":{"ha":0,"x_min":0,"x_max":0,"o":""},"ѹ":{"ha":0,"x_min":0,"x_max":0,"o":""},"җ":{"ha":-164,"x_min":0,"x_max":0,"o":"l 338 0 l 338 137 l 101 137 l 101 332 l 478 332 l 478 140 "},"ҙ":{"ha":-136,"x_min":0,"x_max":0,"o":"m 235 208 l 39 208 b 300 -12 44 79 149 1 b NaN NaN 282 -94 308 NaN l NaN NaN b NaN NaN NaN NaN NaN NaN b NaN NaN NaN NaN NaN NaN z "},"қ":{"ha":66,"x_min":0,"x_max":0,"o":"m 79 0 l 279 0 l 279 263 l 351 263 l 540 0 l 670 0 l 670 -237 l 865 -237 l 865 140 l 678 140 l 514 140 l 514 363 l 802 363 l 802 163 z "},"ҝ":{"ha":12,"x_min":0,"x_max":0,"o":"m 79 0 l 279 0 l 279 263 l 338 263 l 338 145 l 439 145 l 439 263 l 484 263 l 616 0 l 848 0 l 642 372 l 845 736 l 616 736 l 468 449 l 439 449 l 439 568 l 338 568 l 338 449 l 279 449 l 279 736 l 79 736 z "},"ҡ":{"ha":173,"x_min":0,"x_max":0,"o":"m 509 736 l 39 736 l 39 576 l 308 576 l 308 0 z "},"ң":{"ha":0,"x_min":0,"x_max":0,"o":"l 111 0 l 111 189 l -83 189 l -83 785 l -273 785 l -273 498 l -530 498 "},"ҥ":{"ha":151,"x_min":0,"x_max":0,"o":"m 963 736 l 526 736 l 526 449 l 270 449 l 270 736 l 460 736 l 460 1314 l 707 1314 z "},"ҧ":{"ha":0,"x_min":0,"x_max":0,"o":"l 405 0 l 405 288 l 479 288 b 687 123 599 288 688 235 b 541 -54 686 38 631 -12 l 625 -183 b 876 123 804 -123 876 19 b 479 446 876 340 713 446 l 405 446 l 405 736 l -237 736 "},"ҩ":{"ha":158,"x_min":0,"x_max":0,"o":"m 901 -19 l 901 90 b 793 99 862 90 826 93 b 886 321 852 157 886 235 l 886 439 b 643 746 886 612 789 746 b 411 472 503 746 411 627 l 411 349 b 480 138 411 269 433 197 b 297 347 373 140 297 235 l 297 433 b 388 583 297 518 335 575 l 388 746 b 96 433 213 746 96 612 l 96 347 b 483 -14 96 141 252 -14 b 661 16 549 -14 608 -3 b 901 -19 727 -6 807 -19 z m 548 338 l 548 458 b 621 582 548 533 578 582 b 696 453 666 582 694 530 l 696 332 b 618 182 696 272 667 217 b 548 338 572 224 548 278 z "},"ҫ":{"ha":0,"x_min":0,"x_max":0,"o":""},"ҭ":{"ha":-93,"x_min":0,"x_max":0,"o":"m 39 578 l 275 578 l 275 0 l 463 0 l 463 -239 l 658 -239 l 658 138 l 467 138 l 467 578 l 704 578 l 704 736 l 39 736 z "},"ү":{"ha":0,"x_min":0,"x_max":0,"o":""},"ұ":{"ha":-106,"x_min":0,"x_max":0,"o":"m 20 736 l 228 130 l 127 130 l 127 11 l 269 11 l 270 7 l 270 -277 l 461 -277 l 461 7 l 463 11 l 604 11 l 604 130 l 503 130 "},"ҳ":{"ha":0,"x_min":0,"x_max":0,"o":"l -71 0 l -71 245 l 665 245 l 665 327 l 428 327 l 428 522 l 805 522 l 805 369 l 667 598 l 882 966 l 675 966 l 535 707 "},"ҵ":{"ha":153,"x_min":0,"x_max":0,"o":"m 537 736 l 57 736 l 57 576 l 201 576 l 201 0 l 754 0 l 754 -212 l 940 -212 l 952 159 l 842 159 l 842 736 l 652 736 l 652 159 l 393 159 l 393 576 l 537 576 z "},"ҷ":{"ha":0,"x_min":0,"x_max":0,"o":"l 0 106 l 186 106 l 186 -132 l 381 -132 l 381 245 l 190 245 "},"ҹ":{"ha":-47,"x_min":0,"x_max":0,"o":"m 453 548 l 338 548 l 338 380 b 269 487 289 393 269 426 l 269 738 l 79 738 l 79 487 b 338 217 79 321 175 235 l 338 114 l 453 114 l 453 213 b 525 224 477 215 501 219 l 525 0 l 715 0 l 715 736 l 525 736 l 525 384 b 453 372 500 377 477 374 z "},"һ":{"ha":-3,"x_min":0,"x_max":0,"o":""},"ҽ":{"ha":0,"x_min":0,"x_max":0,"o":"b 109 18 181 0 -25 18 b NaN NaN -17 18 192 NaN b NaN NaN NaN NaN NaN NaN b NaN NaN NaN NaN NaN NaN b NaN NaN NaN NaN NaN NaN "},"ҿ":{"ha":0,"x_min":0,"x_max":0,"o":"b -125 301 181 16 -5 126 b NaN NaN -147 283 -230 308 l NaN NaN b NaN NaN NaN NaN NaN NaN b NaN NaN NaN NaN NaN NaN b NaN NaN NaN NaN NaN NaN "},"ӏ":{"ha":-467,"x_min":0,"x_max":0,"o":""},"ӂ":{"ha":0,"x_min":0,"x_max":0,"o":""},"ӄ":{"ha":-3,"x_min":0,"x_max":0,"o":"m 79 0 l 279 0 l 279 263 l 382 263 b 590 102 510 263 591 199 b 448 -68 589 26 533 -41 l 530 -203 b 780 102 681 -149 780 -28 b 532 391 780 245 686 351 l 777 736 l 540 736 l 338 449 l 279 449 l 279 736 l 79 736 z "},"ӆ":{"ha":0,"x_min":0,"x_max":0,"o":"l 96 0 l 96 138 l -64 138 l -64 764 l -622 764 l -634 438 b -741 187 -642 250 -671 187 l -766 187 "},"ӈ":{"ha":-45,"x_min":0,"x_max":0,"o":"m 716 -31 l 716 736 l 526 736 l 526 449 l 270 449 l 270 736 l 269 736 l 269 705 b 180 608 269 639 232 608 b 111 614 157 608 136 608 l 102 458 b 202 449 137 450 165 449 b 460 705 361 449 460 536 z "},"ӊ":{"ha":0,"x_min":0,"x_max":0,"o":"l 78 0 l 78 136 l 32 -122 l 177 -122 l 292 245 l 132 245 l 132 872 l -58 872 l -58 585 l -314 585 "},"ӌ":{"ha":-47,"x_min":0,"x_max":0,"o":"m -191 138 l -387 138 l -387 -239 l -191 -239 z "},"ӎ":{"ha":0,"x_min":0,"x_max":0,"o":"l 0 317 l 136 317 l -26 317 l -26 942 l -266 942 "},"ӑ":{"ha":0,"x_min":0,"x_max":0,"o":""},"ӓ":{"ha":0,"x_min":0,"x_max":0,"o":""},"ӕ":{"ha":0,"x_min":0,"x_max":0,"o":""},"ӗ":{"ha":0,"x_min":0,"x_max":0,"o":""},"ә":{"ha":0,"x_min":0,"x_max":0,"o":""},"ӛ":{"ha":0,"x_min":0,"x_max":0,"o":""},"ӝ":{"ha":0,"x_min":0,"x_max":0,"o":""},"ӟ":{"ha":0,"x_min":0,"x_max":0,"o":""},"ӡ":{"ha":0,"x_min":0,"x_max":0,"o":""},"ӣ":{"ha":0,"x_min":0,"x_max":0,"o":""},"ӥ":{"ha":0,"x_min":0,"x_max":0,"o":""},"ӧ":{"ha":0,"x_min":0,"x_max":0,"o":""},"ө":{"ha":0,"x_min":0,"x_max":0,"o":""},"ӫ":{"ha":0,"x_min":0,"x_max":0,"o":""},"ӭ":{"ha":0,"x_min":0,"x_max":0,"o":""},"ӯ":{"ha":0,"x_min":0,"x_max":0,"o":""},"ӱ":{"ha":0,"x_min":0,"x_max":0,"o":""},"ӳ":{"ha":0,"x_min":0,"x_max":0,"o":""},"ӵ":{"ha":0,"x_min":0,"x_max":0,"o":""},"ӹ":{"ha":0,"x_min":0,"x_max":0,"o":""},"ӻ":{"ha":0,"x_min":0,"x_max":0,"o":"l 0 -216 l 1 -216 l 1 139 l 141 139 l 141 258 l 1 258 l 1 380 l 308 380 "},"ӽ":{"ha":-98,"x_min":0,"x_max":0,"o":"m 30 0 l 239 0 l 372 224 l 456 88 b 505 -35 492 27 507 -3 b 414 -130 506 -100 465 -130 b 355 -121 396 -130 370 -126 l 346 -278 b 442 -288 380 -286 408 -288 b 697 -72 605 -288 689 -187 b 606 183 704 31 644 118 l 496 369 l 707 736 l 500 736 l 372 509 l 245 736 l 38 736 l 245 369 z "},"ӿ":{"ha":-71,"x_min":0,"x_max":0,"o":"m 245 736 l 38 736 l 214 431 l 144 431 l 144 312 l 216 312 l 30 312 l 30 0 l 236 0 l 49 312 l 121 312 l 121 431 l 52 431 l 231 736 l 23 736 l -117 477 z "},"ҁ":{"ha":-71,"x_min":0,"x_max":0,"o":"m 532 145 l 403 145 b 260 347 290 145 260 245 l 260 372 b 397 587 260 486 292 587 b 515 446 476 587 517 532 l 704 446 b 401 746 704 639 582 746 b 64 372 180 746 64 587 l 64 347 b 332 -8 64 168 155 22 l 332 -239 l 532 -239 z "},"ҍ":{"ha":5,"x_min":0,"x_max":0,"o":"m 506 962 l 328 962 l 328 1070 l 136 1070 l 136 962 l 28 962 l 28 838 l 136 838 l 136 0 l 465 0 l 465 178 "},"ҏ":{"ha":-18,"x_min":0,"x_max":0,"o":"m 477 311 l 408 254 l 490 157 b 435 148 473 151 455 148 b 324 72 374 148 362 95 z m -151 -422 l 50 -422 l 50 -27 l 56 -27 b 168 -4 96 -27 134 -20 l 224 -72 l 296 -14 l 245 46 b 354 353 312 110 354 214 b 56 731 354 605 218 731 b -155 598 -68 731 -127 658 l -163 598 l -163 722 l -361 722 z "},"ԯ":{"ha":0,"x_min":0,"x_max":0,"o":"l 130 0 l 130 -275 l 325 -275 l 325 102 l 130 102 l 130 736 l -428 736 l -440 411 b -547 160 -448 222 -477 160 l -572 160 "},"Α":{"ha":0,"x_min":0,"x_max":0,"o":""},"Β":{"ha":48,"x_min":0,"x_max":0,"o":""},"Γ":{"ha":0,"x_min":0,"x_max":0,"o":""},"Δ":{"ha":161,"x_min":0,"x_max":0,"o":"m 27 0 l 968 0 l 629 982 l 368 982 z m 300 168 l 495 761 l 502 761 l 696 168 z "},"∆":{"ha":161,"x_min":0,"x_max":0,"o":"m 27 0 l 968 0 l 629 982 l 368 982 z m 300 168 l 495 761 l 502 761 l 696 168 z "},"Ε":{"ha":-18,"x_min":0,"x_max":0,"o":""},"Ζ":{"ha":54,"x_min":0,"x_max":0,"o":""},"Η":{"ha":163,"x_min":0,"x_max":0,"o":""},"Θ":{"ha":210,"x_min":0,"x_max":0,"o":"m 693 557 l 353 557 l 353 425 l 693 425 z "},"Ι":{"ha":-467,"x_min":0,"x_max":0,"o":""},"Κ":{"ha":85,"x_min":0,"x_max":0,"o":""},"Λ":{"ha":161,"x_min":0,"x_max":0,"o":"m 247 0 l 495 761 l 502 761 z "},"Μ":{"ha":390,"x_min":0,"x_max":0,"o":""},"Ν":{"ha":149,"x_min":0,"x_max":0,"o":""},"Ξ":{"ha":31,"x_min":0,"x_max":0,"o":"m 99 0 l 768 0 l 768 164 l 99 164 z m 180 418 l 690 418 l 690 575 l 180 575 z m 117 815 l 739 815 l 739 982 l 117 982 z "},"Ο":{"ha":210,"x_min":0,"x_max":0,"o":""},"Π":{"ha":0,"x_min":0,"x_max":0,"o":""},"Ρ":{"ha":0,"x_min":0,"x_max":0,"o":""},"Σ":{"ha":60,"x_min":0,"x_max":0,"o":"m 799 170 l 384 170 l 613 484 l 613 494 l 384 808 l 784 808 l 784 978 l 98 978 l 98 876 l 395 488 l 98 100 l 98 0 l 799 0 z "},"Τ":{"ha":56,"x_min":0,"x_max":0,"o":""},"Υ":{"ha":130,"x_min":0,"x_max":0,"o":""},"Φ":{"ha":295,"x_min":0,"x_max":0,"o":"m 666 982 l 471 982 l 471 861 b 76 484 238 854 76 709 b 471 121 75 268 238 128 l 471 0 l 666 0 l 666 122 b 1057 486 897 130 1057 270 b 666 861 1055 709 896 852 z m 270 484 b 471 685 270 610 355 677 l 471 300 b 270 484 354 305 270 367 z m 666 300 l 666 685 b 864 486 781 677 864 612 b 666 300 864 369 781 306 z "},"Χ":{"ha":116,"x_min":0,"x_max":0,"o":""},"Ψ":{"ha":0,"x_min":0,"x_max":0,"o":""},"Ω":{"ha":205,"x_min":0,"x_max":0,"o":""},"Ω":{"ha":205,"x_min":0,"x_max":0,"o":""},"Ά":{"ha":0,"x_min":0,"x_max":0,"o":""},"Έ":{"ha":210,"x_min":0,"x_max":0,"o":"m 311 0 l 971 0 l 971 168 "},"Ή":{"ha":406,"x_min":0,"x_max":0,"o":"m 326 0 "},"Ί":{"ha":0,"x_min":0,"x_max":0,"o":""},"Ό":{"ha":0,"x_min":0,"x_max":0,"o":""},"Ύ":{"ha":452,"x_min":0,"x_max":0,"o":"m 290 982 l 648 350 "},"Ώ":{"ha":260,"x_min":0,"x_max":0,"o":"m 114 0 "},"Ϊ":{"ha":0,"x_min":0,"x_max":0,"o":""},"Ϋ":{"ha":0,"x_min":0,"x_max":0,"o":""},"Ͱ":{"ha":62,"x_min":0,"x_max":0,"o":"m 779 574 l 328 574 l 328 982 l 121 982 l 121 0 l 328 0 l 328 410 l 779 410 z "},"Ͳ":{"ha":60,"x_min":0,"x_max":0,"o":"m 856 594 l 856 982 l 52 982 l 52 594 l 220 594 l 220 814 l 353 814 l 353 0 l 555 0 l 555 814 l 689 814 l 689 594 z "},"Ͷ":{"ha":200,"x_min":0,"x_max":0,"o":"m 107 982 l 107 0 l 283 0 l 716 624 z "},"Ϙ":{"ha":181,"x_min":0,"x_max":0,"o":"m 954 490 b 510 996 954 811 762 996 b 64 490 256 996 64 811 b 408 -3 64 215 207 40 l 408 -274 l 612 -274 l 612 -3 b 954 490 812 40 954 214 z m 749 490 b 510 168 749 262 648 168 b 269 490 372 168 269 262 b 510 814 269 715 370 814 b 749 490 648 814 749 716 z "},"Ϛ":{"ha":185,"x_min":0,"x_max":0,"o":"m 564 -102 l 566 -259 b 879 -27 760 -256 879 -168 b 731 161 879 66 829 130 l 500 235 b 317 509 376 275 317 361 l 317 567 b 529 826 317 739 387 826 b 709 655 643 826 700 774 l 914 655 b 524 996 895 865 745 996 b 107 566 277 996 107 822 l 107 509 b 414 71 107 274 213 130 l 609 12 b 670 -43 654 -1 670 -16 b 564 -102 670 -83 633 -102 z "},"Ϝ":{"ha":63,"x_min":0,"x_max":0,"o":"m 720 553 l 703 553 l 703 575 l 316 575 l 316 814 l 770 814 l 770 982 l 111 982 l 111 0 l 316 0 l 316 407 l 553 407 l 553 247 l 720 247 z "},"Ϟ":{"ha":151,"x_min":0,"x_max":0,"o":"m 161 130 l 659 488 l 642 256 b 639 159 637 221 636 187 b 871 -14 647 49 726 -14 b 935 -8 888 -14 917 -12 l 947 136 b 918 134 937 134 926 134 b 806 205 853 134 815 159 b 806 282 802 220 802 247 l 854 825 l 834 850 l 330 479 l 349 735 b 349 821 351 766 351 796 b 121 996 336 940 266 996 b 54 991 104 996 73 994 l 43 845 b 77 848 52 848 60 848 b 184 772 149 848 179 826 b 184 723 186 757 186 741 l 137 155 z "},"Ϡ":{"ha":286,"x_min":0,"x_max":0,"o":"m 96 566 l 290 566 b 532 827 300 716 381 827 b 750 701 628 827 702 783 l 247 416 l 327 278 l 806 548 b 819 380 814 498 819 441 l 819 378 l 389 137 l 471 -1 l 812 194 b 544 -94 789 12 704 -94 l 544 -288 b 1027 308 854 -288 1027 -60 l 1027 378 b 543 996 1027 757 853 996 b 96 566 245 996 115 785 z "},"Ϗ":{"ha":158,"x_min":0,"x_max":0,"o":"m 300 982 l 94 982 l 94 0 l 300 0 l 300 273 l 406 384 l 652 5 l 506 -119 l 616 -241 l 901 0 l 544 534 l 909 982 l 654 982 l 388 650 l 300 529 z "},"ϒ":{"ha":108,"x_min":0,"x_max":0,"o":""},"ϓ":{"ha":309,"x_min":0,"x_max":0,"o":"m 575 0 l 773 0 l 773 323 l 974 779 b 1040 823 986 806 1008 823 b 1081 821 1053 823 1076 822 l 1105 978 b 1006 996 1076 987 1040 996 b 800 827 907 996 844 941 l 675 514 l 552 833 b 345 996 505 959 435 996 b 245 978 305 996 274 987 l 269 821 b 309 823 273 822 297 823 b 376 779 342 823 363 807 l 575 321 "},"ϔ":{"ha":0,"x_min":0,"x_max":0,"o":""},"ϴ":{"ha":0,"x_min":0,"x_max":0,"o":""},"Ϸ":{"ha":0,"x_min":0,"x_max":0,"o":""},"Ϲ":{"ha":169,"x_min":0,"x_max":0,"o":""},"Ϻ":{"ha":390,"x_min":0,"x_max":0,"o":""},"Ͻ":{"ha":157,"x_min":0,"x_max":0,"o":"m 300 328 l 92 328 b 483 -14 111 123 258 -14 b 901 452 743 -14 901 164 l 901 532 b 490 996 901 818 750 996 b 94 659 267 996 109 871 l 300 659 b 484 826 312 784 380 826 b 690 532 644 826 690 726 l 690 449 b 480 153 690 256 635 153 b 300 328 368 153 311 208 z "},"Ͼ":{"ha":0,"x_min":0,"x_max":0,"o":""},"Ͽ":{"ha":0,"x_min":0,"x_max":0,"o":""},"Ἀ":{"ha":0,"x_min":0,"x_max":0,"o":""},"Ἁ":{"ha":0,"x_min":0,"x_max":0,"o":""},"Ἂ":{"ha":0,"x_min":0,"x_max":0,"o":""},"Ἃ":{"ha":0,"x_min":0,"x_max":0,"o":""},"Ἄ":{"ha":0,"x_min":0,"x_max":0,"o":""},"Ἅ":{"ha":0,"x_min":0,"x_max":0,"o":""},"Ἆ":{"ha":0,"x_min":0,"x_max":0,"o":""},"Ἇ":{"ha":0,"x_min":0,"x_max":0,"o":""},"Ὰ":{"ha":0,"x_min":0,"x_max":0,"o":""},"Ά":{"ha":0,"x_min":0,"x_max":0,"o":""},"Ᾰ":{"ha":0,"x_min":0,"x_max":0,"o":""},"Ᾱ":{"ha":0,"x_min":0,"x_max":0,"o":""},"ᾼ":{"ha":0,"x_min":0,"x_max":0,"o":""},"ᾈ":{"ha":0,"x_min":0,"x_max":0,"o":""},"ᾉ":{"ha":0,"x_min":0,"x_max":0,"o":""},"ᾊ":{"ha":0,"x_min":0,"x_max":0,"o":""},"ᾋ":{"ha":0,"x_min":0,"x_max":0,"o":""},"ᾌ":{"ha":0,"x_min":0,"x_max":0,"o":""},"ᾍ":{"ha":0,"x_min":0,"x_max":0,"o":""},"ᾎ":{"ha":0,"x_min":0,"x_max":0,"o":""},"ᾏ":{"ha":0,"x_min":0,"x_max":0,"o":""},"Ἐ":{"ha":177,"x_min":0,"x_max":0,"o":"m 278 0 l 939 0 l 939 168 "},"Ἑ":{"ha":178,"x_min":0,"x_max":0,"o":"m 279 0 l 940 0 l 940 168 z "},"Ἒ":{"ha":437,"x_min":0,"x_max":0,"o":"m 538 0 l 1199 0 l 1199 168 "},"Ἓ":{"ha":397,"x_min":0,"x_max":0,"o":"m 498 0 l 1158 0 l 1158 168 "},"Ἔ":{"ha":409,"x_min":0,"x_max":0,"o":"m 510 0 l 1171 0 l 1171 168 "},"Ἕ":{"ha":428,"x_min":0,"x_max":0,"o":"m 529 0 l 1190 0 l 1190 168 "},"Ὲ":{"ha":0,"x_min":0,"x_max":0,"o":""},"Έ":{"ha":0,"x_min":0,"x_max":0,"o":""},"Ἠ":{"ha":0,"x_min":0,"x_max":0,"o":""},"Ἡ":{"ha":375,"x_min":0,"x_max":0,"o":""},"Ἢ":{"ha":0,"x_min":0,"x_max":0,"o":""},"Ἣ":{"ha":0,"x_min":0,"x_max":0,"o":""},"Ἤ":{"ha":0,"x_min":0,"x_max":0,"o":""},"Ἥ":{"ha":0,"x_min":0,"x_max":0,"o":""},"Ἦ":{"ha":0,"x_min":0,"x_max":0,"o":""},"Ἧ":{"ha":0,"x_min":0,"x_max":0,"o":""},"Ὴ":{"ha":0,"x_min":0,"x_max":0,"o":""},"Ή":{"ha":0,"x_min":0,"x_max":0,"o":""},"ῌ":{"ha":163,"x_min":0,"x_max":0,"o":""},"ᾘ":{"ha":360,"x_min":0,"x_max":0,"o":"m 281 0 "},"ᾙ":{"ha":375,"x_min":0,"x_max":0,"o":""},"ᾚ":{"ha":0,"x_min":0,"x_max":0,"o":""},"ᾛ":{"ha":0,"x_min":0,"x_max":0,"o":""},"ᾜ":{"ha":0,"x_min":0,"x_max":0,"o":""},"ᾝ":{"ha":0,"x_min":0,"x_max":0,"o":""},"ᾞ":{"ha":0,"x_min":0,"x_max":0,"o":""},"ᾟ":{"ha":0,"x_min":0,"x_max":0,"o":""},"Ἰ":{"ha":0,"x_min":0,"x_max":0,"o":""},"Ἱ":{"ha":-281,"x_min":0,"x_max":0,"o":""},"Ἲ":{"ha":0,"x_min":0,"x_max":0,"o":""},"Ἳ":{"ha":0,"x_min":0,"x_max":0,"o":""},"Ἴ":{"ha":0,"x_min":0,"x_max":0,"o":""},"Ἵ":{"ha":0,"x_min":0,"x_max":0,"o":""},"Ἶ":{"ha":0,"x_min":0,"x_max":0,"o":""},"Ἷ":{"ha":0,"x_min":0,"x_max":0,"o":""},"Ὶ":{"ha":0,"x_min":0,"x_max":0,"o":""},"Ί":{"ha":0,"x_min":0,"x_max":0,"o":""},"Ῐ":{"ha":0,"x_min":0,"x_max":0,"o":""},"Ῑ":{"ha":0,"x_min":0,"x_max":0,"o":""},"Ὀ":{"ha":0,"x_min":0,"x_max":0,"o":""},"Ὁ":{"ha":304,"x_min":0,"x_max":0,"o":""},"Ὂ":{"ha":0,"x_min":0,"x_max":0,"o":""},"Ὃ":{"ha":0,"x_min":0,"x_max":0,"o":""},"Ὄ":{"ha":0,"x_min":0,"x_max":0,"o":""},"Ὅ":{"ha":0,"x_min":0,"x_max":0,"o":""},"Ὸ":{"ha":0,"x_min":0,"x_max":0,"o":""},"Ό":{"ha":0,"x_min":0,"x_max":0,"o":""},"Ῥ":{"ha":237,"x_min":0,"x_max":0,"o":"m 275 0 "},"Ὑ":{"ha":382,"x_min":0,"x_max":0,"o":"m 220 982 l 578 350 z "},"Ὓ":{"ha":592,"x_min":0,"x_max":0,"o":"m 431 982 l 789 350 "},"Ὕ":{"ha":671,"x_min":0,"x_max":0,"o":"m 509 982 l 867 350 "},"Ὗ":{"ha":578,"x_min":0,"x_max":0,"o":"m 416 982 l 774 350 "},"Ὺ":{"ha":409,"x_min":0,"x_max":0,"o":"m 247 982 l 605 350 "},"Ύ":{"ha":399,"x_min":0,"x_max":0,"o":"m 237 982 l 595 350 "},"Ῠ":{"ha":0,"x_min":0,"x_max":0,"o":""},"Ῡ":{"ha":0,"x_min":0,"x_max":0,"o":""},"Ὠ":{"ha":0,"x_min":0,"x_max":0,"o":""},"Ὡ":{"ha":326,"x_min":0,"x_max":0,"o":""},"Ὢ":{"ha":0,"x_min":0,"x_max":0,"o":""},"Ὣ":{"ha":0,"x_min":0,"x_max":0,"o":""},"Ὤ":{"ha":0,"x_min":0,"x_max":0,"o":""},"Ὥ":{"ha":0,"x_min":0,"x_max":0,"o":""},"Ὦ":{"ha":0,"x_min":0,"x_max":0,"o":""},"Ὧ":{"ha":0,"x_min":0,"x_max":0,"o":""},"Ὼ":{"ha":328,"x_min":0,"x_max":0,"o":"m 180 0 "},"Ώ":{"ha":267,"x_min":0,"x_max":0,"o":"m 119 0 "},"ῼ":{"ha":205,"x_min":0,"x_max":0,"o":""},"ᾨ":{"ha":0,"x_min":0,"x_max":0,"o":""},"ᾩ":{"ha":326,"x_min":0,"x_max":0,"o":""},"ᾪ":{"ha":532,"x_min":0,"x_max":0,"o":""},"ᾫ":{"ha":0,"x_min":0,"x_max":0,"o":""},"ᾬ":{"ha":0,"x_min":0,"x_max":0,"o":""},"ᾭ":{"ha":0,"x_min":0,"x_max":0,"o":""},"ᾮ":{"ha":0,"x_min":0,"x_max":0,"o":""},"ᾯ":{"ha":0,"x_min":0,"x_max":0,"o":""},"Ϳ":{"ha":0,"x_min":0,"x_max":0,"o":""},"α":{"ha":0,"x_min":0,"x_max":0,"o":""},"β":{"ha":-22,"x_min":0,"x_max":0,"o":"m 407 996 b 79 696 224 996 79 879 l 79 -277 l 273 -277 l 273 52 l 279 54 b 465 -9 334 7 399 -9 b 768 281 635 -9 768 110 b 633 525 768 382 721 473 b 726 732 693 578 726 656 b 407 996 726 892 578 996 z m 273 307 l 273 684 b 407 821 273 770 330 821 b 532 701 483 821 532 770 b 404 579 532 647 499 579 l 359 579 l 359 433 l 425 433 b 575 297 507 433 575 381 b 425 159 575 220 517 159 b 273 307 330 159 273 225 z "},"γ":{"ha":0,"x_min":0,"x_max":0,"o":""},"δ":{"ha":31,"x_min":0,"x_max":0,"o":"m 168 825 b 296 647 168 750 213 690 l 297 643 b 85 349 176 613 84 492 l 85 336 b 435 -14 84 132 220 -14 b 783 347 647 -14 783 136 l 783 359 b 463 741 783 543 681 667 b 358 822 381 769 358 796 b 463 876 358 857 391 876 b 625 846 524 876 586 861 l 625 997 b 448 1027 563 1017 510 1027 b 168 825 275 1027 167 948 z m 282 358 l 282 369 b 435 575 282 486 336 575 b 585 369 522 557 585 464 l 585 358 b 435 145 585 233 533 145 b 282 358 335 145 282 235 z "},"ε":{"ha":0,"x_min":0,"x_max":0,"o":""},"ζ":{"ha":-101,"x_min":0,"x_max":0,"o":"m 677 982 l 47 982 l 47 815 l 418 815 l 281 648 b 98 252 163 506 98 420 b 334 4 98 130 182 42 l 382 -8 b 458 -72 431 -22 460 -45 b 397 -182 457 -100 438 -141 l 498 -258 b 656 -33 600 -189 656 -109 b 458 142 656 45 587 107 l 406 159 b 290 282 331 179 290 224 b 431 567 290 381 340 453 l 677 871 z "},"η":{"ha":-6,"x_min":0,"x_max":0,"o":""},"θ":{"ha":33,"x_min":0,"x_max":0,"o":"m 769 406 l 769 572 b 434 991 769 857 632 991 b 99 572 236 991 99 857 l 99 406 b 437 -14 99 119 236 -14 b 769 406 635 -14 769 119 z m 574 602 l 574 566 l 294 566 l 294 602 b 434 830 294 757 343 830 b 574 602 519 830 574 765 z m 294 381 l 294 414 l 574 414 l 574 381 b 437 149 574 212 519 149 b 294 381 345 149 294 221 z "},"ɩ":{"ha":-414,"x_min":0,"x_max":0,"o":""},"ι":{"ha":-414,"x_min":0,"x_max":0,"o":""},"κ":{"ha":0,"x_min":0,"x_max":0,"o":""},"λ":{"ha":-26,"x_min":0,"x_max":0,"o":"m 701 -12 b 781 -1 728 -12 762 -7 l 762 146 b 742 145 757 146 749 145 b 674 221 707 145 694 167 l 448 817 b 193 996 404 933 315 996 b 84 977 152 996 117 989 l 130 821 b 278 749 217 845 244 831 l 296 705 l 30 0 l 236 0 l 388 444 l 397 444 l 511 121 b 701 -12 545 34 613 -12 z "},"μ":{"ha":54,"x_min":0,"x_max":0,"o":""},"ν":{"ha":10,"x_min":0,"x_max":0,"o":"m 307 0 l 498 0 b 779 736 677 217 773 477 l 583 736 b 426 197 574 522 545 391 l 418 197 l 237 736 l 30 736 z "},"ξ":{"ha":-71,"x_min":0,"x_max":0,"o":"m 627 807 l 656 962 b 461 996 595 985 530 996 b 129 745 258 996 129 899 b 269 556 129 652 176 589 b 69 292 137 513 69 425 b 307 30 69 152 140 76 l 425 -9 b 498 -76 475 -23 498 -45 b 435 -184 498 -102 480 -141 l 537 -260 b 696 -23 628 -197 694 -104 b 510 137 696 54 642 109 l 431 155 b 270 313 319 180 270 231 b 486 473 270 419 346 473 l 582 473 l 582 639 l 480 639 b 327 738 380 639 327 671 b 472 833 327 799 378 833 b 627 807 519 833 563 826 z "},"ο":{"ha":-17,"x_min":0,"x_max":0,"o":""},"π":{"ha":154,"x_min":0,"x_max":0,"o":"m 897 736 l 79 736 l 79 587 l 197 587 l 197 0 l 392 0 l 392 587 l 583 587 l 583 205 b 792 -8 585 53 665 -8 b 913 9 840 -8 880 0 l 913 159 b 856 155 899 157 878 155 b 777 229 804 155 777 170 l 777 587 l 897 587 z "},"ρ":{"ha":-47,"x_min":0,"x_max":0,"o":"m 76 389 "},"ς":{"ha":-71,"x_min":0,"x_max":0,"o":"m 403 746 b 62 366 191 746 62 600 l 62 347 b 370 3 62 163 155 60 b 442 -61 425 -9 442 -28 b 378 -171 442 -94 420 -129 l 483 -247 b 637 -9 568 -183 637 -102 b 431 153 637 60 600 107 b 258 347 304 189 258 240 l 258 366 b 403 587 258 507 308 587 b 517 446 476 587 517 540 l 704 446 b 403 746 704 633 589 746 z "},"σ":{"ha":58,"x_min":0,"x_max":0,"o":"m 80 365 l 80 349 b 427 -14 80 142 205 -14 b 762 323 642 -14 762 134 l 762 336 b 648 555 762 424 713 503 l 815 555 l 815 713 l 426 713 b 80 365 203 713 80 563 z m 279 349 l 279 365 b 426 555 279 468 319 555 b 563 365 529 555 563 468 l 563 349 b 427 145 563 236 529 145 b 279 349 317 145 279 236 z "},"τ":{"ha":-94,"x_min":0,"x_max":0,"o":"m 704 736 l 39 736 l 39 579 l 266 579 l 266 222 b 484 -14 266 64 346 -14 b 612 8 536 -14 571 -8 l 591 157 b 525 146 570 152 555 146 b 461 221 487 146 461 163 l 461 579 l 704 579 z "},"υ":{"ha":-50,"x_min":0,"x_max":0,"o":""},"φ":{"ha":287,"x_min":0,"x_max":0,"o":"m 464 548 l 464 155 b 278 399 321 184 278 280 b 370 644 279 503 312 583 l 235 746 b 83 399 149 681 83 556 b 464 -7 83 203 180 26 l 464 -277 l 651 -277 l 651 -9 b 1040 376 940 18 1040 189 b 692 746 1040 597 895 746 b 464 548 551 746 464 675 z m 651 152 l 651 521 b 705 590 651 562 670 590 b 848 376 791 590 845 499 b 651 152 848 260 793 175 z "},"χ":{"ha":-12,"x_min":0,"x_max":0,"o":"m 46 -277 l 248 -277 l 422 49 l 515 -130 b 770 -277 578 -247 632 -277 l 814 -277 l 814 -121 l 770 -121 b 677 -57 716 -121 708 -117 l 525 231 l 800 736 l 600 736 l 423 415 l 331 591 b 76 741 267 708 213 741 l 33 741 l 33 585 l 76 585 b 170 517 130 585 134 582 l 323 235 z "},"ψ":{"ha":0,"x_min":0,"x_max":0,"o":""},"ω":{"ha":410,"x_min":0,"x_max":0,"o":""},"ί":{"ha":0,"x_min":0,"x_max":0,"o":""},"ϊ":{"ha":0,"x_min":0,"x_max":0,"o":""},"ΐ":{"ha":0,"x_min":0,"x_max":0,"o":""},"ύ":{"ha":0,"x_min":0,"x_max":0,"o":""},"ϋ":{"ha":0,"x_min":0,"x_max":0,"o":""},"ΰ":{"ha":0,"x_min":0,"x_max":0,"o":""},"ό":{"ha":0,"x_min":0,"x_max":0,"o":""},"ώ":{"ha":0,"x_min":0,"x_max":0,"o":""},"ά":{"ha":0,"x_min":0,"x_max":0,"o":""},"έ":{"ha":0,"x_min":0,"x_max":0,"o":""},"ή":{"ha":0,"x_min":0,"x_max":0,"o":""},"ͱ":{"ha":-73,"x_min":0,"x_max":0,"o":"m 411 0 l 411 271 l 716 271 l 716 430 l 411 430 l 411 518 b 155 746 411 708 277 746 b 49 738 113 746 77 742 l 49 605 b 100 609 65 606 81 609 b 212 518 153 609 212 590 l 212 0 z "},"ͳ":{"ha":25,"x_min":0,"x_max":0,"o":"m 796 982 l 65 982 l 65 628 l 225 628 l 225 823 l 334 823 l 334 0 l 530 0 l 530 823 l 636 823 l 636 628 l 796 628 z "},"ͷ":{"ha":58,"x_min":0,"x_max":0,"o":"m 286 0 l 528 457 l 528 236 b 722 -14 528 66 602 -14 b 807 1 751 -14 777 -11 l 788 151 b 776 148 787 149 783 148 b 727 236 743 148 727 172 l 727 736 l 528 736 l 286 282 l 286 736 l 87 736 l 87 0 z "},"ͻ":{"ha":0,"x_min":0,"x_max":0,"o":""},"ͼ":{"ha":-71,"x_min":0,"x_max":0,"o":"m 309 361 b 401 275 309 315 346 275 b 495 361 458 275 495 313 b 401 446 494 410 458 446 b 309 361 346 446 309 410 z m 400 -14 b 705 259 568 -14 704 94 l 518 259 b 397 146 517 186 468 146 b 260 357 277 146 260 255 l 260 376 b 396 587 260 477 277 587 b 518 456 476 587 517 530 l 705 456 b 677 NaN 888 456 677 NaN l 677 NaN b 1017 NaN 677 NaN 791 NaN z "},"ͽ":{"ha":-71,"x_min":0,"x_max":0,"o":"m 247 248 l 60 248 b 366 -14 61 94 184 -14 b 705 357 591 -14 705 146 l 705 376 b 365 746 705 589 591 746 b 60 445 197 746 61 639 l 247 445 b 368 587 250 547 298 587 b 506 376 488 587 506 479 l 506 357 b 369 145 506 255 488 145 b 247 248 290 145 250 202 z m 363 266 b 456 351 419 266 456 301 b 363 435 456 397 419 435 b 270 351 308 435 270 399 b 363 266 271 301 307 266 z "},"ϙ":{"ha":-16,"x_min":0,"x_max":0,"o":"m 403 148 b 240 368 288 148 241 240 b 403 586 241 495 288 586 b 564 368 518 586 566 495 b 403 148 566 240 518 148 z m 49 368 b 301 -1 49 181 143 39 l 301 -275 l 499 -275 l 499 -3 b 757 368 661 37 757 179 b 403 746 757 591 621 746 b 49 368 184 746 49 591 z "},"ϛ":{"ha":-70,"x_min":0,"x_max":0,"o":"m 427 -110 l 427 -263 b 713 -57 582 -262 713 -217 b 579 122 713 49 658 98 l 430 165 b 252 366 327 195 252 241 l 252 404 b 389 587 252 505 278 587 b 511 446 468 587 509 530 l 697 446 b 392 746 696 639 572 746 b 53 400 164 746 53 591 l 53 363 b 308 34 53 148 170 77 l 464 -12 b 514 -60 496 -20 514 -35 b 427 -110 514 -95 481 -110 z "},"ϝ":{"ha":-68,"x_min":0,"x_max":0,"o":"m 681 736 l 88 736 l 88 -274 l 288 -274 l 288 233 l 463 233 l 463 106 l 623 106 l 623 392 l 288 392 l 288 579 l 681 579 z "},"ϟ":{"ha":29,"x_min":0,"x_max":0,"o":"m 780 559 l 327 559 l 510 983 l 300 983 l 87 515 l 87 401 l 549 401 l 373 0 l 585 0 l 780 453 z "},"ϡ":{"ha":180,"x_min":0,"x_max":0,"o":"m 236 1040 l 52 941 b 519 643 257 855 409 760 l 95 404 l 175 266 l 617 517 b 688 377 644 473 667 426 l 241 125 l 321 -14 l 735 221 b 781 -288 768 77 782 -90 l 966 -191 b 236 1040 966 439 812 807 z "},"ϗ":{"ha":182,"x_min":0,"x_max":0,"o":"m 307 0 l 640 441 b 675 262 647 366 661 309 b 781 -22 719 125 781 62 b 656 -114 781 -81 745 -114 b 625 -110 650 -114 636 -113 l 625 -255 b 712 -263 655 -260 686 -263 b 956 -43 902 -263 956 -132 b 822 343 956 103 879 176 b 779 624 798 412 783 503 l 864 736 l 711 736 l 378 298 l 378 513 b 165 746 378 640 334 746 b 62 736 134 746 88 742 l 62 593 b 113 598 79 597 98 598 b 212 513 167 598 212 579 l 212 77 l 153 0 z "},"ϐ":{"ha":60,"x_min":0,"x_max":0,"o":"m 498 609 b 264 521 404 609 327 581 b 283 682 264 577 271 633 b 481 651 361 659 427 651 b 741 842 658 651 741 745 b 499 1027 741 947 656 1027 b 103 483 263 1027 103 825 l 103 442 b 458 -14 103 141 225 -14 b 795 304 670 -14 795 123 b 498 609 795 490 682 609 z m 450 449 b 597 304 548 449 597 401 b 449 145 597 206 548 145 b 302 304 351 145 302 206 b 450 449 302 403 365 449 z m 335 804 b 472 880 368 851 414 880 b 555 826 528 880 555 857 b 465 780 555 798 519 780 b 335 804 428 780 380 789 z "},"ϑ":{"ha":58,"x_min":0,"x_max":0,"o":"m 819 378 l 811 544 l 742 533 l 742 715 b 491 996 742 891 646 996 b 228 727 334 996 228 891 l 228 705 b 534 358 228 526 351 394 l 534 304 b 403 151 534 208 483 151 b 264 304 320 151 264 210 l 264 461 l 77 461 l 77 304 b 408 -14 76 119 212 -14 b 742 304 600 -14 742 111 l 742 359 b 819 378 765 364 791 370 z m 415 715 l 416 739 b 475 819 416 795 439 819 b 534 736 513 819 534 793 l 534 540 b 415 715 456 568 414 631 z "},"ϕ":{"ha":218,"x_min":0,"x_max":0,"o":"m 434 -277 l 620 -277 l 620 -9 b 990 369 856 12 991 157 b 620 745 991 576 854 720 l 620 997 l 434 997 l 434 745 b 64 369 199 720 64 576 b 434 -9 64 157 199 13 z m 259 369 b 434 614 259 496 324 591 l 434 121 b 259 369 324 142 259 240 z m 620 121 l 620 614 b 796 369 730 592 796 496 b 620 121 796 239 730 142 z "},"ϖ":{"ha":412,"x_min":0,"x_max":0,"o":"m 1191 736 l 57 736 l 57 600 l 151 600 b 107 366 123 526 108 448 b 399 -14 106 114 220 -14 b 624 126 507 -14 581 37 b 849 -14 667 37 741 -14 b 1141 366 1028 -14 1142 114 b 1099 600 1140 448 1125 526 l 1191 600 z m 300 366 b 346 600 300 440 313 515 l 903 600 b 947 366 935 515 947 440 b 834 146 947 229 907 146 b 728 327 772 146 728 210 l 728 469 l 519 469 l 519 327 b 414 146 519 210 476 146 b 300 366 340 146 300 229 z "},"ϰ":{"ha":184,"x_min":0,"x_max":0,"o":"m 165 0 l 320 0 l 631 412 l 631 221 b 842 -14 631 104 669 -14 b 947 -3 873 -14 921 -9 l 947 140 b 897 136 929 137 910 136 b 798 220 837 136 798 155 l 798 632 l 876 736 l 723 736 l 391 298 l 391 513 b 179 746 391 640 346 746 b 75 736 145 746 99 742 l 76 593 b 126 598 91 597 109 598 b 224 513 179 598 224 579 l 227 80 z "},"ϱ":{"ha":60,"x_min":0,"x_max":0,"o":"m 570 -313 l 730 -313 b 469 -79 730 -174 659 -114 b 267 123 360 -56 293 4 b 486 39 328 67 400 39 b 795 373 685 39 795 183 l 795 393 b 449 746 795 602 671 746 b 103 359 228 746 104 591 l 103 343 l 103 342 l 103 323 b 434 -231 103 -20 228 -186 b 570 -313 533 -252 570 -266 z m 449 198 b 301 373 339 198 301 281 l 301 393 b 449 587 301 503 338 587 b 597 393 564 587 597 498 l 597 373 b 449 198 597 279 559 198 z "},"ϲ":{"ha":-54,"x_min":0,"x_max":0,"o":""},"ϳ":{"ha":0,"x_min":0,"x_max":0,"o":""},"ϵ":{"ha":-197,"x_min":0,"x_max":0,"o":"m 389 149 b 252 293 295 149 262 217 l 496 293 l 496 434 l 252 434 b 389 578 262 521 299 578 l 593 578 l 593 736 l 389 736 b 49 374 164 736 49 581 l 49 354 b 389 -9 49 146 163 -9 l 593 -9 l 593 149 z "},"ϸ":{"ha":0,"x_min":0,"x_max":0,"o":""},"ϻ":{"ha":182,"x_min":0,"x_max":0,"o":"m 507 232 l 319 736 l 73 736 l 73 -274 l 273 -274 l 273 438 l 442 0 l 575 0 l 747 446 l 747 0 l 948 0 l 948 736 l 697 736 z "},"ϼ":{"ha":-47,"x_min":0,"x_max":0,"o":"m 76 389 "},"ἀ":{"ha":0,"x_min":0,"x_max":0,"o":""},"ἁ":{"ha":0,"x_min":0,"x_max":0,"o":""},"ἂ":{"ha":0,"x_min":0,"x_max":0,"o":""},"ἃ":{"ha":0,"x_min":0,"x_max":0,"o":""},"ἄ":{"ha":0,"x_min":0,"x_max":0,"o":""},"ἅ":{"ha":0,"x_min":0,"x_max":0,"o":""},"ἆ":{"ha":35,"x_min":0,"x_max":0,"o":"m 263 1192 l 182 1217 l 151 1196 l 126 1171 l 208 1147 b 254 1204 208 1179 227 1204 b 411 1160 312 1204 340 1160 b 522 1279 476 1160 522 1215 z m 389 1074 l 389 1126 l 282 1126 l 282 1077 b 236 978 282 1040 275 1001 l 292 930 b 389 1074 349 956 389 1008 "},"ἇ":{"ha":0,"x_min":0,"x_max":0,"o":""},"ὰ":{"ha":0,"x_min":0,"x_max":0,"o":""},"ά":{"ha":0,"x_min":0,"x_max":0,"o":""},"ᾶ":{"ha":0,"x_min":0,"x_max":0,"o":""},"ᾰ":{"ha":0,"x_min":0,"x_max":0,"o":""},"ᾱ":{"ha":0,"x_min":0,"x_max":0,"o":""},"ᾳ":{"ha":0,"x_min":0,"x_max":0,"o":""},"ᾲ":{"ha":0,"x_min":0,"x_max":0,"o":""},"ᾴ":{"ha":0,"x_min":0,"x_max":0,"o":""},"ᾀ":{"ha":0,"x_min":0,"x_max":0,"o":""},"ᾁ":{"ha":0,"x_min":0,"x_max":0,"o":""},"ᾂ":{"ha":0,"x_min":0,"x_max":0,"o":""},"ᾃ":{"ha":0,"x_min":0,"x_max":0,"o":""},"ᾄ":{"ha":0,"x_min":0,"x_max":0,"o":""},"ᾅ":{"ha":0,"x_min":0,"x_max":0,"o":""},"ᾆ":{"ha":0,"x_min":0,"x_max":0,"o":""},"ᾇ":{"ha":0,"x_min":0,"x_max":0,"o":""},"ᾷ":{"ha":0,"x_min":0,"x_max":0,"o":""},"ἐ":{"ha":0,"x_min":0,"x_max":0,"o":""},"ἑ":{"ha":0,"x_min":0,"x_max":0,"o":""},"ἒ":{"ha":0,"x_min":0,"x_max":0,"o":""},"ἓ":{"ha":0,"x_min":0,"x_max":0,"o":""},"ἔ":{"ha":0,"x_min":0,"x_max":0,"o":""},"ἕ":{"ha":0,"x_min":0,"x_max":0,"o":""},"ὲ":{"ha":0,"x_min":0,"x_max":0,"o":""},"έ":{"ha":0,"x_min":0,"x_max":0,"o":""},"ἠ":{"ha":0,"x_min":0,"x_max":0,"o":""},"ἡ":{"ha":-6,"x_min":0,"x_max":0,"o":""},"ἢ":{"ha":0,"x_min":0,"x_max":0,"o":""},"ἣ":{"ha":0,"x_min":0,"x_max":0,"o":""},"ἤ":{"ha":0,"x_min":0,"x_max":0,"o":""},"ἥ":{"ha":0,"x_min":0,"x_max":0,"o":""},"ἦ":{"ha":0,"x_min":0,"x_max":0,"o":""},"ἧ":{"ha":0,"x_min":0,"x_max":0,"o":""},"ὴ":{"ha":0,"x_min":0,"x_max":0,"o":""},"ή":{"ha":0,"x_min":0,"x_max":0,"o":""},"ῆ":{"ha":0,"x_min":0,"x_max":0,"o":""},"ῃ":{"ha":-6,"x_min":0,"x_max":0,"o":""},"ῂ":{"ha":0,"x_min":0,"x_max":0,"o":""},"ῄ":{"ha":0,"x_min":0,"x_max":0,"o":""},"ᾐ":{"ha":0,"x_min":0,"x_max":0,"o":""},"ᾑ":{"ha":-6,"x_min":0,"x_max":0,"o":""},"ᾒ":{"ha":0,"x_min":0,"x_max":0,"o":""},"ᾓ":{"ha":0,"x_min":0,"x_max":0,"o":""},"ᾔ":{"ha":0,"x_min":0,"x_max":0,"o":""},"ᾕ":{"ha":0,"x_min":0,"x_max":0,"o":""},"ᾖ":{"ha":0,"x_min":0,"x_max":0,"o":""},"ᾗ":{"ha":0,"x_min":0,"x_max":0,"o":""},"ῇ":{"ha":0,"x_min":0,"x_max":0,"o":""},"ἰ":{"ha":0,"x_min":0,"x_max":0,"o":""},"ἱ":{"ha":-414,"x_min":0,"x_max":0,"o":""},"ἲ":{"ha":0,"x_min":0,"x_max":0,"o":""},"ἳ":{"ha":0,"x_min":0,"x_max":0,"o":""},"ἴ":{"ha":0,"x_min":0,"x_max":0,"o":""},"ἵ":{"ha":0,"x_min":0,"x_max":0,"o":""},"ἶ":{"ha":0,"x_min":0,"x_max":0,"o":""},"ἷ":{"ha":0,"x_min":0,"x_max":0,"o":""},"ὶ":{"ha":0,"x_min":0,"x_max":0,"o":""},"ί":{"ha":0,"x_min":0,"x_max":0,"o":""},"ῖ":{"ha":0,"x_min":0,"x_max":0,"o":""},"ῐ":{"ha":0,"x_min":0,"x_max":0,"o":""},"ῑ":{"ha":0,"x_min":0,"x_max":0,"o":""},"ῒ":{"ha":0,"x_min":0,"x_max":0,"o":""},"ΐ":{"ha":-414,"x_min":0,"x_max":0,"o":"m -123 81 l -477 81 l -477 307 l -372 307 l -270 433 l -412 433 z "},"ῗ":{"ha":0,"x_min":0,"x_max":0,"o":""},"ὀ":{"ha":0,"x_min":0,"x_max":0,"o":""},"ὁ":{"ha":-17,"x_min":0,"x_max":0,"o":""},"ὂ":{"ha":0,"x_min":0,"x_max":0,"o":""},"ὃ":{"ha":0,"x_min":0,"x_max":0,"o":""},"ὄ":{"ha":0,"x_min":0,"x_max":0,"o":""},"ὅ":{"ha":0,"x_min":0,"x_max":0,"o":""},"ὸ":{"ha":0,"x_min":0,"x_max":0,"o":""},"ό":{"ha":0,"x_min":0,"x_max":0,"o":""},"ῤ":{"ha":0,"x_min":0,"x_max":0,"o":""},"ῥ":{"ha":0,"x_min":0,"x_max":0,"o":""},"ὐ":{"ha":0,"x_min":0,"x_max":0,"o":""},"ὑ":{"ha":-50,"x_min":0,"x_max":0,"o":""},"ὒ":{"ha":0,"x_min":0,"x_max":0,"o":""},"ὓ":{"ha":0,"x_min":0,"x_max":0,"o":""},"ὔ":{"ha":0,"x_min":0,"x_max":0,"o":""},"ὕ":{"ha":0,"x_min":0,"x_max":0,"o":""},"ὖ":{"ha":0,"x_min":0,"x_max":0,"o":""},"ὗ":{"ha":0,"x_min":0,"x_max":0,"o":""},"ὺ":{"ha":0,"x_min":0,"x_max":0,"o":""},"ύ":{"ha":0,"x_min":0,"x_max":0,"o":""},"ῦ":{"ha":0,"x_min":0,"x_max":0,"o":""},"ῠ":{"ha":0,"x_min":0,"x_max":0,"o":""},"ῡ":{"ha":0,"x_min":0,"x_max":0,"o":""},"ῢ":{"ha":0,"x_min":0,"x_max":0,"o":""},"ΰ":{"ha":-50,"x_min":0,"x_max":0,"o":"m -123 81 l -274 81 l -274 307 l -168 307 l -66 433 l -209 433 z "},"ῧ":{"ha":0,"x_min":0,"x_max":0,"o":""},"ὠ":{"ha":0,"x_min":0,"x_max":0,"o":""},"ὡ":{"ha":410,"x_min":0,"x_max":0,"o":""},"ὢ":{"ha":0,"x_min":0,"x_max":0,"o":""},"ὣ":{"ha":0,"x_min":0,"x_max":0,"o":""},"ὤ":{"ha":0,"x_min":0,"x_max":0,"o":""},"ὥ":{"ha":0,"x_min":0,"x_max":0,"o":""},"ὦ":{"ha":0,"x_min":0,"x_max":0,"o":""},"ὧ":{"ha":0,"x_min":0,"x_max":0,"o":""},"ὼ":{"ha":0,"x_min":0,"x_max":0,"o":""},"ώ":{"ha":0,"x_min":0,"x_max":0,"o":""},"ῶ":{"ha":0,"x_min":0,"x_max":0,"o":""},"ῳ":{"ha":410,"x_min":0,"x_max":0,"o":""},"ῲ":{"ha":0,"x_min":0,"x_max":0,"o":""},"ῴ":{"ha":0,"x_min":0,"x_max":0,"o":""},"ᾠ":{"ha":0,"x_min":0,"x_max":0,"o":""},"ᾡ":{"ha":410,"x_min":0,"x_max":0,"o":""},"ᾢ":{"ha":0,"x_min":0,"x_max":0,"o":""},"ᾣ":{"ha":0,"x_min":0,"x_max":0,"o":""},"ᾤ":{"ha":0,"x_min":0,"x_max":0,"o":""},"ᾥ":{"ha":0,"x_min":0,"x_max":0,"o":""},"ᾦ":{"ha":0,"x_min":0,"x_max":0,"o":""},"ᾧ":{"ha":0,"x_min":0,"x_max":0,"o":""},"ῷ":{"ha":0,"x_min":0,"x_max":0,"o":""},"ι":{"ha":-446,"x_min":0,"x_max":0,"o":""},"ͺ":{"ha":-446,"x_min":0,"x_max":0,"o":""},"ㄱ":{"ha":0,"x_min":0,"x_max":0,"o":"m 994 830 l 206 830 l 206 690 l 822 690 l 822 167 l 994 167 z "},"ﾡ":{"ha":0,"x_min":0,"x_max":0,"o":"m 994 830 l 206 830 l 206 690 l 822 690 l 822 167 l 994 167 z "},"ㄲ":{"ha":0,"x_min":0,"x_max":0,"o":"m 585 830 l 130 830 l 130 690 l 416 690 l 416 167 l 585 167 z m 1080 833 l 646 833 l 646 693 l 909 693 l 909 167 l 1080 167 z "},"ﾢ":{"ha":0,"x_min":0,"x_max":0,"o":"m 585 830 l 130 830 l 130 690 l 416 690 l 416 167 l 585 167 z m 1080 833 l 646 833 l 646 693 l 909 693 l 909 167 l 1080 167 z "},"ㄳ":{"ha":0,"x_min":0,"x_max":0,"o":"m 551 827 l 132 827 l 132 688 l 380 688 l 380 167 l 551 167 l 551 247 l 617 155 b 831 359 722 196 791 268 b 1044 155 870 268 939 196 l 1135 279 b 914 618 971 336 914 473 l 914 838 l 750 838 l 750 618 b 551 289 749 481 697 351 z "},"ﾣ":{"ha":0,"x_min":0,"x_max":0,"o":"m 551 827 l 132 827 l 132 688 l 380 688 l 380 167 l 551 167 l 551 247 l 617 155 b 831 359 722 196 791 268 b 1044 155 870 268 939 196 l 1135 279 b 914 618 971 336 914 473 l 914 838 l 750 838 l 750 618 b 551 289 749 481 697 351 z "},"ㄴ":{"ha":0,"x_min":0,"x_max":0,"o":"m 1008 324 l 381 324 l 381 830 l 208 830 l 208 186 l 1008 186 z "},"ﾤ":{"ha":0,"x_min":0,"x_max":0,"o":"m 1008 324 l 381 324 l 381 830 l 208 830 l 208 186 l 1008 186 z "},"ㄵ":{"ha":0,"x_min":0,"x_max":0,"o":"m 320 831 l 146 831 l 146 152 l 216 152 b 553 179 349 151 444 153 l 551 206 l 598 145 b 798 362 696 191 760 267 b 901 291 836 266 901 189 b 734 258 901 245 734 313 b 896 NaN 734 413 896 NaN l 896 NaN l 1068 NaN l 1068 NaN l 566 NaN l 566 NaN l 733 NaN l 733 NaN b 558 NaN 733 NaN 691 NaN l 554 NaN b 338 NaN 483 NaN 415 NaN z "},"ﾥ":{"ha":0,"x_min":0,"x_max":0,"o":"m 320 831 l 146 831 l 146 152 l 216 152 b 553 179 349 151 444 153 l 551 206 l 598 145 b 798 362 696 191 760 267 b 901 291 836 266 901 189 b 734 258 901 245 734 313 b 896 NaN 734 413 896 NaN l 896 NaN l 1068 NaN l 1068 NaN l 566 NaN l 566 NaN l 733 NaN l 733 NaN b 558 NaN 733 NaN 691 NaN l 554 NaN b 338 NaN 483 NaN 415 NaN z "},"ㄶ":{"ha":0,"x_min":0,"x_max":0,"o":"m 315 814 l 144 814 l 144 161 l 216 161 b 553 190 346 161 444 163 l 536 327 b 315 300 463 309 394 302 z m 1061 742 l 886 742 l 886 848 l 719 848 l 719 742 l 528 742 l 528 604 l 1061 604 z m 798 572 b 571 350 669 572 570 477 b 798 127 570 221 669 127 b 1021 350 922 127 1021 221 b 798 572 1021 477 922 572 z m 798 438 b 878 350 842 437 878 408 b 798 262 878 293 842 262 b 718 350 751 262 718 293 b 798 438 718 408 751 437 z "},"ﾦ":{"ha":0,"x_min":0,"x_max":0,"o":"m 315 814 l 144 814 l 144 161 l 216 161 b 553 190 346 161 444 163 l 536 327 b 315 300 463 309 394 302 z m 1061 742 l 886 742 l 886 848 l 719 848 l 719 742 l 528 742 l 528 604 l 1061 604 z m 798 572 b 571 350 669 572 570 477 b 798 127 570 221 669 127 b 1021 350 922 127 1021 221 b 798 572 1021 477 922 572 z m 798 438 b 878 350 842 437 878 408 b 798 262 878 293 842 262 b 718 350 751 262 718 293 b 798 438 718 408 751 437 z "},"ㄷ":{"ha":0,"x_min":0,"x_max":0,"o":"m 987 834 l 212 834 l 212 168 l 998 168 l 998 304 l 387 304 l 387 696 l 987 696 z "},"ﾧ":{"ha":0,"x_min":0,"x_max":0,"o":"m 987 834 l 212 834 l 212 168 l 998 168 l 998 304 l 387 304 l 387 696 l 987 696 z "},"ㄸ":{"ha":0,"x_min":0,"x_max":0,"o":"m 567 834 l 161 834 l 161 180 l 233 180 b 587 212 372 180 472 186 l 574 351 b 331 326 492 333 418 327 l 331 696 l 567 696 z m 1039 834 l 637 834 l 637 180 l 1046 180 l 1046 319 l 808 319 l 808 696 l 1039 696 z "},"ﾨ":{"ha":0,"x_min":0,"x_max":0,"o":"m 567 834 l 161 834 l 161 180 l 233 180 b 587 212 372 180 472 186 l 574 351 b 331 326 492 333 418 327 l 331 696 l 567 696 z m 1039 834 l 637 834 l 637 180 l 1046 180 l 1046 319 l 808 319 l 808 696 l 1039 696 z "},"ㄹ":{"ha":0,"x_min":0,"x_max":0,"o":"m 990 848 l 201 848 l 201 711 l 825 711 l 825 579 l 202 579 l 202 167 l 1009 167 l 1009 307 l 366 307 l 366 445 l 990 445 z "},"ﾩ":{"ha":0,"x_min":0,"x_max":0,"o":"m 990 848 l 201 848 l 201 711 l 825 711 l 825 579 l 202 579 l 202 167 l 1009 167 l 1009 307 l 366 307 l 366 445 l 990 445 z "},"ㄺ":{"ha":0,"x_min":0,"x_max":0,"o":"m 572 841 l 145 841 l 145 701 l 401 701 l 401 576 l 145 576 l 145 168 l 229 168 b 648 195 395 168 513 170 l 632 334 b 317 307 527 313 433 307 l 317 437 l 572 437 z m 1048 841 l 613 841 l 613 701 l 878 701 l 878 170 l 1048 170 z "},"ﾪ":{"ha":0,"x_min":0,"x_max":0,"o":"m 572 841 l 145 841 l 145 701 l 401 701 l 401 576 l 145 576 l 145 168 l 229 168 b 648 195 395 168 513 170 l 632 334 b 317 307 527 313 433 307 l 317 437 l 572 437 z m 1048 841 l 613 841 l 613 701 l 878 701 l 878 170 l 1048 170 z "},"ㄻ":{"ha":0,"x_min":0,"x_max":0,"o":"l -408 0 l -408 79 b -26 106 -260 79 -155 81 l -43 240 b -316 216 -138 222 -220 216 l -316 347 l -61 347 m 449 750 l 3 750 l 3 81 l 449 81 z m 155 613 l 298 613 l 298 218 l 155 218 z "},"ﾫ":{"ha":0,"x_min":0,"x_max":0,"o":"l -408 0 l -408 79 b -26 106 -260 79 -155 81 l -43 240 b -316 216 -138 222 -220 216 l -316 347 l -61 347 m 449 750 l 3 750 l 3 81 l 449 81 z m 155 613 l 298 613 l 298 218 l 155 218 z "},"ㄼ":{"ha":0,"x_min":0,"x_max":0,"o":"l -411 0 l -411 77 b -30 106 -260 77 -156 80 l -45 244 b -317 216 -138 224 -220 218 l -317 349 l -62 349 m 153 753 l -5 753 l -5 77 l 448 77 l 448 753 l 285 753 l 285 555 l 153 555 z m 153 218 l 153 415 l 285 415 l 285 218 z "},"ﾬ":{"ha":0,"x_min":0,"x_max":0,"o":"l -411 0 l -411 77 b -30 106 -260 77 -156 80 l -45 244 b -317 216 -138 224 -220 218 l -317 349 l -62 349 m 153 753 l -5 753 l -5 77 l 448 77 l 448 753 l 285 753 l 285 555 l 153 555 z m 153 218 l 153 415 l 285 415 l 285 218 z "},"ㄽ":{"ha":0,"x_min":0,"x_max":0,"o":"m 562 840 l 136 840 l 136 701 l 391 701 l 391 576 l 137 576 l 137 168 l 214 168 b 598 197 368 168 475 171 l 595 222 l 637 164 b 840 363 737 203 802 275 b 1043 164 878 275 943 203 l 1133 286 b 921 623 975 346 921 481 l 921 844 l 758 844 l 758 623 b 587 304 758 494 712 370 l 583 334 b 309 305 492 314 410 307 l 309 437 l 562 437 z "},"ﾭ":{"ha":0,"x_min":0,"x_max":0,"o":"m 562 840 l 136 840 l 136 701 l 391 701 l 391 576 l 137 576 l 137 168 l 214 168 b 598 197 368 168 475 171 l 595 222 l 637 164 b 840 363 737 203 802 275 b 1043 164 878 275 943 203 l 1133 286 b 921 623 975 346 921 481 l 921 844 l 758 844 l 758 623 b 587 304 758 494 712 370 l 583 334 b 309 305 492 314 410 307 l 309 437 l 562 437 z "},"ㄾ":{"ha":0,"x_min":0,"x_max":0,"o":"m 566 840 l 141 840 l 141 701 l 396 701 l 396 576 l 142 576 l 142 168 l 218 168 b 604 198 373 168 480 171 l 589 336 b 315 308 496 315 414 309 l 315 437 l 566 437 z m 1061 840 l 633 840 l 633 165 l 1072 165 l 1072 304 l 804 304 l 804 437 l 1046 437 l 1046 574 l 804 574 l 804 701 l 1061 701 z "},"ﾮ":{"ha":0,"x_min":0,"x_max":0,"o":"m 566 840 l 141 840 l 141 701 l 396 701 l 396 576 l 142 576 l 142 168 l 218 168 b 604 198 373 168 480 171 l 589 336 b 315 308 496 315 414 309 l 315 437 l 566 437 z m 1061 840 l 633 840 l 633 165 l 1072 165 l 1072 304 l 804 304 l 804 437 l 1046 437 l 1046 574 l 804 574 l 804 701 l 1061 701 z "},"ㄿ":{"ha":0,"x_min":0,"x_max":0,"o":"m 553 840 l 142 840 l 142 701 l 384 701 l 384 576 l 144 576 l 144 168 l 220 168 b 595 197 368 168 473 171 l 579 334 b 312 305 490 314 409 307 l 312 437 l 553 437 z m 1096 837 l 605 837 l 605 699 l 666 699 l 666 304 l 602 304 l 602 168 l 1097 168 l 1097 304 l 1038 304 l 1038 699 l 1096 699 z m 814 304 l 814 699 l 886 699 l 886 304 z "},"ﾯ":{"ha":0,"x_min":0,"x_max":0,"o":"m 553 840 l 142 840 l 142 701 l 384 701 l 384 576 l 144 576 l 144 168 l 220 168 b 595 197 368 168 473 171 l 579 334 b 312 305 490 314 409 307 l 312 437 l 553 437 z m 1096 837 l 605 837 l 605 699 l 666 699 l 666 304 l 602 304 l 602 168 l 1097 168 l 1097 304 l 1038 304 l 1038 699 l 1096 699 z m 814 304 l 814 699 l 886 699 l 886 304 z "},"ㅀ":{"ha":0,"x_min":0,"x_max":0,"o":"m 541 840 l 149 840 l 149 707 l 370 707 l 370 579 l 151 579 l 151 168 l 228 168 b 595 194 370 168 476 170 l 579 331 b 323 305 493 313 415 307 l 323 448 l 541 448 z m 1109 764 l 941 764 l 941 873 l 774 873 l 774 764 l 597 764 l 597 624 l 1109 624 z m 853 594 b 627 373 726 594 625 500 b 853 153 625 245 726 152 b 1076 373 979 152 1076 245 b 853 594 1076 500 979 594 z m 853 458 b 930 373 898 458 930 430 b 853 286 930 316 898 286 b 772 373 804 286 772 316 b 853 458 772 430 804 458 z "},"ﾰ":{"ha":0,"x_min":0,"x_max":0,"o":"m 541 840 l 149 840 l 149 707 l 370 707 l 370 579 l 151 579 l 151 168 l 228 168 b 595 194 370 168 476 170 l 579 331 b 323 305 493 313 415 307 l 323 448 l 541 448 z m 1109 764 l 941 764 l 941 873 l 774 873 l 774 764 l 597 764 l 597 624 l 1109 624 z m 853 594 b 627 373 726 594 625 500 b 853 153 625 245 726 152 b 1076 373 979 152 1076 245 b 853 594 1076 500 979 594 z m 853 458 b 930 373 898 458 930 430 b 853 286 930 316 898 286 b 772 373 804 286 772 316 b 853 458 772 430 804 458 z "},"ㅁ":{"ha":0,"x_min":0,"x_max":0,"o":"m 998 829 l 209 829 l 209 176 l 998 176 z m 382 689 l 825 689 l 825 313 l 382 313 z "},"ﾱ":{"ha":0,"x_min":0,"x_max":0,"o":"m 998 829 l 209 829 l 209 176 l 998 176 z m 382 689 l 825 689 l 825 313 l 382 313 z "},"ㅂ":{"ha":0,"x_min":0,"x_max":0,"o":"m 381 848 l 212 848 l 212 165 l 997 165 l 997 848 l 823 848 l 823 650 l 381 650 z m 381 316 l 381 499 l 823 499 l 823 316 z "},"ﾲ":{"ha":0,"x_min":0,"x_max":0,"o":"m 381 848 l 212 848 l 212 165 l 997 165 l 997 848 l 823 848 l 823 650 l 381 650 z m 381 316 l 381 499 l 823 499 l 823 316 z "},"ㅃ":{"ha":0,"x_min":0,"x_max":0,"o":"m 321 836 l 164 836 l 164 168 l 590 168 l 590 836 l 431 836 l 431 643 l 321 643 z m 321 309 l 321 503 l 431 503 l 431 309 z m 791 836 l 631 836 l 631 168 l 1059 168 l 1059 836 l 899 836 l 899 643 l 791 643 z m 791 309 l 791 503 l 899 503 l 899 309 z "},"ﾳ":{"ha":0,"x_min":0,"x_max":0,"o":"m 321 836 l 164 836 l 164 168 l 590 168 l 590 836 l 431 836 l 431 643 l 321 643 z m 321 309 l 321 503 l 431 503 l 431 309 z m 791 836 l 631 836 l 631 168 l 1059 168 l 1059 836 l 899 836 l 899 643 l 791 643 z m 791 309 l 791 503 l 899 503 l 899 309 z "},"ㅄ":{"ha":0,"x_min":0,"x_max":0,"o":"m 935 618 l 935 838 l 772 838 l 772 618 b 590 297 772 486 722 361 l 590 836 l 431 836 l 431 643 l 321 643 l 321 836 l 164 836 l 164 168 l 590 168 l 590 221 l 637 155 b 853 359 743 196 812 268 b 1067 155 892 268 960 196 l 1156 279 b 935 618 993 336 933 473 z m 321 309 l 321 503 l 431 503 l 431 309 z "},"ﾴ":{"ha":0,"x_min":0,"x_max":0,"o":"m 935 618 l 935 838 l 772 838 l 772 618 b 590 297 772 486 722 361 l 590 836 l 431 836 l 431 643 l 321 643 l 321 836 l 164 836 l 164 168 l 590 168 l 590 221 l 637 155 b 853 359 743 196 812 268 b 1067 155 892 268 960 196 l 1156 279 b 935 618 993 336 933 473 z m 321 309 l 321 503 l 431 503 l 431 309 z "},"ㅅ":{"ha":0,"x_min":0,"x_max":0,"o":"m 688 667 l 688 850 l 518 850 l 518 667 b 149 282 517 487 401 335 l 233 145 b 604 406 411 186 535 278 b 974 145 671 278 795 186 l 1055 282 b 688 667 803 335 688 487 z "},"ﾵ":{"ha":0,"x_min":0,"x_max":0,"o":"m 688 667 l 688 850 l 518 850 l 518 667 b 149 282 517 487 401 335 l 233 145 b 604 406 411 186 535 278 b 974 145 671 278 795 186 l 1055 282 b 688 667 803 335 688 487 z "},"ㅆ":{"ha":0,"x_min":0,"x_max":0,"o":"m 476 722 l 476 818 l 302 818 l 302 723 b 73 321 302 567 248 397 l 170 195 b 393 453 282 248 353 341 b 616 180 431 337 500 237 b 841 452 732 235 802 336 b 1066 195 881 340 951 248 l 1160 323 b 932 723 985 397 932 560 l 932 818 l 757 818 l 757 722 b 616 365 755 597 720 459 b 476 722 511 460 476 599 z "},"ﾶ":{"ha":0,"x_min":0,"x_max":0,"o":"m 476 722 l 476 818 l 302 818 l 302 723 b 73 321 302 567 248 397 l 170 195 b 393 453 282 248 353 341 b 616 180 431 337 500 237 b 841 452 732 235 802 336 b 1066 195 881 340 951 248 l 1160 323 b 932 723 985 397 932 560 l 932 818 l 757 818 l 757 722 b 616 365 755 597 720 459 b 476 722 511 460 476 599 z "},"ㅇ":{"ha":0,"x_min":0,"x_max":0,"o":"m 601 852 b 206 502 384 852 205 705 b 601 155 205 301 384 153 b 998 502 821 153 998 301 b 601 852 998 705 821 852 z m 601 703 b 830 502 731 703 830 625 b 601 298 830 380 731 298 b 370 502 472 298 369 380 b 601 703 369 625 472 703 z "},"ﾷ":{"ha":0,"x_min":0,"x_max":0,"o":"m 601 852 b 206 502 384 852 205 705 b 601 155 205 301 384 153 b 998 502 821 153 998 301 b 601 852 998 705 821 852 z m 601 703 b 830 502 731 703 830 625 b 601 298 830 380 731 298 b 370 502 472 298 369 380 b 601 703 369 625 472 703 z "},"ㅈ":{"ha":0,"x_min":0,"x_max":0,"o":"m 690 673 l 690 707 l 1005 707 l 1005 846 l 213 846 l 213 707 l 518 707 l 518 673 b 168 285 517 492 408 339 l 250 152 b 605 425 422 197 542 292 b 960 152 667 292 785 197 l 1040 285 b 690 673 800 339 690 492 z "},"ﾸ":{"ha":0,"x_min":0,"x_max":0,"o":"m 690 673 l 690 707 l 1005 707 l 1005 846 l 213 846 l 213 707 l 518 707 l 518 673 b 168 285 517 492 408 339 l 250 152 b 605 425 422 197 542 292 b 960 152 667 292 785 197 l 1040 285 b 690 673 800 339 690 492 z "},"ㅉ":{"ha":0,"x_min":0,"x_max":0,"o":"m 589 850 l 123 850 l 123 712 l 289 712 b 56 297 283 541 230 373 l 159 160 b 366 380 258 207 324 284 b 616 142 410 269 487 189 b 867 380 745 189 821 269 b 1074 160 908 285 975 208 l 1176 297 b 944 712 1002 376 947 541 l 1107 712 l 1107 850 l 642 850 l 642 712 l 773 712 b 616 331 769 538 731 403 b 460 712 500 403 463 538 l 589 712 z "},"ﾹ":{"ha":0,"x_min":0,"x_max":0,"o":"m 589 850 l 123 850 l 123 712 l 289 712 b 56 297 283 541 230 373 l 159 160 b 366 380 258 207 324 284 b 616 142 410 269 487 189 b 867 380 745 189 821 269 b 1074 160 908 285 975 208 l 1176 297 b 944 712 1002 376 947 541 l 1107 712 l 1107 850 l 642 850 l 642 712 l 773 712 b 616 331 769 538 731 403 b 460 712 500 403 463 538 l 589 712 z "},"ㅊ":{"ha":0,"x_min":0,"x_max":0,"o":"m 703 585 l 703 598 l 1002 598 l 1002 739 l 689 739 l 689 921 l 515 921 l 515 739 l 202 739 l 202 598 l 495 598 l 495 585 b 156 266 495 435 397 307 l 235 133 b 600 385 418 171 540 259 b 964 133 659 259 781 171 l 1043 266 b 703 585 803 307 703 435 z "},"ﾺ":{"ha":0,"x_min":0,"x_max":0,"o":"m 703 585 l 703 598 l 1002 598 l 1002 739 l 689 739 l 689 921 l 515 921 l 515 739 l 202 739 l 202 598 l 495 598 l 495 585 b 156 266 495 435 397 307 l 235 133 b 600 385 418 171 540 259 b 964 133 659 259 781 171 l 1043 266 b 703 585 803 307 703 435 z "},"ㅋ":{"ha":0,"x_min":0,"x_max":0,"o":"m 1006 848 l 228 848 l 228 708 l 831 708 l 831 549 l 195 521 l 216 372 l 831 415 l 831 155 l 1006 155 z "},"ﾻ":{"ha":0,"x_min":0,"x_max":0,"o":"m 1006 848 l 228 848 l 228 708 l 831 708 l 831 549 l 195 521 l 216 372 l 831 415 l 831 155 l 1006 155 z "},"ㅌ":{"ha":0,"x_min":0,"x_max":0,"o":"m 993 837 l 209 837 l 209 165 l 1005 165 l 1005 304 l 380 304 l 380 437 l 983 437 l 983 576 l 380 576 l 380 699 l 993 699 z "},"ﾼ":{"ha":0,"x_min":0,"x_max":0,"o":"m 993 837 l 209 837 l 209 165 l 1005 165 l 1005 304 l 380 304 l 380 437 l 983 437 l 983 576 l 380 576 l 380 699 l 993 699 z "},"ㅍ":{"ha":0,"x_min":0,"x_max":0,"o":"m 1008 837 l 199 837 l 199 699 l 326 699 l 326 293 l 182 293 l 182 155 l 1027 155 l 1027 293 l 886 293 l 886 699 l 1008 699 z m 498 293 l 498 699 l 712 699 l 712 293 z "},"ﾽ":{"ha":0,"x_min":0,"x_max":0,"o":"m 1008 837 l 199 837 l 199 699 l 326 699 l 326 293 l 182 293 l 182 155 l 1027 155 l 1027 293 l 886 293 l 886 699 l 1008 699 z m 498 293 l 498 699 l 712 699 l 712 293 z "},"ㅎ":{"ha":0,"x_min":0,"x_max":0,"o":"m 1016 787 l 693 787 l 693 939 l 521 939 l 521 787 l 193 787 l 193 644 l 1016 644 z m 605 581 b 282 340 418 581 282 480 b 605 99 282 199 418 99 b 930 340 793 99 930 199 b 605 581 930 480 793 581 z m 605 435 b 753 340 690 435 751 401 b 605 243 751 278 690 244 b 460 340 521 244 458 278 b 605 435 458 401 521 435 z "},"ﾾ":{"ha":0,"x_min":0,"x_max":0,"o":"m 1016 787 l 693 787 l 693 939 l 521 939 l 521 787 l 193 787 l 193 644 l 1016 644 z m 605 581 b 282 340 418 581 282 480 b 605 99 282 199 418 99 b 930 340 793 99 930 199 b 605 581 930 480 793 581 z m 605 435 b 753 340 690 435 751 401 b 605 243 751 278 690 244 b 460 340 521 244 458 278 b 605 435 458 401 521 435 z "},"ㅏ":{"ha":0,"x_min":0,"x_max":0,"o":"m 648 1097 l 476 1097 l 476 -122 l 648 -122 l 648 486 l 906 486 l 906 627 l 648 627 z "},"ￂ":{"ha":0,"x_min":0,"x_max":0,"o":"m 648 1097 l 476 1097 l 476 -122 l 648 -122 l 648 486 l 906 486 l 906 627 l 648 627 z "},"ㅐ":{"ha":0,"x_min":0,"x_max":0,"o":"m 857 1101 l 693 1101 l 693 637 l 530 637 l 530 1081 l 368 1081 l 368 -75 l 530 -75 l 530 496 l 693 496 l 693 -121 l 857 -121 z "},"ￃ":{"ha":0,"x_min":0,"x_max":0,"o":"m 857 1101 l 693 1101 l 693 637 l 530 637 l 530 1081 l 368 1081 l 368 -75 l 530 -75 l 530 496 l 693 496 l 693 -121 l 857 -121 z "},"ㅑ":{"ha":0,"x_min":0,"x_max":0,"o":"m 871 788 l 618 788 l 618 1099 l 444 1099 l 444 -122 l 618 -122 l 618 294 l 871 294 l 871 439 l 618 439 l 618 646 l 871 646 z "},"ￄ":{"ha":0,"x_min":0,"x_max":0,"o":"m 871 788 l 618 788 l 618 1099 l 444 1099 l 444 -122 l 618 -122 l 618 294 l 871 294 l 871 439 l 618 439 l 618 646 l 871 646 z "},"ㅒ":{"ha":0,"x_min":0,"x_max":0,"o":"m 850 1099 l 684 1099 l 684 810 l 529 810 l 529 1081 l 924 1081 l 924 1236 l 483 1236 l 483 1402 z m 161 1986 l 161 2195 l 316 2195 l 316 1986 z "},"ￅ":{"ha":0,"x_min":0,"x_max":0,"o":"m 850 1099 l 684 1099 l 684 810 l 529 810 l 529 1081 l 924 1081 l 924 1236 l 483 1236 l 483 1402 z m 161 1986 l 161 2195 l 316 2195 l 316 1986 z "},"ㅓ":{"ha":0,"x_min":0,"x_max":0,"o":"m 811 1100 l 637 1100 l 637 640 l 374 640 l 374 498 l 637 498 l 637 -119 l 811 -119 z "},"ￆ":{"ha":0,"x_min":0,"x_max":0,"o":"m 811 1100 l 637 1100 l 637 640 l 374 640 l 374 498 l 637 498 l 637 -119 l 811 -119 z "},"ㅔ":{"ha":0,"x_min":0,"x_max":0,"o":"m 899 1101 l 734 1101 l 734 -121 l 899 -121 z m 633 1078 l 471 1078 l 471 639 l 289 639 l 289 496 l 471 496 l 471 -81 l 633 -81 z "},"ￇ":{"ha":0,"x_min":0,"x_max":0,"o":"m 899 1101 l 734 1101 l 734 -121 l 899 -121 z m 633 1078 l 471 1078 l 471 639 l 289 639 l 289 496 l 471 496 l 471 -81 l 633 -81 z "},"ㅕ":{"ha":0,"x_min":0,"x_max":0,"o":"m 814 1099 l 642 1099 l 642 800 l 372 800 l 372 659 l 642 659 l 642 454 l 372 454 l 372 311 l 642 311 l 642 -122 l 814 -122 z "},"ￊ":{"ha":0,"x_min":0,"x_max":0,"o":"m 814 1099 l 642 1099 l 642 800 l 372 800 l 372 659 l 642 659 l 642 454 l 372 454 l 372 311 l 642 311 l 642 -122 l 814 -122 z "},"ㅖ":{"ha":0,"x_min":0,"x_max":0,"o":"m 894 1097 l 728 1097 l 728 -122 l 894 -122 z m 633 1077 l 471 1077 l 471 796 l 277 796 l 277 655 l 471 655 l 471 458 l 271 458 l 271 317 l 471 317 l 471 -81 l 633 -81 z "},"ￋ":{"ha":0,"x_min":0,"x_max":0,"o":"m 894 1097 l 728 1097 l 728 -122 l 894 -122 z m 633 1077 l 471 1077 l 471 796 l 277 796 l 277 655 l 471 655 l 471 458 l 271 458 l 271 317 l 471 317 l 471 -81 l 633 -81 z "},"ㅗ":{"ha":0,"x_min":0,"x_max":0,"o":"m 1162 372 l 685 372 l 685 848 l 513 848 l 513 372 l 38 372 l 38 232 l 1162 232 z "},"ￌ":{"ha":0,"x_min":0,"x_max":0,"o":"m 1162 372 l 685 372 l 685 848 l 513 848 l 513 372 l 38 372 l 38 232 l 1162 232 z "},"ㅘ":{"ha":0,"x_min":0,"x_max":0,"o":"m 502 722 l 332 722 l 332 305 b 33 301 226 302 123 301 l 50 160 b 800 210 263 160 548 167 l 785 335 b 502 312 695 324 599 317 z m 1017 1099 l 844 1099 l 844 -125 l 1017 -125 l 1017 480 z "},"ￍ":{"ha":0,"x_min":0,"x_max":0,"o":"m 502 722 l 332 722 l 332 305 b 33 301 226 302 123 301 l 50 160 b 800 210 263 160 548 167 l 785 335 b 502 312 695 324 599 317 z m 1017 1099 l 844 1099 l 844 -125 l 1017 -125 l 1017 480 z "},"ㅙ":{"ha":0,"x_min":0,"x_max":0,"o":"m 449 719 l 290 719 l 290 339 b 45 335 199 336 114 335 l 62 194 b 673 237 227 194 480 203 l 659 363 b 449 346 595 355 523 350 z m 1135 1101 l 968 1101 l 968 614 l 875 614 l 875 1085 l 715 1085 l 715 -77 l 875 -77 l 875 472 l 968 472 l 968 -121 l 1135 -121 z "},"ￎ":{"ha":0,"x_min":0,"x_max":0,"o":"m 449 719 l 290 719 l 290 339 b 45 335 199 336 114 335 l 62 194 b 673 237 227 194 480 203 l 659 363 b 449 346 595 355 523 350 z m 1135 1101 l 968 1101 l 968 614 l 875 614 l 875 1085 l 715 1085 l 715 -77 l 875 -77 l 875 472 l 968 472 l 968 -121 l 1135 -121 z "},"ㅚ":{"ha":0,"x_min":0,"x_max":0,"o":"m 571 712 l 401 712 l 401 335 b 90 332 290 332 184 332 l 111 190 b 869 237 327 190 612 197 l 856 366 b 571 342 764 355 668 347 z m 1093 1103 l 920 1103 l 920 -119 l 1093 -119 z "},"ￏ":{"ha":0,"x_min":0,"x_max":0,"o":"m 571 712 l 401 712 l 401 335 b 90 332 290 332 184 332 l 111 190 b 869 237 327 190 612 197 l 856 366 b 571 342 764 355 668 347 z m 1093 1103 l 920 1103 l 920 -119 l 1093 -119 z "},"ㅛ":{"ha":0,"x_min":0,"x_max":0,"o":"m 1165 338 l 911 338 l 911 840 l 741 840 l 741 338 l 469 338 l 469 840 l 297 840 l 297 338 l 43 338 l 43 197 l 1165 197 z "},"ￒ":{"ha":0,"x_min":0,"x_max":0,"o":"m 1165 338 l 911 338 l 911 840 l 741 840 l 741 338 l 469 338 l 469 840 l 297 840 l 297 338 l 43 338 l 43 197 l 1165 197 z "},"ㅜ":{"ha":0,"x_min":0,"x_max":0,"o":"m 1166 704 l 42 704 l 42 564 l 518 564 l 518 58 l 690 58 l 690 564 l 1166 564 z "},"ￓ":{"ha":0,"x_min":0,"x_max":0,"o":"m 1166 704 l 42 704 l 42 564 l 518 564 l 518 58 l 690 58 l 690 564 l 1166 564 z "},"ㅝ":{"ha":0,"x_min":0,"x_max":0,"o":"m 1126 1103 l 951 1103 l 951 343 l 696 343 l 696 212 l 951 212 l 951 -119 l 1126 -119 z m 57 579 l 77 441 b 368 448 167 442 265 444 l 368 -30 l 541 -30 l 541 457 b 875 492 652 464 765 475 l 863 617 b 57 579 595 585 294 581 z "},"ￔ":{"ha":0,"x_min":0,"x_max":0,"o":"m 1126 1103 l 951 1103 l 951 343 l 696 343 l 696 212 l 951 212 l 951 -119 l 1126 -119 z m 57 579 l 77 441 b 368 448 167 442 265 444 l 368 -30 l 541 -30 l 541 457 b 875 492 652 464 765 475 l 863 617 b 57 579 595 585 294 581 z "},"ㅞ":{"ha":0,"x_min":0,"x_max":0,"o":"m 1146 1103 l 982 1103 l 982 -118 l 1146 -118 z m 898 1080 l 734 1080 l 734 347 l 547 347 l 547 212 l 734 212 l 734 -81 l 898 -81 z m 47 567 l 65 437 b 294 442 131 437 210 438 l 294 -33 l 460 -33 l 460 453 b 689 480 540 460 618 469 l 677 595 b 47 567 487 574 218 567 z "},"ￕ":{"ha":0,"x_min":0,"x_max":0,"o":"m 1146 1103 l 982 1103 l 982 -118 l 1146 -118 z m 898 1080 l 734 1080 l 734 347 l 547 347 l 547 212 l 734 212 l 734 -81 l 898 -81 z m 47 567 l 65 437 b 294 442 131 437 210 438 l 294 -33 l 460 -33 l 460 453 b 689 480 540 460 618 469 l 677 595 b 47 567 487 574 218 567 z "},"ㅟ":{"ha":0,"x_min":0,"x_max":0,"o":"m 1116 1099 l 941 1099 l 941 -125 l 1116 -125 z m 81 555 l 102 414 b 404 420 195 414 298 416 l 404 -30 l 578 -30 l 578 429 b 890 461 682 436 787 446 l 880 586 b 81 555 620 557 321 553 z "},"ￖ":{"ha":0,"x_min":0,"x_max":0,"o":"m 1116 1099 l 941 1099 l 941 -125 l 1116 -125 z m 81 555 l 102 414 b 404 420 195 414 298 416 l 404 -30 l 578 -30 l 578 429 b 890 461 682 436 787 446 l 880 586 b 81 555 620 557 321 553 z "},"ㅠ":{"ha":0,"x_min":0,"x_max":0,"o":"m 1162 708 l 38 708 l 38 568 l 298 568 l 298 61 l 475 61 l 475 568 l 719 568 l 719 61 l 892 61 l 892 568 l 1162 568 z "},"ￗ":{"ha":0,"x_min":0,"x_max":0,"o":"m 1162 708 l 38 708 l 38 568 l 298 568 l 298 61 l 475 61 l 475 568 l 719 568 l 719 61 l 892 61 l 892 568 l 1162 568 z "},"ㅡ":{"ha":0,"x_min":0,"x_max":0,"o":"m 1162 587 l 38 587 l 38 446 l 1162 446 z "},"ￚ":{"ha":0,"x_min":0,"x_max":0,"o":"m 1162 587 l 38 587 l 38 446 l 1162 446 z "},"ㅢ":{"ha":0,"x_min":0,"x_max":0,"o":"m 1104 1095 l 930 1095 l 930 -126 l 1104 -126 z m 69 381 l 90 241 b 867 288 319 241 604 245 l 857 414 b 69 381 604 382 308 381 z "},"ￛ":{"ha":0,"x_min":0,"x_max":0,"o":"m 1104 1095 l 930 1095 l 930 -126 l 1104 -126 z m 69 381 l 90 241 b 867 288 319 241 604 245 l 857 414 b 69 381 604 382 308 381 z "},"ㅣ":{"ha":0,"x_min":0,"x_max":0,"o":"m 690 1101 l 518 1101 l 518 -119 l 690 -119 z "},"ￜ":{"ha":0,"x_min":0,"x_max":0,"o":"m 690 1101 l 518 1101 l 518 -119 l 690 -119 z "},"ㅤ":{"ha":0,"x_min":0,"x_max":0,"o":""},"ㆍ":{"ha":0,"x_min":0,"x_max":0,"o":""},"가":{"ha":0,"x_min":0,"x_max":0,"o":""},"각":{"ha":0,"x_min":0,"x_max":0,"o":"l -718 0 l -718 174 l -433 174 l -433 340 l -289 340 l -289 174 "},"갂":{"ha":-700,"x_min":0,"x_max":0,"o":""},"갃":{"ha":0,"x_min":0,"x_max":0,"o":""},"간":{"ha":0,"x_min":0,"x_max":0,"o":"m 1016 1109 "},"갅":{"ha":1015,"x_min":0,"x_max":0,"o":""},"갆":{"ha":0,"x_min":0,"x_max":0,"o":""},"갇":{"ha":0,"x_min":0,"x_max":0,"o":""},"갈":{"ha":0,"x_min":0,"x_max":0,"o":""},"갉":{"ha":0,"x_min":0,"x_max":0,"o":""},"갊":{"ha":0,"x_min":0,"x_max":0,"o":""},"갋":{"ha":0,"x_min":0,"x_max":0,"o":""},"갌":{"ha":0,"x_min":0,"x_max":0,"o":""},"갍":{"ha":0,"x_min":0,"x_max":0,"o":""},"갎":{"ha":0,"x_min":0,"x_max":0,"o":""},"갏":{"ha":0,"x_min":0,"x_max":0,"o":""},"감":{"ha":0,"x_min":0,"x_max":0,"o":""},"갑":{"ha":0,"x_min":0,"x_max":0,"o":"m 1016 1109 "},"값":{"ha":0,"x_min":0,"x_max":0,"o":"l -670 0 l -670 174 l -400 174 l -400 340 l -256 340 l -256 174 "},"갓":{"ha":0,"x_min":0,"x_max":0,"o":"m 1183 791 l 1016 791 l 1016 1111 l 842 1111 l 842 294 l 1016 294 l 1016 650 l 1183 650 b 1550 463 1183 148 1550 252 b 1884 NaN 1550 699 1884 NaN z m 1911 NaN l 1911 NaN l 1739 NaN l 1739 NaN b 1347 NaN 1739 NaN 1607 NaN l 1417 NaN b 1826 NaN 1610 NaN 1750 NaN b 2233 NaN 1900 NaN 2040 NaN l 2302 NaN b 1911 NaN 2040 NaN 1911 NaN z "},"갔":{"ha":0,"x_min":0,"x_max":0,"o":"m 1016 1111 "},"강":{"ha":0,"x_min":0,"x_max":0,"o":""},"갖":{"ha":0,"x_min":0,"x_max":0,"o":"m 1016 1111 "},"갗":{"ha":0,"x_min":0,"x_max":0,"o":"m 1183 848 l 1016 848 l 1016 1109 l 842 1109 l 842 437 l 1016 437 l 1016 707 l 1183 707 "},"갘":{"ha":0,"x_min":0,"x_max":0,"o":""},"같":{"ha":0,"x_min":0,"x_max":0,"o":""},"갚":{"ha":0,"x_min":0,"x_max":0,"o":""},"갛":{"ha":0,"x_min":0,"x_max":0,"o":""},"개":{"ha":-167,"x_min":0,"x_max":0,"o":"m 1101 1109 z "},"객":{"ha":-283,"x_min":0,"x_max":0,"o":""},"갞":{"ha":-283,"x_min":0,"x_max":0,"o":""},"갟":{"ha":-282,"x_min":0,"x_max":0,"o":""},"갠":{"ha":-350,"x_min":0,"x_max":0,"o":""},"갡":{"ha":-522,"x_min":0,"x_max":0,"o":"l -282 0 l -282 -111 l -22 -111 l -22 -274 l -688 -274 l -688 -111 l -419 -111 l -419 0 l -692 0 l -692 164 "},"갢":{"ha":-251,"x_min":0,"x_max":0,"o":""},"갣":{"ha":-522,"x_min":0,"x_max":0,"o":"l -288 0 l -288 -111 l -19 -111 l -19 -274 l -707 -274 l -707 -111 l -427 -111 l -427 0 l -718 0 l -718 164 "},"갤":{"ha":0,"x_min":0,"x_max":0,"o":"l -251 0 l -251 -111 l -22 -111 l -22 -274 l -609 -274 l -609 -111 l -387 -111 l -387 0 l -618 0 l -618 164 b -1278 454 -1146 712 -1171 564 b NaN NaN -1501 384 -1421 258 l NaN NaN b NaN NaN NaN NaN NaN NaN m NaN NaN l NaN NaN l NaN NaN l NaN NaN l NaN NaN l NaN NaN l NaN NaN l NaN NaN l NaN NaN l NaN NaN l NaN NaN l NaN NaN z "},"갥":{"ha":-252,"x_min":0,"x_max":0,"o":""},"갦":{"ha":-252,"x_min":0,"x_max":0,"o":""},"갧":{"ha":-251,"x_min":0,"x_max":0,"o":""},"갨":{"ha":-252,"x_min":0,"x_max":0,"o":""},"갩":{"ha":-252,"x_min":0,"x_max":0,"o":""},"갪":{"ha":0,"x_min":0,"x_max":0,"o":""},"갫":{"ha":19,"x_min":0,"x_max":0,"o":"l -248 0 l -248 -111 l -22 -111 l -22 -274 l -604 -274 l -604 -111 l -387 -111 l -387 0 l -616 0 l -616 164 b -1280 462 -1143 709 -1170 567 b NaN NaN -1500 395 -1419 267 l NaN NaN b NaN NaN NaN NaN NaN NaN "},"갬":{"ha":-522,"x_min":0,"x_max":0,"o":"l -282 0 l -282 -111 l -22 -111 l -22 -274 l -696 -274 l -696 -111 l -419 -111 l -419 0 l -703 0 l -703 164 m -180 -509 l 438 -509 l 438 -1351 l -19 -1351 l -19 -509 z m -690 -189 l -189 -189 l -189 -370 l -690 -370 z "},"갭":{"ha":-273,"x_min":0,"x_max":0,"o":""},"갮":{"ha":-271,"x_min":0,"x_max":0,"o":""},"갯":{"ha":-298,"x_min":0,"x_max":0,"o":""},"갰":{"ha":-83,"x_min":0,"x_max":0,"o":"l -289 0 l -289 -111 l -22 -111 l -22 -274 l -688 -274 l -688 -111 l -427 -111 l -427 0 l -692 0 l -692 164 m -1214 772 l -1701 772 l -1701 631 l -1393 631 b -1761 255 -1420 465 -1533 341 l -1676 127 b -1214 772 -1359 254 -1214 461 z "},"갱":{"ha":-292,"x_min":0,"x_max":0,"o":""},"갲":{"ha":274,"x_min":0,"x_max":0,"o":""},"갳":{"ha":0,"x_min":0,"x_max":0,"o":"l -269 0 l -269 -111 l -22 -111 l -22 114 l 90 114 l 90 -179 l 254 -179 m -271 442 l -753 442 l -753 304 l -450 304 b -812 -85 -476 132 -585 5 l -727 -210 b -271 442 -408 -81 -271 132 z "},"갴":{"ha":-522,"x_min":0,"x_max":0,"o":"l -281 0 l -281 -111 l -22 -111 l -22 -274 l -696 -274 l -696 -111 l -422 -111 l -422 0 l -703 0 l -703 164 "},"갵":{"ha":-256,"x_min":0,"x_max":0,"o":""},"갶":{"ha":277,"x_min":0,"x_max":0,"o":""},"갷":{"ha":-528,"x_min":0,"x_max":0,"o":"l -248 0 l -248 -111 l -22 -111 l -22 -274 l -597 -274 l -597 -111 l -387 -111 l -387 0 l -656 0 l -656 164 "},"갸":{"ha":0,"x_min":0,"x_max":0,"o":"m 1184 802 l 1010 802 l 1010 1109 l 837 1109 l 837 -122 l 1010 -122 l 1010 293 l 1184 293 l 1184 437 l 1010 437 l 1010 661 l 1184 661 "},"갹":{"ha":0,"x_min":0,"x_max":0,"o":"m 1183 945 l 1016 945 l 1016 1109 l 842 1109 l 842 392 l 1016 392 l 1016 541 l 1183 541 l 1183 682 l 1016 682 l 1016 807 l 1183 807 "},"갺":{"ha":-616,"x_min":0,"x_max":0,"o":"m 1180 959 l 1016 959 l 1016 1109 l 842 1109 l 842 410 l 1016 410 l 1016 560 l 1180 560 l 1180 699 l 1016 699 l 1016 821 l 1180 821 z "},"갻":{"ha":0,"x_min":0,"x_max":0,"o":"l -694 0 l -694 174 l -547 174 l -547 340 l -410 340 l -410 174 l -285 174 l -285 340 l -146 340 l -146 174 "},"갼":{"ha":0,"x_min":0,"x_max":0,"o":"m 1183 901 l 1016 901 l 1016 1109 l 841 1109 l 841 225 l 1016 225 l 1016 463 l 1183 463 l 1183 602 l 1016 602 l 1016 761 l 1183 761 "},"갽":{"ha":670,"x_min":0,"x_max":0,"o":"m 510 -81 l 1557 -81 l 1557 -247 l 1701 -247 l 1701 -420 l 1034 -420 l 1034 -247 l 1162 -247 l 1162 -81 l 1299 -81 l 1299 -247 l 1419 -247 l 1419 -81 z "},"갾":{"ha":0,"x_min":0,"x_max":0,"o":"l -616 0 l -616 174 l -510 174 l -510 338 l -370 338 l -370 174 l -278 174 l -278 338 l -140 338 l -140 174 "},"갿":{"ha":0,"x_min":0,"x_max":0,"o":""},"걀":{"ha":0,"x_min":0,"x_max":0,"o":"l -617 0 l -617 174 l -502 174 l -502 340 l -366 340 l -366 174 l -262 174 l -262 340 "},"걁":{"ha":0,"x_min":0,"x_max":0,"o":""},"걂":{"ha":0,"x_min":0,"x_max":0,"o":""},"걃":{"ha":0,"x_min":0,"x_max":0,"o":""},"걄":{"ha":0,"x_min":0,"x_max":0,"o":""},"걅":{"ha":0,"x_min":0,"x_max":0,"o":""},"걆":{"ha":0,"x_min":0,"x_max":0,"o":""},"걇":{"ha":0,"x_min":0,"x_max":0,"o":""},"걈":{"ha":0,"x_min":0,"x_max":0,"o":""},"걉":{"ha":0,"x_min":0,"x_max":0,"o":"m 1016 1109 l 841 1109 l 841 439 l 1016 439 l 1016 568 l 1183 568 l 1183 705 l 1016 705 l 1016 827 l 1183 827 l 1183 967 l 1016 967 "},"걊":{"ha":0,"x_min":0,"x_max":0,"o":"l -670 0 l -670 174 l -541 174 l -541 294 l -374 294 l -374 434 l -541 434 "},"걋":{"ha":0,"x_min":0,"x_max":0,"o":"m 1180 922 l 1016 922 l 1016 1109 l 842 1109 l 842 294 l 1016 294 l 1016 491 l 1164 491 l 1164 655 b 1400 475 1164 156 1400 264 b 1733 NaN 1400 707 1733 NaN z m 1761 NaN b 1901 NaN 1797 NaN 1761 NaN b NaN NaN 2094 NaN 2163 NaN l NaN NaN b NaN NaN NaN NaN NaN NaN z "},"걌":{"ha":0,"x_min":0,"x_max":0,"o":"m 1016 1111 "},"걍":{"ha":0,"x_min":0,"x_max":0,"o":"m 1179 941 l 1016 941 l 1016 1109 l 842 1109 l 842 393 l 1016 393 l 1016 540 l 1179 540 l 1179 681 l 1016 681 l 1016 800 l 1179 800 "},"걎":{"ha":0,"x_min":0,"x_max":0,"o":"m 1016 1111 "},"걏":{"ha":678,"x_min":0,"x_max":0,"o":"m 338 71 l 1377 71 l 1377 -103 l 704 -103 l 704 71 l 850 71 l 850 186 l 1017 186 l 1017 323 l 850 323 "},"걐":{"ha":0,"x_min":0,"x_max":0,"o":""},"걑":{"ha":0,"x_min":0,"x_max":0,"o":"l -648 0 l -648 174 l -522 174 l -522 340 l -385 340 l -385 174 l -270 174 l -270 340 l -134 340 l -134 174 "},"걒":{"ha":0,"x_min":0,"x_max":0,"o":""},"걓":{"ha":0,"x_min":0,"x_max":0,"o":"m 1183 975 l 1016 975 l 1016 1109 l 842 1109 l 842 468 l 1016 468 l 1016 587 l 1183 587 l 1183 727 l 1016 727 l 1016 837 l 1183 837 "},"걔":{"ha":-167,"x_min":0,"x_max":0,"o":"m 1101 1109 z m 1350 617 l 1350 317 l 1237 317 l 1237 585 l 1076 585 l 1076 -563 l 1237 -563 l 1237 -165 l 1350 -165 l 1350 -617 l 1556 -617 l 1556 -505 l 1350 -505 z "},"걕":{"ha":-153,"x_min":0,"x_max":0,"o":"m 247 -346 l 247 -457 l 378 -457 l 378 -620 l -317 -620 l -317 -457 l -167 -457 l -167 -346 l -323 -346 l -323 -208 l -212 -208 l -212 -346 z "},"걖":{"ha":-156,"x_min":0,"x_max":0,"o":"m 247 -336 l 247 -448 l 381 -448 l 381 -610 l -296 -610 l -296 -448 l -156 -448 l -156 -336 l -302 -336 l -302 -213 l -191 -213 l -191 -336 z "},"걗":{"ha":0,"x_min":0,"x_max":0,"o":""},"걘":{"ha":-218,"x_min":0,"x_max":0,"o":"m -309 697 l -309 586 l -113 586 l -113 423 l -975 423 l -975 586 l -739 586 l -739 697 l -1012 697 l -1012 852 l -901 852 l -901 697 z "},"걙":{"ha":0,"x_min":0,"x_max":0,"o":"l -156 0 l -156 -111 l -22 -111 l -22 -274 l -688 -274 l -688 -111 l -549 -111 l -549 0 l -692 0 l -692 164 "},"걚":{"ha":-136,"x_min":0,"x_max":0,"o":"m -37 646 l -37 534 l 77 534 l 77 372 l -515 372 l -515 534 l -411 534 l -411 646 l -526 646 l -526 741 l -415 741 l -415 646 z "},"걛":{"ha":0,"x_min":0,"x_max":0,"o":"l -155 0 l -155 -111 l -19 -111 l -19 -274 l -707 -274 l -707 -111 l -559 -111 l -559 0 l -718 0 l -718 164 "},"걜":{"ha":-528,"x_min":0,"x_max":0,"o":"l -141 0 l -141 -111 l -22 -111 l -22 -274 l -609 -274 l -609 -111 l -502 -111 l -502 0 l -618 0 l -618 164 m -91 -434 l 457 -434 l 457 -1279 l 324 -1279 l 324 -605 l 248 -605 l 248 -1278 l -95 -1278 l -95 -392 l 41 -392 l 41 -1105 l 122 -1105 l 122 -434 z m -153 199 l -153 297 l -42 297 l -42 199 z "},"걝":{"ha":-142,"x_min":0,"x_max":0,"o":"m 202 631 l 202 519 l 323 519 l 323 639 l 434 639 l 434 514 l 484 514 l 484 -99 l 586 -99 l 586 12 l 484 12 z "},"걞":{"ha":-528,"x_min":0,"x_max":0,"o":"l -141 0 l -141 -111 l -22 -111 l -22 9 l 90 9 l 90 -117 l 254 -117 m 506 -419 l 506 141 l 606 141 l 606 252 l 506 252 z "},"걟":{"ha":-138,"x_min":0,"x_max":0,"o":"m 214 635 l 214 524 l 331 524 l 331 361 l -267 361 l -267 524 l -151 524 l -151 635 l -273 635 l -273 738 l -161 738 l -161 635 z "},"걠":{"ha":-141,"x_min":0,"x_max":0,"o":"m 252 -302 l 252 -414 l 372 -414 l 372 -294 l 483 -294 l 483 -419 l 585 -419 l 585 -308 l 483 -308 z "},"걡":{"ha":-142,"x_min":0,"x_max":0,"o":"m 214 625 l 214 514 l 335 514 l 335 628 l 446 628 l 446 509 l 484 509 l 484 -104 l 590 -104 l 590 7 l 484 7 z "},"걢":{"ha":-141,"x_min":0,"x_max":0,"o":"m 218 632 l 218 521 l 338 521 l 338 640 l 449 640 l 449 515 l 483 515 l 483 -99 l 585 -99 l 585 12 l 483 12 "},"걣":{"ha":19,"x_min":0,"x_max":0,"o":"l -138 0 l -138 -111 l -22 -111 l -22 -274 l -604 -274 l -604 -111 l -503 -111 l -503 0 l -616 0 l -616 164 b -1280 462 -1143 709 -1170 567 b NaN NaN -1500 395 -1419 267 l NaN NaN b NaN NaN NaN NaN NaN NaN m NaN NaN l NaN NaN l NaN NaN l NaN NaN l NaN NaN z "},"걤":{"ha":-522,"x_min":0,"x_max":0,"o":"l -674 0 l -674 163 l -532 163 l -532 274 l -681 274 l -681 438 m -159 -231 l 460 -231 l 460 -1073 l -1 -1073 l -1 -231 z m -673 92 l -171 92 l -171 -92 l -673 -92 "},"걥":{"ha":0,"x_min":0,"x_max":0,"o":""},"걦":{"ha":0,"x_min":0,"x_max":0,"o":""},"걧":{"ha":0,"x_min":0,"x_max":0,"o":""},"걨":{"ha":0,"x_min":0,"x_max":0,"o":"l -666 0 l -666 163 l -532 163 l -532 274 l -670 274 l -670 438 m -1192 1046 l -1679 1046 l -1679 905 l -1371 905 b -1739 529 -1398 739 -1512 615 l -1655 401 b -1192 1046 -1337 528 -1192 735 "},"걩":{"ha":0,"x_min":0,"x_max":0,"o":""},"걪":{"ha":0,"x_min":0,"x_max":0,"o":""},"걫":{"ha":0,"x_min":0,"x_max":0,"o":"l -142 0 l -142 -111 l -22 -111 l -22 -5 l 90 -5 l 90 -179 l 254 -179 m -271 442 l -753 442 l -753 304 l -450 304 b -812 -85 -476 132 -585 5 l -727 -210 b -271 442 -408 -81 -271 132 "},"걬":{"ha":0,"x_min":0,"x_max":0,"o":"l -155 0 l -155 -111 l -22 -111 l -22 -274 l -696 -274 l -696 -111 l -553 -111 l -553 0 l -703 0 l -703 164 "},"걭":{"ha":0,"x_min":0,"x_max":0,"o":""},"걮":{"ha":0,"x_min":0,"x_max":0,"o":""},"걯":{"ha":-528,"x_min":0,"x_max":0,"o":"l -138 0 l -138 -111 l -22 -111 l -22 -274 l -597 -274 l -597 -111 l -498 -111 l -498 0 l -662 0 l -662 164 m -513 811 l -513 1397 l -418 1397 l -418 1508 l -513 1508 z "},"거":{"ha":0,"x_min":0,"x_max":0,"o":"l -475 0 l -475 -245 l -616 -245 l -616 0 l -1234 0 l -1234 172 m -1645 1278 l -2228 1278 l -2228 1142 l -1819 1142 b -2287 522 -1846 872 -1975 676 l -2197 387 b -1645 1278 -1766 601 -1645 905 z "},"걱":{"ha":0,"x_min":0,"x_max":0,"o":"m 680 1038 l 113 1038 l 113 899 l 495 899 l 465 899 l 465 732 l 315 732 l 315 597 l 46 597 l 46 994 l -648 994 l -648 667 l -476 667 z m -476 1898 l -648 1898 l -648 1599 l -861 1599 l -861 1457 l -648 1457 l -648 1181 l -476 1181 z "},"걲":{"ha":0,"x_min":0,"x_max":0,"o":"m -64 -688 l -488 -688 l -488 -826 l -239 -826 l -239 -1162 l -64 -1162 z m 400 69 l 228 69 l 228 -217 l 8 -217 l 8 -359 l 228 -359 l 228 -637 l 400 -637 z m 400 -688 l -11 -688 l -11 -826 l 228 -826 l 228 -1162 l 400 -1162 z "},"걳":{"ha":-100,"x_min":0,"x_max":0,"o":"m 400 69 l 228 69 l 228 -217 l 8 -217 l 8 -359 l 228 -359 l 228 -639 l 400 -639 z "},"건":{"ha":0,"x_min":0,"x_max":0,"o":"l -357 0 l -357 -221 l -499 -221 l -499 0 l -902 0 l -902 172 m -1284 983 l -1862 983 l -1862 842 l -1473 842 b -1926 433 -1506 660 -1670 513 l -1855 296 b -1284 983 -1495 408 -1284 652 z m -871 1 l -1539 1 l -1539 263 l -1716 263 l -1716 -137 l -871 -137 z "},"걵":{"ha":0,"x_min":0,"x_max":0,"o":"b -213 225 -135 43 -203 131 l -34 225 l -34 363 l -564 363 l -564 225 l -381 225 b -574 9 -393 137 -454 54 l -610 99 b -807 41 -662 68 -736 49 l -464 41 l -464 1032 l -719 1032 l -719 1204 "},"걶":{"ha":-312,"x_min":0,"x_max":0,"o":"l -263 0 l -263 -216 l -91 -216 m -502 358 l -1047 358 l -1047 218 l -686 218 b -1119 -132 -712 59 -845 -64 l -1058 -269 b -502 358 -690 -174 -502 33 z "},"걷":{"ha":0,"x_min":0,"x_max":0,"o":"m 678 1038 l 110 1038 l 110 899 l 491 899 b 43 522 462 730 310 595 l 110 388 b 678 1038 473 488 678 712 z m 1077 1108 l 905 1108 l 905 811 l 685 811 l 685 670 l 905 670 l 905 418 l 1077 418 "},"걸":{"ha":0,"x_min":0,"x_max":0,"o":"l -263 0 l -263 -216 l -91 -216 m -500 358 l -1047 358 l -1047 218 l -686 218 b -1115 -111 -712 68 -846 -52 l -1058 -248 b -500 358 -694 -161 -500 35 z m -91 -263 l -911 -263 l -911 -399 l -264 -399 l -264 -473 l -910 -473 l -910 -819 l -64 -819 l -64 -682 l -736 -682 l -736 -601 l -91 -601 z "},"걹":{"ha":0,"x_min":0,"x_max":0,"o":"l -278 0 l -278 -218 l -416 -218 l -416 0 l -652 0 l -652 172 "},"걺":{"ha":-397,"x_min":0,"x_max":0,"o":"l -275 0 l -275 -218 l -414 -218 l -414 0 l -637 0 l -637 172 m -160 494 l 426 494 l 426 414 l -209 414 l -209 0 l -743 0 l -743 414 z m -1008 821 l -894 821 l -894 541 l -1008 541 z "},"걻":{"ha":-397,"x_min":0,"x_max":0,"o":"l -220 0 l -220 172 m -7 505 l 570 505 l 570 425 l -65 425 l -65 275 l -610 275 l -610 689 l -65 689 l -65 537 l -205 537 l -205 425 z m -205 152 l -205 297 l -92 297 l -92 152 z "},"걼":{"ha":0,"x_min":0,"x_max":0,"o":"l -228 0 l -228 172 "},"걽":{"ha":0,"x_min":0,"x_max":0,"o":"l -220 0 l -220 172 "},"걾":{"ha":-397,"x_min":0,"x_max":0,"o":"l -275 0 l -275 -218 l -414 -218 l -414 0 l -637 0 l -637 172 m -483 -861 l -483 -275 l -217 -275 l -217 -206 l -483 -206 z "},"걿":{"ha":0,"x_min":0,"x_max":0,"o":"l -256 0 l -256 -218 l -395 -218 l -395 0 l -613 0 l -613 172 m -1010 741 l -1575 741 l -1575 601 l -1196 601 b -1640 271 -1221 450 -1360 329 l -1580 136 b -1010 741 -1210 217 -1010 416 "},"검":{"ha":677,"x_min":0,"x_max":0,"o":"m 0 -49 l 1038 -49 l 1038 -867 l 559 -867 l 559 -49 z m -90 294 l 388 294 l 388 87 l -90 87 z "},"겁":{"ha":0,"x_min":0,"x_max":0,"o":"l -285 0 l -285 -222 l -423 -222 l -423 0 l -667 0 l -667 172 m -1063 772 l -1630 772 l -1630 632 l -1251 632 b -1695 277 -1275 473 -1412 344 l -1632 140 b -1063 772 -1257 235 -1063 442 "},"겂":{"ha":0,"x_min":0,"x_max":0,"o":"l -285 0 l -285 -244 l -113 -244 m -509 355 l -1076 355 l -1076 216 l -696 216 b -1141 -140 -720 56 -857 -73 l -1077 -277 b -509 355 -703 -182 -509 26 z "},"것":{"ha":0,"x_min":0,"x_max":0,"o":"l -326 0 l -326 -218 l -467 -218 l -467 0 l -819 0 l -819 172 m -1219 898 l -1780 898 l -1780 761 l -1405 761 b -1846 362 -1432 582 -1567 445 l -1771 227 b -1219 898 -1397 343 -1219 564 z m -1152 222 b -1152 -39 -1108 52 -1152 91 b -1010 NaN -1152 102 -1010 NaN z "},"겄":{"ha":-30,"x_min":0,"x_max":0,"o":"m 677 1038 l 113 1038 l 113 899 l 492 899 z m 892 970 l 726 970 l 726 817 l 590 817 l 590 551 l 418 551 l 418 258 l 199 258 l 199 117 l 418 117 l 418 -140 l 590 -140 z m 4 -241 l 65 -410 l 4 -298 b 213 NaN 45 -223 121 -179 z "},"겅":{"ha":0,"x_min":0,"x_max":0,"o":"l -316 0 l -316 -213 l -458 -213 l -458 0 l -707 0 l -707 172 m -1103 796 b -1188 1225 -1670 658 -1291 1034 b NaN NaN -971 1226 -636 NaN z m NaN NaN b NaN NaN NaN NaN NaN NaN b NaN NaN NaN NaN NaN NaN b NaN NaN NaN NaN NaN NaN z m NaN NaN b NaN NaN NaN NaN NaN NaN b NaN NaN NaN NaN NaN NaN b NaN NaN NaN NaN NaN NaN b NaN NaN NaN NaN NaN NaN z "},"겆":{"ha":0,"x_min":0,"x_max":0,"o":"m 696 1038 l 115 1038 l 115 899 l 507 899 b 45 548 482 741 334 610 l 106 410 b 696 1038 484 496 694 709 z m 1077 1108 "},"겇":{"ha":207,"x_min":0,"x_max":0,"o":"m 1095 347 l 747 347 l 747 468 l 571 468 l 571 347 l 221 347 l 221 220 l 568 220 b 174 11 545 130 415 32 l 228 -119 z m -171 699 l -151 699 l -151 846 l -76 846 l -76 923 l 26 923 l 26 998 l -75 998 l -75 1145 l -152 1145 l -152 1352 l -732 1352 l -732 1213 l -340 1213 b -803 863 -366 1056 -515 924 l -742 726 b -152 1352 -365 812 -153 1025 z m 229 1422 l 57 1422 l 57 1125 l -163 1125 l -163 984 l 57 984 l 57 740 l 229 740 z "},"겈":{"ha":-400,"x_min":0,"x_max":0,"o":""},"겉":{"ha":0,"x_min":0,"x_max":0,"o":"l -285 0 l -285 -220 l -423 -220 l -423 0 l -647 0 l -647 172 m -1040 761 l -1613 761 l -1613 624 l -1230 624 b -1675 273 -1254 465 -1390 338 l -1611 138 b -1040 761 -1238 227 -1042 433 z "},"겊":{"ha":0,"x_min":0,"x_max":0,"o":"m 682 1039 l 113 1039 l 113 902 l 495 902 b 47 541 467 740 317 606 l 113 404 b 682 1039 473 496 681 715 z m 1077 1108 l 905 1108 l 905 810 l 682 810 l 682 669 l 905 669 l 905 439 l 1077 439 z m 1086 385 l 232 385 l 232 250 l 389 250 l 389 33 l 217 33 l 217 -106 l 1100 -106 l 1100 33 l 930 33 l 930 250 l 1086 250 z m 559 33 l 559 250 l 760 250 l 760 33 z "},"겋":{"ha":0,"x_min":0,"x_max":0,"o":"m 663 1048 l 114 1048 l 114 913 l 476 913 b 45 575 456 758 331 637 l 103 439 b 663 1048 481 529 663 720 z m 1077 1109 "},"게":{"ha":1107,"x_min":0,"x_max":0,"o":"m -263 1207 l 846 1207 l 846 1046 l 397 1046 l 397 898 b 439 1227 427 1000 439 1110 l -47 1227 l -47 1088 l 267 1088 b -115 518 243 846 134 666 l -18 396 b 343 761 158 498 273 620 l 545 761 l 545 194 l 707 194 z "},"겍":{"ha":0,"x_min":0,"x_max":0,"o":"b 804 -388 1138 -172 1027 -297 l 887 -513 b 1246 -235 1055 -443 1173 -351 l 1442 -235 l 1442 -481 l 1605 -481 l 1605 210 l 1442 210 l 1442 -95 l 1312 -95 b 1344 138 1333 -24 1343 53 m 1861 233 l 1697 233 l 1697 -491 l 1861 -491 z "},"겎":{"ha":0,"x_min":0,"x_max":0,"o":"b 292 680 581 1013 413 903 b NaN NaN 205 764 81 NaN l NaN NaN b NaN NaN NaN NaN NaN NaN l NaN NaN l NaN NaN l NaN NaN l NaN NaN l NaN NaN l NaN NaN l NaN NaN b NaN NaN NaN NaN NaN NaN m NaN NaN l NaN NaN l NaN NaN l NaN NaN "},"겏":{"ha":0,"x_min":0,"x_max":0,"o":"b 718 -358 1008 -26 842 -137 b NaN NaN 635 -274 509 NaN l NaN NaN b NaN NaN NaN NaN NaN NaN l NaN NaN l NaN NaN l NaN NaN l NaN NaN l NaN NaN l NaN NaN l NaN NaN b NaN NaN NaN NaN NaN NaN m NaN NaN l NaN NaN l NaN NaN l NaN NaN z "},"겐":{"ha":0,"x_min":0,"x_max":0,"o":"l -918 0 l -918 164 m -1175 1061 l -1337 1061 l -1337 707 l -1481 707 b -1439 968 -1453 785 -1439 872 l -1915 968 l -1915 831 l -1619 831 b -1986 437 -1645 656 -1755 527 l -1900 309 b -1550 571 -1741 375 -1626 462 l -1337 571 l -1337 197 l -1175 197 z m -871 9 l -1571 9 l -1571 279 l -1744 279 l -1744 -129 l -871 -129 z "},"겑":{"ha":228,"x_min":0,"x_max":0,"o":""},"겒":{"ha":123,"x_min":0,"x_max":0,"o":"m 376 380 l 206 380 l 206 -92 l 275 -92 z m 1058 222 l 845 222 l 845 312 l 677 312 l 677 222 l 461 222 l 461 98 l 1058 98 z m 758 69 b 618 3 618 69 518 3 b NaN NaN 553 3 693 NaN b NaN NaN NaN NaN NaN NaN b NaN NaN NaN NaN NaN NaN z m NaN NaN b NaN NaN NaN NaN NaN NaN b NaN NaN NaN NaN NaN NaN b NaN NaN NaN NaN NaN NaN b NaN NaN NaN NaN NaN NaN z m NaN NaN l NaN NaN l NaN NaN l NaN NaN b NaN NaN NaN NaN NaN NaN l NaN NaN b NaN NaN NaN NaN NaN NaN l NaN NaN l NaN NaN l NaN NaN l NaN NaN l NaN NaN l NaN NaN l NaN NaN b NaN NaN NaN NaN NaN NaN z m NaN NaN l NaN NaN l NaN NaN l NaN NaN z "},"겓":{"ha":0,"x_min":0,"x_max":0,"o":"m 1118 37 l 431 37 l 431 201 l 1107 201 l 1107 336 l 258 336 l 258 -102 l 1118 -102 l 581 -102 l 581 1024 l 331 1024 l 331 1187 l 1013 1187 l 1013 468 l 1177 468 z "},"겔":{"ha":0,"x_min":0,"x_max":0,"o":"l -618 0 l -618 164 l -875 164 l -875 760 l -1073 760 l -1073 922 l -817 922 l -817 868 l -890 868 l -890 198 l -1234 198 l -1234 1084 l -1099 1084 l -1099 373 l -1019 373 l -1019 1042 "},"겕":{"ha":-256,"x_min":0,"x_max":0,"o":"m 256 -58 l 864 -58 l 864 -480 l 724 -480 l 724 -231 l 317 -231 l 317 -58 z "},"겖":{"ha":0,"x_min":0,"x_max":0,"o":"l -633 0 l -633 164 m -890 774 l -1053 774 l -1053 517 l -1183 517 b -1075 545 -1162 580 -1153 650 b -1385 NaN -1185 321 -1257 401 l NaN NaN b NaN NaN NaN NaN NaN NaN l NaN NaN l NaN NaN l NaN NaN z "},"겗":{"ha":-256,"x_min":0,"x_max":0,"o":"l -631 0 l -631 164 "},"겘":{"ha":-256,"x_min":0,"x_max":0,"o":"l -635 0 l -635 164 "},"겙":{"ha":1114,"x_min":0,"x_max":0,"o":"m 490 1004 l 511 1004 l 511 498 l 1047 498 l 1047 334 l 416 334 l 416 498 z "},"겚":{"ha":0,"x_min":0,"x_max":0,"o":"m -256 610 l -419 610 l -419 353 l -549 353 b -441 380 -529 416 -519 486 b -751 NaN -552 157 -624 237 l NaN NaN b NaN NaN NaN NaN NaN NaN l NaN NaN l NaN NaN l NaN NaN "},"겛":{"ha":-186,"x_min":0,"x_max":0,"o":"l -624 0 l -624 164 m -880 765 l -1043 765 l -1043 510 l -1173 510 b -1143 720 -1154 573 -1143 643 l -1617 720 l -1617 583 l -1326 583 b -1681 258 -1351 436 -1457 326 l -1600 130 b -1240 374 -1434 187 -1314 267 l -1043 374 l -1043 175 l -880 175 z m -568 45 z "},"겜":{"ha":581,"x_min":0,"x_max":0,"o":"m 674 -674 l 1698 -674 l 1698 -916 l 1861 -916 l 1861 -1755 l 1404 -1755 l 1404 -916 z m 736 -595 l 1233 -595 l 1233 -777 l 736 -777 z m 1404 300 l 1240 300 l 1240 -408 l 1404 -408 z "},"겝":{"ha":0,"x_min":0,"x_max":0,"o":"l 575 0 l 575 1027 l 351 1027 l 351 1190 l 996 1190 l 996 1027 l 713 1027 l 713 894 b 743 1118 734 961 743 1036 m 595 479 l 425 479 l 425 -16 l 1265 -16 l 1265 479 l 1095 479 l 1095 363 l 595 363 z m 595 119 l 595 227 l 1095 227 l 1095 119 z m 1265 1199 l 1101 1199 l 1101 524 l 1265 524 z "},"겞":{"ha":0,"x_min":0,"x_max":0,"o":"l 107 0 l 107 1006 l -106 1006 l -106 1169 l 528 1169 l 528 1006 l 245 1006 l 245 873 b 275 1097 266 941 275 1015 m 798 1179 l 633 1179 l 633 514 l 798 514 z "},"겟":{"ha":0,"x_min":0,"x_max":0,"o":"l -803 0 l -803 164 m -1059 944 l -1222 944 l -1222 629 l -1356 629 b -1325 864 -1335 701 -1325 779 l -1805 864 l -1805 727 l -1503 727 b -1868 319 -1528 547 -1640 414 l -1780 191 b -1416 491 -1609 267 -1490 366 l -1222 491 l -1222 269 l -1059 269 z m -1150 186 l -1150 225 l -1324 225 l -1324 186 b -1725 -125 -1324 52 -1458 -90 l -1659 -262 b -1237 -24 -1460 -232 -1315 -144 b -814 -262 -1160 -144 -1013 -232 l -747 -125 b -1150 186 -1013 -90 -1150 52 z "},"겠":{"ha":514,"x_min":0,"x_max":0,"o":"m 583 1024 l 100 1024 l 100 886 l 403 886 b 38 499 378 715 265 588 l 122 372 b 486 650 291 441 410 533 l 678 650 l 678 423 l 841 423 l 841 1085 l 678 1085 l 678 787 l 549 787 b 583 1024 572 859 583 937 z "},"겡":{"ha":0,"x_min":0,"x_max":0,"o":"m 581 1020 l 95 1020 l 95 882 l 401 882 b 30 483 376 705 263 576 l 115 357 b 487 648 290 429 412 525 l 678 648 l 678 408 l 841 408 l 841 1085 l 678 1085 l 678 785 l 548 785 b 581 1020 570 857 581 935 z m 1097 1108 l 933 1108 l 933 369 l 1097 369 z m 681 361 b 271 -52 514 96 422 -52 b 610 213 438 -52 349 213 b 700 363 776 213 865 363 b NaN NaN 792 363 530 NaN z m NaN NaN b NaN NaN NaN NaN NaN NaN b NaN NaN NaN NaN NaN NaN b NaN NaN NaN NaN NaN NaN b NaN NaN NaN NaN NaN NaN z "},"겢":{"ha":581,"x_min":0,"x_max":0,"o":"m 14 -54 l 1038 -54 l 1038 -909 l 898 -909 l 898 -576 b 514 -789 882 -674 757 -766 b 130 -576 272 -766 146 -672 l 463 -576 z "},"겣":{"ha":525,"x_min":0,"x_max":0,"o":"m -195 699 l -661 699 l -661 560 l -374 560 b -736 186 -399 395 -501 272 l -648 61 b -288 331 -477 127 -360 216 l -90 331 l -90 141 l 73 141 l 73 751 l -90 751 l -90 471 l -225 471 b -195 699 -205 539 -195 615 z "},"겤":{"ha":0,"x_min":0,"x_max":0,"o":"b 865 1185 581 1024 748 1094 b NaN NaN 940 1302 NaN NaN l NaN NaN l NaN NaN l NaN NaN l NaN NaN l NaN NaN l NaN NaN l NaN NaN b NaN NaN NaN NaN NaN NaN m NaN NaN l NaN NaN l NaN NaN l NaN NaN z m NaN NaN l NaN NaN l NaN NaN l NaN NaN l NaN NaN l NaN NaN l NaN NaN l NaN NaN l NaN NaN l NaN NaN z "},"겥":{"ha":0,"x_min":0,"x_max":0,"o":"l -636 0 l -636 164 m -892 777 l -1055 777 l -1055 525 l -1184 525 b -1156 732 -1165 587 -1156 656 l -1629 732 l -1629 595 l -1339 595 b -1695 259 -1363 445 -1470 333 l -1613 132 b -1246 389 -1442 193 -1321 277 l -1055 389 l -1055 172 l -892 172 z "},"겦":{"ha":-526,"x_min":0,"x_max":0,"o":"m 1107 369 l 240 369 l 240 232 l 397 232 l 397 33 l 597 33 l 597 190 z m 68 -194 l 68 598 l 267 598 l 267 812 l 68 812 z "},"겧":{"ha":0,"x_min":0,"x_max":0,"o":"m 1118 378 l 760 378 l 760 475 l 586 475 l 586 378 l 227 378 l 227 251 l 1118 251 b 547 -64 673 216 649 55 b NaN NaN 315 -145 399 -270 l NaN NaN b NaN NaN NaN NaN NaN NaN l NaN NaN l NaN NaN l NaN NaN l NaN NaN l NaN NaN l NaN NaN l NaN NaN b NaN NaN NaN NaN NaN NaN z m NaN NaN l NaN NaN l NaN NaN l NaN NaN z "},"겨":{"ha":0,"x_min":0,"x_max":0,"o":"m 669 981 l 83 981 l 83 845 l 492 845 b 23 225 464 572 319 376 l 113 88 b 625 655 402 231 556 426 l 905 655 l 905 457 l 606 457 l 606 319 l 905 319 l 905 -125 l 1077 -125 l 1077 1111 l 905 1111 l 905 792 l 655 792 b 669 981 664 853 669 916 z "},"격":{"ha":0,"x_min":0,"x_max":0,"o":"m 697 1032 l 121 1032 l 121 892 l 511 892 b 50 515 484 725 328 587 l 115 377 b 647 773 381 448 564 582 l 905 773 l 905 648 l 624 648 l 624 510 l 905 510 l 905 376 l 1077 376 l 1077 1108 l 905 1108 l 905 909 l 688 909 b 697 1032 694 948 697 989 z m 1077 326 l 229 326 l 229 190 l 905 190 l 905 -122 l 1077 -122 z "},"겪":{"ha":696,"x_min":0,"x_max":0,"o":"m -83 -686 l 955 -686 l 955 -806 l 1127 -806 l 1127 -99 l 703 -99 l 703 -237 l 952 -237 l 952 -574 l 1127 -574 z m 1591 -99 l 1180 -99 l 1180 -237 l 1419 -237 l 1419 -574 l 1591 -574 z "},"겫":{"ha":977,"x_min":0,"x_max":0,"o":""},"견":{"ha":0,"x_min":0,"x_max":0,"o":"m 1076 1108 l 905 1108 l 905 871 l 686 871 b 701 1016 696 917 701 966 l 119 1016 l 119 878 l 513 878 b 53 465 481 695 316 549 l 125 331 b 640 732 373 406 552 545 l 905 732 l 905 594 l 623 594 l 623 456 l 905 456 l 905 198 l 1076 198 z m 1108 35 l 439 35 l 439 289 l 263 289 l 263 -103 l 1108 -103 z "},"겭":{"ha":346,"x_min":0,"x_max":0,"o":"b -213 222 -134 42 -201 130 l -34 222 l -34 361 l -564 361 l -564 222 l -382 222 b -574 9 -395 135 -455 54 l -610 99 b -807 41 -662 68 -736 49 "},"겮":{"ha":354,"x_min":0,"x_max":0,"o":"m 236 1017 l 623 1017 l 623 845 l 468 845 l 468 612 b 476 719 473 646 476 682 l -83 719 l -83 579 l 285 579 b -155 241 262 427 132 304 l -94 104 b 434 480 181 168 357 291 l 701 480 l 701 372 l 419 372 l 419 241 l 701 241 l 701 148 l 873 148 z "},"겯":{"ha":0,"x_min":0,"x_max":0,"o":"m 684 1038 l 110 1038 l 110 899 l 498 899 b 46 528 469 733 316 598 l 113 393 b 639 796 378 464 559 601 "},"결":{"ha":0,"x_min":0,"x_max":0,"o":"l -155 0 l -155 -233 b -146 -126 -149 -199 -146 -163 l -705 -126 l -705 -266 l -338 -266 b -774 -587 -361 -414 -492 -531 l -716 -728 b -190 -365 -443 -669 -267 -551 l 79 -365 l 79 -473 l -16 -473 l -16 -301 m -16 -346 l -837 -346 l -837 -481 l -190 -481 l -190 -556 l -836 -556 l -836 -902 l 11 -902 l 11 -765 l -662 -765 l -662 -684 l -16 -684 z "},"겱":{"ha":0,"x_min":0,"x_max":0,"o":"m 677 1062 "},"겲":{"ha":-77,"x_min":0,"x_max":0,"o":"m 677 1062 l 566 1062 l 566 1234 l 1203 1234 l 1203 1062 l 1048 1062 l 1048 827 b 1055 935 1053 861 1055 897 z m 1533 1256 l 894 1256 l 894 842 l 359 842 l 359 1256 z m 95 1663 l 209 1663 l 209 1383 l 95 1383 z "},"겳":{"ha":-477,"x_min":0,"x_max":0,"o":"m 1077 1109 l 521 1109 l 521 970 l 888 970 b 449 646 865 822 732 703 l 510 505 b 1035 871 782 567 958 685 l 1305 871 l 1305 762 l 1203 762 l 1203 935 z m 1416 1267 l 1358 1267 l 1358 1118 l 812 1118 l 812 1531 l 1358 1531 l 1358 1379 l 1218 1379 l 1218 1267 z m 1218 994 l 1218 1139 l 1331 1139 l 1331 994 z "},"겴":{"ha":0,"x_min":0,"x_max":0,"o":"l -109 0 l -109 172 "},"겵":{"ha":0,"x_min":0,"x_max":0,"o":"l -102 0 l -102 172 "},"겶":{"ha":0,"x_min":0,"x_max":0,"o":"l -155 0 l -155 -235 b -148 -127 -151 -201 -148 -165 l -704 -127 l -704 -267 l -336 -267 b -776 -600 -359 -418 -490 -538 l -715 -738 l -441 -738 l -441 -675 l -265 -675 l -265 -554 l -190 -554 l -190 -366 l -301 -366 l -301 -194 "},"겷":{"ha":0,"x_min":0,"x_max":0,"o":"l -151 0 l -151 -233 b -142 -126 -145 -199 -142 -163 l -701 -126 l -701 -264 l -334 -264 b -770 -582 -356 -408 -488 -526 l -712 -720 b -186 -363 -442 -663 -264 -548 l 83 -363 l 83 -471 l -199 -471 l -199 -601 l 83 -601 l 83 -696 l 255 -696 "},"겸":{"ha":680,"x_min":0,"x_max":0,"o":"m 397 -671 l 1435 -671 l 1435 -803 l 1267 -803 l 1267 -1035 l 449 -1035 l 449 -1511 l 1267 -1511 z m 618 -1171 l 1096 -1171 l 1096 -1375 l 618 -1375 z "},"겹":{"ha":0,"x_min":0,"x_max":0,"o":"m 685 1042 l 114 1042 l 114 902 l 496 902 b 50 547 473 743 335 614 l 113 410 b 643 804 388 479 566 610 l 905 804 l 905 689 l 629 689 l 629 548 l 905 548 l 905 442 l 1077 442 l 1077 1109 l 905 1109 l 905 943 l 678 943 b 685 1042 682 975 685 1007 "},"겺":{"ha":0,"x_min":0,"x_max":0,"o":"l -167 0 l -167 -227 b -160 -127 -163 -195 -160 -162 l -731 -127 l -731 -267 l -349 -267 b -795 -623 -372 -427 -510 -555 l -732 -760 b -202 -365 -457 -690 -279 -559 l 60 -365 l 60 -477 l -216 -477 l -216 -617 l 60 -617 l 60 -732 l 232 -732 "},"겻":{"ha":0,"x_min":0,"x_max":0,"o":"l -205 0 l -205 -231 b -198 -119 -201 -195 -198 -158 l -762 -119 l -762 -256 l -385 -256 b -827 -655 -410 -436 -548 -574 l -754 -791 b -240 -369 -482 -708 -313 -568 l 26 -369 l 26 -490 l -252 -490 l -252 -628 l 26 -628 l 26 -849 l 198 -849 b -266 -1078 -134 -793 -136 -937 b NaN NaN -528 -1119 -460 -1256 l NaN NaN b NaN NaN NaN NaN NaN NaN b NaN NaN NaN NaN NaN NaN l NaN NaN b NaN NaN NaN NaN NaN NaN "}}}
